<svg xmlns="http://www.w3.org/2000/svg" viewBox="0 0 313.6 517"><title>1</title><path d="M300.1,171.2a15.2,15.2,0,0,1,0-17.3,31.8,31.8,0,0,0-10.4-45.8,15.2,15.2,0,0,1-7.5-15.6A31.7,31.7,0,0,0,253,55.8,15.5,15.5,0,0,1,239.4,45a32.2,32.2,0,0,0-16.6-19.5,31.8,31.8,0,0,0-25.6-.9,15.4,15.4,0,0,1-16.9-3.9,32.4,32.4,0,0,0-23.5-10.2,31.7,31.7,0,0,0-23.4,10.3,15.5,15.5,0,0,1-16.9,3.9A31.7,31.7,0,0,0,74.3,45.1,15.3,15.3,0,0,1,60.7,55.9,31.7,31.7,0,0,0,31.5,92.6,15.2,15.2,0,0,1,24,108.2,31.8,31.8,0,0,0,13.6,154a15.2,15.2,0,0,1,0,17.3A31.8,31.8,0,0,0,24,217.1a15.2,15.2,0,0,1,7.5,15.6,31.7,31.7,0,0,0,29.2,36.7,15.5,15.5,0,0,1,13.6,10.8,32.2,32.2,0,0,0,16.6,19.5,31.8,31.8,0,0,0,25.6.9,15.4,15.4,0,0,1,16.9,3.9,31.6,31.6,0,0,0,46.8.1,15.5,15.5,0,0,1,16.9-3.9,31.7,31.7,0,0,0,42.2-20.4,15.3,15.3,0,0,1,13.6-10.8,31.7,31.7,0,0,0,29.2-36.7,15.2,15.2,0,0,1,7.5-15.6,32.1,32.1,0,0,0,10.5-46Z" fill="#153e69"/><path d="M124,122.6l-2,15.5h15.1L135.5,152H120.3l-2.1,17.2H103.8L106,152H90.7l-2.1,17.2H74.2L76.3,152h-15l1.6-13.9H78l2.1-15.5H65l1.6-14H81.7L84,90.5H98.3l-2.2,18.1h15.3l2.2-18.1H128l-2.3,18.1h15.1l-1.6,14Zm-14.3,0H94.4l-2,15.5h15.3Z" fill="#fff"/><path d="M252.3,190.7c0,26-21.4,44.1-54.9,44.1-19.6,0-40-6.5-53.1-16.5l14.2-27.2c10.6,11,23.3,16.8,36.2,16.8,14.8,0,23.1-6.2,23.1-16.8s-8.3-16.3-23.3-16.3H171.8V155.9l31.6-30.2h-52l-.2-27.2h94.3v20.4l-36.4,33.9,6.8,1C237.2,157.1,252.3,170.1,252.3,190.7Z" fill="#fff"/><path d="M306.5,155.8a39.7,39.7,0,0,0-13-57.2,7.2,7.2,0,0,1-3.6-7.4,39.8,39.8,0,0,0-36.6-45.9,7.3,7.3,0,0,1-6.4-5.1,39.7,39.7,0,0,0-52.8-25.5,7.3,7.3,0,0,1-8-1.8A39.8,39.8,0,0,0,156.8,0a39.3,39.3,0,0,0-29.3,13.1,7.5,7.5,0,0,1-8,1.8A39.7,39.7,0,0,0,66.7,40.4a7.3,7.3,0,0,1-6.4,5.1A39.8,39.8,0,0,0,23.7,91.4a7.4,7.4,0,0,1-3.6,7.4A39.3,39.3,0,0,0,1,124.5,40.4,40.4,0,0,0,7.1,156a7.2,7.2,0,0,1,0,8.2A40,40,0,0,0,1,195.7a39.6,39.6,0,0,0,19.1,25.7,7.2,7.2,0,0,1,3.6,7.4,40.2,40.2,0,0,0,8.2,31,38.4,38.4,0,0,0,8.6,8L19.2,470.7l55.4-22.8L130.4,517l22.7-197.2,3.7.2,3.5-.2L183.1,517,239,447.9l55.4,22.8L273,267.6a41.2,41.2,0,0,0,8.7-8,40.2,40.2,0,0,0,8.2-31,7.4,7.4,0,0,1,3.6-7.4,39.7,39.7,0,0,0,13-57.2A7.2,7.2,0,0,1,306.5,155.8Zm-12.9,17.4a23.6,23.6,0,0,1,3.6,18.8,23.3,23.3,0,0,1-11.4,15.4,23.2,23.2,0,0,0-11.5,23.8,23.8,23.8,0,0,1-4.9,18.5,23.5,23.5,0,0,1-17,8.9,23.5,23.5,0,0,0-20.7,16.5,23.1,23.1,0,0,1-12.4,14.6,23.8,23.8,0,0,1-19.2.6,23.3,23.3,0,0,0-25.8,5.9c-9.1,10-26,10-35.1,0a23.3,23.3,0,0,0-17.2-7.5,26.1,26.1,0,0,0-8.6,1.6,23.4,23.4,0,0,1-19.2-.6,23.7,23.7,0,0,1-12.4-14.6,23.5,23.5,0,0,0-20.7-16.5,23.5,23.5,0,0,1-17-8.9,23.2,23.2,0,0,1-4.9-18.5,23.2,23.2,0,0,0-11.5-23.8A24.4,24.4,0,0,1,16.3,192a23.3,23.3,0,0,1,3.6-18.8,23.2,23.2,0,0,0,0-26.4,23.8,23.8,0,0,1,7.9-34.2A23.2,23.2,0,0,0,39.3,88.8,23.6,23.6,0,0,1,61.1,61.4,23.5,23.5,0,0,0,81.8,44.9,23.1,23.1,0,0,1,94.2,30.3a23.8,23.8,0,0,1,19.2-.6,23.3,23.3,0,0,0,25.8-5.9c9.2-10,25.9-10,35.1,0a23.3,23.3,0,0,0,25.8,5.9,23.4,23.4,0,0,1,19.2.6,23.7,23.7,0,0,1,12.4,14.6,23.5,23.5,0,0,0,20.7,16.5,23.5,23.5,0,0,1,17,8.9,23.2,23.2,0,0,1,4.9,18.5,23.3,23.3,0,0,0,11.5,23.8A24.4,24.4,0,0,1,297.2,128a23.3,23.3,0,0,1-3.6,18.8A23.2,23.2,0,0,0,293.6,173.2Z" fill="#fff"/><path d="M257.5,274l17.7,167.9-28.5-11.8-14.3-130a39.6,39.6,0,0,0,14.4-20.5,7.6,7.6,0,0,1,6.5-5.1Z" fill="#153e69"/><path d="M217,307l13.5,123.1-36.1,44.8L176,315a38.7,38.7,0,0,0,10-8.1,7.5,7.5,0,0,1,8-1.8A40.1,40.1,0,0,0,217,307Z" fill="#153e69"/><path d="M137.5,315,119.1,474.9,83,430.1,96.5,307.3a40.3,40.3,0,0,0,23-2,7.3,7.3,0,0,1,8,1.8A37.9,37.9,0,0,0,137.5,315Z" fill="#153e69"/><path d="M81.1,300.3,66.9,430.1,38.4,441.9,56,274.2l4.3.5a7.4,7.4,0,0,1,6.4,5.1A39.1,39.1,0,0,0,81.1,300.3Z" fill="#153e69"/></svg>