<svg xmlns="http://www.w3.org/2000/svg" viewBox="0 0 313.6 517"><title>3</title><path d="M299.8,171.2a15.2,15.2,0,0,1,0-17.3,31.8,31.8,0,0,0-10.4-45.8,15.2,15.2,0,0,1-7.5-15.6,31.7,31.7,0,0,0-29.2-36.7A15.5,15.5,0,0,1,239.1,45a32.2,32.2,0,0,0-16.6-19.5,31.8,31.8,0,0,0-25.6-.9A15.4,15.4,0,0,1,180,20.7a32.4,32.4,0,0,0-23.5-10.2,31.7,31.7,0,0,0-23.4,10.3,15.5,15.5,0,0,1-16.9,3.9A31.7,31.7,0,0,0,74,45.1,15.3,15.3,0,0,1,60.4,55.9,31.7,31.7,0,0,0,31.2,92.6a15.2,15.2,0,0,1-7.5,15.6A31.8,31.8,0,0,0,13.3,154a15.2,15.2,0,0,1,0,17.3,31.8,31.8,0,0,0,10.4,45.8,15.2,15.2,0,0,1,7.5,15.6,31.7,31.7,0,0,0,29.2,36.7A15.5,15.5,0,0,1,74,280.2a32.2,32.2,0,0,0,16.6,19.5,31.8,31.8,0,0,0,25.6.9,15.4,15.4,0,0,1,16.9,3.9,31.6,31.6,0,0,0,46.8.1,15.5,15.5,0,0,1,16.9-3.9A31.7,31.7,0,0,0,239,280.3a15.3,15.3,0,0,1,13.6-10.8,31.7,31.7,0,0,0,29.2-36.7,15.2,15.2,0,0,1,7.5-15.6,32.1,32.1,0,0,0,10.5-46Z" transform="translate(0.3)" fill="#153e69"/><path d="M138.2,120.7l-2,15.5h15l-1.5,13.9H134.5l-2.1,17.2H118l2.1-17.2H104.9l-2.2,17.2H88.4l2.1-17.2h-15L77,136.2H92.2l2-15.5h-15l1.5-14H95.9l2.2-18.1h14.4l-2.2,18.1h15.2l2.3-18.1h14.3l-2.2,18.1h15l-1.5,14Zm-14.4,0H108.6l-2,15.5h15.2Z" transform="translate(0.3)" fill="#fff"/><path d="M235.4,96.4v135H200.2V125.3h-26V96.4Z" transform="translate(0.3)" fill="#fff"/><path d="M306.2,155.8a39.7,39.7,0,0,0-13-57.2,7.2,7.2,0,0,1-3.6-7.4A39.8,39.8,0,0,0,253,45.3a7.3,7.3,0,0,1-6.4-5.1,39.7,39.7,0,0,0-52.8-25.5,7.3,7.3,0,0,1-8-1.8A39.8,39.8,0,0,0,156.5,0a39.3,39.3,0,0,0-29.3,13.1,7.5,7.5,0,0,1-8,1.8A39.7,39.7,0,0,0,66.4,40.4,7.3,7.3,0,0,1,60,45.5,39.8,39.8,0,0,0,23.4,91.4a7.4,7.4,0,0,1-3.6,7.4A39.3,39.3,0,0,0,.7,124.5,40.4,40.4,0,0,0,6.8,156a7.2,7.2,0,0,1,0,8.2A40,40,0,0,0,.7,195.7a39.6,39.6,0,0,0,19.1,25.7,7.2,7.2,0,0,1,3.6,7.4,40.2,40.2,0,0,0,8.2,31,38.9,38.9,0,0,0,8.7,8L18.9,470.7l55.4-22.8L130.1,517l22.7-197.2,3.7.2,3.6-.2L182.8,517l55.9-69.1,55.4,22.8L272.7,267.6a38.9,38.9,0,0,0,8.7-8,40.2,40.2,0,0,0,8.2-31,7.4,7.4,0,0,1,3.6-7.4,39.7,39.7,0,0,0,13-57.2A7.2,7.2,0,0,1,306.2,155.8Zm-12.9,17.4a23.6,23.6,0,0,1,3.6,18.8,23.3,23.3,0,0,1-11.4,15.4A23.2,23.2,0,0,0,274,231.2a23.8,23.8,0,0,1-4.9,18.5,23.5,23.5,0,0,1-17,8.9,23.5,23.5,0,0,0-20.7,16.5A23.1,23.1,0,0,1,219,289.7a23.8,23.8,0,0,1-19.2.6,23.3,23.3,0,0,0-25.8,5.9c-9.1,10-26,10-35.1,0a23.3,23.3,0,0,0-17.2-7.5,26.1,26.1,0,0,0-8.6,1.6,23.4,23.4,0,0,1-19.2-.6,23.7,23.7,0,0,1-12.4-14.6,23.5,23.5,0,0,0-20.7-16.5,23.5,23.5,0,0,1-17-8.9,23.2,23.2,0,0,1-4.9-18.5,23.2,23.2,0,0,0-11.5-23.8A24.4,24.4,0,0,1,16,192a23.3,23.3,0,0,1,3.6-18.8,23.2,23.2,0,0,0,0-26.4,23.8,23.8,0,0,1,7.9-34.2A23.2,23.2,0,0,0,39,88.8,23.6,23.6,0,0,1,60.8,61.4,23.5,23.5,0,0,0,81.5,44.9,23.1,23.1,0,0,1,93.9,30.3a23.8,23.8,0,0,1,19.2-.6,23.3,23.3,0,0,0,25.8-5.9c9.2-10,25.9-10,35.1,0a23.3,23.3,0,0,0,25.8,5.9,23.4,23.4,0,0,1,19.2.6,23.7,23.7,0,0,1,12.4,14.6,23.5,23.5,0,0,0,20.7,16.5,23.5,23.5,0,0,1,17,8.9A23.2,23.2,0,0,1,274,88.8a23.3,23.3,0,0,0,11.5,23.8A24.4,24.4,0,0,1,296.9,128a23.3,23.3,0,0,1-3.6,18.8A23.2,23.2,0,0,0,293.3,173.2Z" transform="translate(0.3)" fill="#fff"/><path d="M257.2,274l17.7,167.9-28.5-11.8-14.3-130a39.6,39.6,0,0,0,14.4-20.5,7.6,7.6,0,0,1,6.5-5.1Z" transform="translate(0.3)" fill="#153e69"/><path d="M216.7,307l13.6,123.1-36.2,44.8L175.7,315a38.7,38.7,0,0,0,10-8.1,7.5,7.5,0,0,1,8-1.8A40.2,40.2,0,0,0,216.7,307Z" transform="translate(0.3)" fill="#153e69"/><path d="M137.3,315,118.8,474.9,82.7,430.1,96.2,307.3a40.2,40.2,0,0,0,23-2,7.3,7.3,0,0,1,8,1.8A36.8,36.8,0,0,0,137.3,315Z" transform="translate(0.3)" fill="#153e69"/><path d="M80.8,300.3,66.6,430.1,38.1,441.9,55.8,274.2l4.2.5a7.4,7.4,0,0,1,6.4,5.1A39.6,39.6,0,0,0,80.8,300.3Z" transform="translate(0.3)" fill="#153e69"/></svg>