<?xml version="1.0" encoding="utf-8"?>
<!-- Generator: Adobe Illustrator 22.0.1, SVG Export Plug-In . SVG Version: 6.00 Build 0)  -->
<svg version="1.1" id="Capa_1" xmlns="http://www.w3.org/2000/svg" xmlns:xlink="http://www.w3.org/1999/xlink" x="0px" y="0px"
	 viewBox="0 0 496 496" style="enable-background:new 0 0 496 496;" xml:space="preserve">
<style type="text/css">
	.st0{fill:#017581;}
	.st1{fill:#003C69;}
</style>
<g>
	<path class="st0" d="M208,272c-17.6,0-32-14.4-32-32v-32c0-17.6,14.4-32,32-32s32,14.4,32,32v32C240,257.6,225.6,272,208,272z
		 M208,192c-8.8,0-16,7.2-16,16v32c0,8.8,7.2,16,16,16s16-7.2,16-16v-32C224,199.2,216.8,192,208,192z"/>
	<path class="st0" d="M416,272c-17.6,0-32-14.4-32-32v-32c0-17.6,14.4-32,32-32s32,14.4,32,32v32C448,257.6,433.6,272,416,272z
		 M416,192c-8.8,0-16,7.2-16,16v32c0,8.8,7.2,16,16,16s16-7.2,16-16v-32C432,199.2,424.8,192,416,192z"/>
</g>
<rect x="224" y="328" class="st0" width="176" height="128"/>
<g>
	<polygon class="st1" points="104,160 104,176 171.3,176 213.7,133.7 202.3,122.3 164.7,160 	"/>
	<path class="st1" d="M496,400V232c0-13.2-10.8-24-24-24h-8v16h8c4.4,0,8,3.6,8,8v56H144v-56c0-4.4,3.6-8,8-8h8v-16h-8
		c-13.2,0-24,10.8-24,24v240c0,13.2,10.8,24,24,24h283.3l60.7-60.7V416h-72v64H152c-4.4,0-8-3.6-8-8V304h336v96H496z M440,432h36.7
		L440,468.7V432z"/>
	<rect x="256" y="208" class="st1" width="112" height="16"/>
	<path class="st1" d="M408,464V320H216v144H408z M232,336h160v112H232V336z"/>
	<path class="st1" d="M48.3,176H72v-16H48.4c1.8-27.1,12.6-51.7,29.4-70.9l16.7,16.7l11.3-11.3L89.1,77.8
		C108.3,61,132.9,50.2,160,48.4V72h16V48.4c27.1,1.8,51.7,12.6,70.9,29.4l-16.7,16.7l11.3,11.3l16.7-16.7
		c16.8,19.2,27.6,43.8,29.4,70.9H264v16h23.6c-0.3,4.9-0.8,9.7-1.7,14.5l15.7,3c1.6-8.4,2.4-16.9,2.4-25.5c0-75-61-136-136-136
		S32,93,32,168c0,52.5,29.3,99.3,76.5,122.3l7-14.4C76.3,256.8,51.1,219,48.3,176z"/>
	<path class="st1" d="M16,168C16,84.2,84.2,16,168,16s152,68.2,152,152c0,7.6-0.6,15.3-1.7,22.8l15.8,2.4c1.2-8.3,1.9-16.7,1.9-25.2
		C336,75.4,260.6,0,168,0S0,75.4,0,168c0,69.8,43.9,133,109.2,157.4l5.6-15C55.7,288.4,16,231.1,16,168z"/>
</g>
</svg>
