<?xml version="1.0" encoding="utf-8"?>
<!-- Generator: Adobe Illustrator 22.0.1, SVG Export Plug-In . SVG Version: 6.00 Build 0)  -->
<svg version="1.1" id="Capa_1" xmlns="http://www.w3.org/2000/svg" xmlns:xlink="http://www.w3.org/1999/xlink" x="0px" y="0px"
	 viewBox="0 0 496 496" style="enable-background:new 0 0 496 496;" xml:space="preserve">
<style type="text/css">
	.st0{fill:#017581;}
	.st1{fill:#003C69;}
</style>
<path class="st0" d="M176,393.1V312h-16v81.1c-13.8,3.6-24,16-24,30.9c0,17.6,14.4,32,32,32s32-14.4,32-32
	C200,409.1,189.8,396.7,176,393.1z M168,440c-8.8,0-16-7.2-16-16s7.2-16,16-16s16,7.2,16,16S176.8,440,168,440z"/>
<path class="st0" d="M344,144h-19.2c-18.8,0-37.2-5.6-52.8-16l0,0l0,0c-15.6,10.4-34,16-52.8,16H152h-16v-24C136,58.1,186.1,8,248,8
	l0,0c61.9,0,112,50.1,112,112v24H344z"/>
<g>
	<path class="st1" d="M447.8,390.2c-5.4-32.2-28-58.7-59-69L320,298.2V288h-16v15l-11.9,47.8L259.8,312h-23.5l-32.3,38.8L192,303
		v-15h-16v10.2l-68.8,22.9c-31,10.3-53.6,36.8-59,69L30.6,496h434.9L447.8,390.2z M391.2,480l-7.3-72.8l-15.9,1.6l7.1,71.2H256V352
		h-16v128H120.8l7.1-71.2l-15.9-1.6l-7.3,72.8H49.5L64,392.8c4.4-26.4,22.9-48,48.3-56.5l66.1-22l17.7,70.9l47.7-57.2h8.5l47.7,57.2
		l17.7-70.9l66.1,22c25.4,8.5,43.9,30.1,48.3,56.5l14.5,87.2H391.2z"/>
	<path class="st1" d="M147.5,215.6c4.1,14,11.6,26.9,22.2,37.5l31.2,31.2c7.6,7.6,17.6,11.7,28.3,11.7h37.5
		c10.7,0,20.7-4.2,28.3-11.7l31.2-31.2c10.6-10.6,18.2-23.5,22.2-37.5c19.9-2.3,35.5-19,35.5-39.6c0-13.1-6.4-24.7-16.2-32h0.2v-24
		C368,53.8,314.2,0,248,0S128,53.8,128,120v24h0.2c-9.8,7.3-16.2,18.9-16.2,32C112,196.5,127.6,213.3,147.5,215.6z M314.9,241.8
		L283.7,273c-4.5,4.5-10.6,7-17,7h-37.5c-6.4,0-12.4-2.5-17-7l-31.2-31.2c-13.6-13.6-21.1-31.7-21.1-50.9V152h59.2
		c18.7,0,36.9-5,52.8-14.5c16,9.5,34.1,14.5,52.8,14.5H336v38.9C336,210.1,328.5,228.2,314.9,241.8z M351.6,198.6
		c0.2-2.6,0.4-5.2,0.4-7.8v-37.4c9.3,3.3,16,12.1,16,22.5C368,186.6,361.1,195.4,351.6,198.6z M144,120c0-57.3,46.7-104,104-104
		s104,46.7,104,104v16.8c-2.6-0.5-5.3-0.8-8-0.8h-19.2c-17.3,0-34-5.1-48.4-14.7l-4.4-3l-4.4,3c-14.4,9.6-31.1,14.7-48.4,14.7H152
		c-2.7,0-5.4,0.3-8,0.8V120z M144,153.5v37.4c0,2.6,0.2,5.2,0.4,7.8c-9.5-3.2-16.4-12.1-16.4-22.6C128,165.6,134.7,156.8,144,153.5z
		"/>
</g>
<path class="st0" d="M366.3,394.2L336,379.1v-58.6l-16-5.3v64l-30.3,15.2c-10.9,5.5-17.7,16.4-17.7,28.6v9.2c0,17.6,14.4,32,32,32h8
	v-16h-8c-8.8,0-16-7.2-16-16v-9.2c0-6.1,3.4-11.6,8.8-14.3l31.2-15.6l31.2,15.6c5.4,2.7,8.8,8.2,8.8,14.3v9.2c0,8.8-7.2,16-16,16h-8
	v16h8c17.6,0,32-14.4,32-32v-9.2C384,410.6,377.2,399.7,366.3,394.2z"/>
</svg>
