<?xml version="1.0" encoding="utf-8"?>
<!-- Generator: Adobe Illustrator 22.0.1, SVG Export Plug-In . SVG Version: 6.00 Build 0)  -->
<svg version="1.1" id="Capa_1" xmlns="http://www.w3.org/2000/svg" xmlns:xlink="http://www.w3.org/1999/xlink" x="0px" y="0px"
	 viewBox="0 0 496 496" style="enable-background:new 0 0 496 496;" xml:space="preserve">
<style type="text/css">
	.st0{fill:#007481;}
	.st1{fill:#003764;}
</style>
<g>
	<circle class="st0" cx="453.4" cy="376" r="32"/>
	<path class="st0" d="M299.7,49.8C288,19.8,259.2,0,226.8,0h-21.4c-79.4,0-144,64.6-144,144v72h8c0-17.7,14.3-32,32-32v-16v-8
		c0-22.1,17.9-40,40-40h83.2c18.8,0,37.2-5.6,52.8-16c19.6,9.8,32,29.8,32,51.8V168v16c17.7,0,32,14.3,32,32h8v-93.4
		C349.4,90.2,329.6,61.4,299.7,49.8z"/>
</g>
<g>
	<path class="st1" d="M493.4,376c0-22.1-17.9-40-40-40s-40,17.9-40,40c0,19.3,13.8,35.5,32,39.2V452c0,15.4-12.6,28-28,28
		c-5.8,0-11.1-1.8-15.6-4.8l-12.4-39.6V360h16v-36.2c27.9-9.9,48-36.5,48-67.8v-8h-40v-8h-16v32h16v-8h23.4
		c-3.9,27.1-27.3,48-55.4,48s-51.5-20.9-55.4-48h23.4v8h16v-32h-16v8h-16.2c9.8-7.3,16.2-18.9,16.2-32c0-19.3-13.8-35.5-32-39.2v-21
		c0-25.1-14-47.7-36.4-58.9l-4.2-2.1l-3.9,2.6c-14.4,9.6-31.1,14.7-48.4,14.7h-83.2c-26.5,0-48,21.5-48,48v16.8
		c-18.2,3.7-32,19.9-32,39.2c0,20.2,15.1,36.7,34.5,39.4c6.7,31.3,26.6,57.8,53.5,73.4v8.3l-41.3,6.4c-37,5.7-68,32.4-79.2,68.1
		L2.6,496h405.8l-0.3-1c3,0.7,6.2,1,9.4,1c24.3,0,44-19.7,44-44v-36.8C479.7,411.5,493.4,395.3,493.4,376z M77.4,216
		c0-10.4,6.7-19.2,16-22.5V232c0,2.2,0.2,4.4,0.3,6.6C84.3,235.4,77.4,226.5,77.4,216z M317.4,423l-15.9,2l6.9,55h-94.9v-10.6
		l27-10.8l-5.9-14.9l-14.7,5.9l38.7-96.8l14.8,2.3l10.2,25.5l-44.4,26.6l30.1,22.6l-18.8,7.5l5.9,14.9l45.2-18.1l-33.9-25.4
		l35.6-21.4L291.6,358l8.7,1.3c31,4.8,57,27.2,66.4,57.1l6.8,21.6v14c0,10.6,3.8,20.4,10.1,28h-59L317.4,423z M137.6,355.1l14.8-2.3
		l37.9,94.7L142,429.6l29.8-22.3l-44.4-26.6L137.6,355.1z M180.1,379.1l25.3,5.1l25.3-5.1l-25.3,63.4L180.1,379.1z M389.4,328v16
		h-16v-16H389.4z M357.4,323.8V360h16v32.2c-14.8-25.7-40.8-44.1-70.7-48.7l-41.3-6.4v-8.3c22.7-13.2,40.4-34.1,49.3-59.2
		C315.6,294.9,333.7,315.4,357.4,323.8z M333.4,216c0,10.5-6.9,19.4-16.3,22.6c0.1-2.2,0.3-4.4,0.3-6.6v-38.5
		C326.7,196.8,333.4,205.6,333.4,216z M109.4,232v-72c0-17.6,14.4-32,32-32h83.2c18.8,0,37.1-5.1,53.1-14.7
		c14.7,9,23.7,24.9,23.7,42.5V232c0,52.9-43.1,96-96,96S109.4,284.9,109.4,232z M205.4,344c14.1,0,27.6-2.7,40-7.5v6l-7.6,18.9
		l-32.4,6.5l-32.4-6.5l-7.6-18.9v-6C177.9,341.3,191.3,344,205.4,344z M44.2,416.4c9.4-29.9,35.4-52.3,66.4-57.1l8.7-1.3l-11.8,29.4
		l35.6,21.4l-34.2,25.7l88.5,32.9V480h-94.9l6.9-55l-15.9-2l-7.1,57H24.3L44.2,416.4z M453.4,400c-13.2,0-24-10.8-24-24
		s10.8-24,24-24s24,10.8,24,24S466.7,400,453.4,400z"/>
	<rect x="445.4" y="368" class="st1" width="16" height="16"/>
	<path class="st1" d="M173.4,188c0-11-9-20-20-20s-20,9-20,20s9,20,20,20S173.4,199,173.4,188z M149.4,188c0-2.2,1.8-4,4-4
		s4,1.8,4,4s-1.8,4-4,4S149.4,190.2,149.4,188z"/>
	<path class="st1" d="M257.4,208c11,0,20-9,20-20s-9-20-20-20s-20,9-20,20S246.4,208,257.4,208z M257.4,184c2.2,0,4,1.8,4,4
		s-1.8,4-4,4s-4-1.8-4-4S255.2,184,257.4,184z"/>
	<path class="st1" d="M261,266.5l-15.2-5.1c-0.1,0.2-7.1,18.5-40.4,18.5c-33.2,0-40.2-17.9-40.5-18.6l-15.1,5.2
		c0.4,1.2,10.4,29.5,55.6,29.5S260.6,267.7,261,266.5z"/>
</g>
</svg>
