<svg xmlns="http://www.w3.org/2000/svg" viewBox="0 0 1116.2 747.9"><title>family-01</title><path d="M988.7,332.5h0a94.3,94.3,0,0,1,94.3,94.3h0c0,60,8.6,120,8.6,120s-42.8,25.7-102.8,34.3c-60-8.6-102.8-34.3-102.8-34.3s8.6-60,8.6-120h0a94.1,94.1,0,0,1,94.1-94.3Z" style="fill:#d59f63"/><path d="M954.4,418.2V392.5a60,60,0,0,1,48.3-58.8,92.2,92.2,0,0,0-14-1.2h0a94.3,94.3,0,0,0-94.3,94.3c0,60-8.6,120-8.6,120s42.8,25.7,102.8,34.3V452.5Z" style="fill:#cd915a"/><path d="M1092.5,608.8l-58.8-23.5a17.2,17.2,0,0,1-10.8-15.9V538.2H954.3v31.2a17.2,17.2,0,0,1-10.8,15.9l-58.8,23.5a25.7,25.7,0,0,0-16.2,23.9v34a8.6,8.6,0,0,0,8.6,8.6h0v77.1h222.8V675.3h8.6V632.7A25.3,25.3,0,0,0,1092.5,608.8Z" style="fill:#fad7a5"/><path d="M988.7,581a102.6,102.6,0,0,0,35.2-6.3,16,16,0,0,1-.9-5.3V538.2H954.4v31.2a16,16,0,0,1-.9,5.3A103.5,103.5,0,0,0,988.7,581Z" style="fill:#f0c891"/><path d="M877.3,666.7v25.7h8.6a8.6,8.6,0,0,1,8.6,8.6v51.4h25.7V666.7Z" style="fill:#f0c891"/><path d="M988.7,555.3h0c-42.6,0-68.6-34.5-68.6-77.1V443.9c24.7,0,27.4-17.7,31.9-27.7a5.1,5.1,0,0,1,7.7-2c36.3,27.4,106.1,6.9,106.1,64h0A77.1,77.1,0,0,1,988.7,555.3Z" style="fill:#ffe1b4"/><path d="M954.4,478.2V413.9a4.7,4.7,0,0,0-2.4,2.4c-4.4,10-7.2,27.7-31.9,27.7v31.5c0,35.4,14.2,67.8,48.4,77.1a76.2,76.2,0,0,0,41.6-.3A77.4,77.4,0,0,1,954.4,478.2Z" style="fill:#fad098"/><path d="M1092.5,608.8l-36.6-14.6a68.6,68.6,0,0,1-134.6,0l-36.6,14.6a25.7,25.7,0,0,0-16.2,23.9V752.4h197.1V675.3h42.8V632.7A25,25,0,0,0,1092.5,608.8Z" style="fill:#f5821f"/><path d="M1065.8,658.1l38.9-38.9a25.3,25.3,0,0,1,3.9,13.5v42.6h-42.8V658.1Z" style="fill:#d95910"/><path d="M1056,594.2a68.6,68.6,0,0,1-134.6,0l-24.1,9.6a94.2,94.2,0,0,0,182.8,0Z" style="fill:#d95910"/><rect x="620.3" y="658.1" width="51.4" height="94.3" style="fill:#b48764"/><path d="M849.8,550.1l-75.3-20.5H705.9l-75.3,20.5a25.6,25.6,0,0,0-18.9,24.8v83.2h51.4v94.3H868.8V574.9A25.8,25.8,0,0,0,849.8,550.1Z" style="fill:#007481"/><path d="M816.4,541l-41.9-11.4H705.9L664,541a77,77,0,0,0,152.4,0Z" style="fill:#004c58"/><path d="M697.4,499.6v30a42.8,42.8,0,1,0,85.6,0v-30Z" style="fill:#b48764"/><path d="M697.4,528.7a102.1,102.1,0,0,0,85.6,0V499.6H697.3v29.1Z" style="fill:#966d50"/><path d="M817.3,401.1V349.7H663.1v51.4a17.1,17.1,0,0,0,0,34.2,77.1,77.1,0,1,0,154.2,0,17.1,17.1,0,1,0,0-34.2Z" style="fill:#c39772"/><path d="M705.9,435.3V349.6H663.1V401a17.1,17.1,0,0,0,0,34.2,77.1,77.1,0,0,0,77.1,77.1,75.8,75.8,0,0,0,21.4-3.1A76.8,76.8,0,0,1,705.9,435.3Z" style="fill:#b48764"/><path d="M807,404.7a16.7,16.7,0,0,1,19-1.2V349.7A34,34,0,0,0,808.5,320a25.6,25.6,0,0,0-25.3-21.7H714.6a60,60,0,0,0-60,60v45.2a16.8,16.8,0,0,1,11.8-2.1c8.3,1.6,16.7-3,18.8-11.2h0l2.1-8.4a8.5,8.5,0,0,1,8-6.5c17.9-.5,68.5-3.1,96.4-17l5,29.9A25.3,25.3,0,0,0,807,404.7Z" style="fill:#64463c"/><path d="M705.9,349.6a51.4,51.4,0,0,1,51.4-51.4H714.5a60,60,0,0,0-60,60v45.2a16.8,16.8,0,0,1,16-.7c5.5,2.8,11.5-.5,13-6.5l3.7-14.6a8.5,8.5,0,0,1,8-6.5l10.7-.4V349.6Z" style="fill:#553732"/><path d="M611.7,574.9v83.2h51.4V630a43.1,43.1,0,0,0-9-26.3l-35.7-45.9A25.3,25.3,0,0,0,611.7,574.9Z" style="fill:#004c58"/><path d="M928.3,703.7l-28-9.3a8.6,8.6,0,0,1-5.9-8.1V666.8H843v19.5a8.5,8.5,0,0,1-5.9,8.1l-28,9.3a25.7,25.7,0,0,0-17.6,24.4v24.3H945.7V728.1A25.3,25.3,0,0,0,928.3,703.7Z" style="fill:#e6af78"/><path d="M868.8,701a84.6,84.6,0,0,0,32.3-6.4l-.8-.3a8.6,8.6,0,0,1-5.9-8.1V666.7H843v19.5a8.5,8.5,0,0,1-5.9,8.1l-.8.3A86,86,0,0,0,868.8,701Z" style="fill:#d29b6e"/><path d="M868.8,486.7h0a77.1,77.1,0,0,0-77.1,77.1v25.7H945.9V563.8A77.1,77.1,0,0,0,868.8,486.7Z" style="fill:#64463c"/><path d="M894.5,491.2a75.9,75.9,0,0,0-25.7-4.5,77.1,77.1,0,0,0-77.1,77.1v25.7h51.4V563.8A77,77,0,0,1,894.5,491.2Z" style="fill:#553732"/><path d="M937,572.4h-.6a16.3,16.3,0,0,1-16.2-16.2h0a6.7,6.7,0,0,0-8.9-6.3c-63.3,22.5-102.5,22.5-102.5,22.5h-8.2A17.4,17.4,0,0,0,783.3,587a17.1,17.1,0,0,0,17,19.6h8.6v7.7c0,32.2,25.1,59.4,57.3,60.8a60,60,0,0,0,62.7-59.9v-8.6h8.6a17.2,17.2,0,0,0,17-19.6A17.8,17.8,0,0,0,937,572.4Z" style="fill:#f0c087"/><polygon points="920.2 469.6 868.8 491.6 817.3 469.6 817.3 521 868.8 499 920.2 521 920.2 469.6" style="fill:#62489d"/><path d="M843.1,615.3V568.9a233.3,233.3,0,0,1-34.3,3.6h-8.6a17.1,17.1,0,0,0,0,34.2h8.6v6.1c0,32.8,25.3,61.5,58.1,62.5a59.8,59.8,0,0,0,19-2.5A59.9,59.9,0,0,1,843.1,615.3Z" style="fill:#e6af78"/><path d="M928.3,703.7l-14-4.7a51.4,51.4,0,0,1-91.2,0l-14,4.7a25.7,25.7,0,0,0-17.6,24.4v24.3H945.7V728.1A25.3,25.3,0,0,0,928.3,703.7Z" style="fill:#62489d"/><path d="M740.2,477.1a29.9,29.9,0,0,0,23-11.3,7.5,7.5,0,0,0-11.6-9.4,13.9,13.9,0,0,1-22.6,0,7.5,7.5,0,1,0-11.6,9.4A29.2,29.2,0,0,0,740.2,477.1Z"/><path d="M705.9,434.3a7.6,7.6,0,0,0,7.5-7.5v-8.6a7.5,7.5,0,1,0-15,0v8.6A7.6,7.6,0,0,0,705.9,434.3Z"/><path d="M774.5,434.3a7.6,7.6,0,0,0,7.5-7.5v-8.6a7.5,7.5,0,0,0-15,0v8.6A7.6,7.6,0,0,0,774.5,434.3Z"/><path d="M988.7,520a29.9,29.9,0,0,0,23-11.3,7.5,7.5,0,0,0-11.6-9.4,13.9,13.9,0,0,1-22.6,0,7.5,7.5,0,0,0-11.6,9.4A29.5,29.5,0,0,0,988.7,520Z"/><path d="M954.4,477.1a7.6,7.6,0,0,0,7.5-7.5V461a7.5,7.5,0,0,0-15,0v8.6A7.5,7.5,0,0,0,954.4,477.1Z"/><path d="M1023,477.1a7.6,7.6,0,0,0,7.5-7.5V461a7.5,7.5,0,0,0-15,0v8.6A7.5,7.5,0,0,0,1023,477.1Z"/><path d="M1095.3,601.9l-58.8-23.5-.9-.4c40.6-9.2,59.8-24.7,60.7-25.4a7.9,7.9,0,0,0,2.7-6.9c-.1-.6-8.5-60.1-8.5-118.9a101.8,101.8,0,1,0-203.5,0c0,15.4-.7,34.2-1.8,52L868.8,487l-48.1-24-.4-.2a81.7,81.7,0,0,0,4.3-21,24.6,24.6,0,0,0,8.8-42.2V349.7A41.7,41.7,0,0,0,815,315.3a33,33,0,0,0-32-24.5H714.4a67.6,67.6,0,0,0-67.5,67.5v41.3a24.6,24.6,0,0,0,8.8,42.2,84.6,84.6,0,0,0,34,61.5V524l-62,18.6A32.9,32.9,0,0,0,604,574.4v83.7a7.6,7.6,0,0,0,7.5,7.5h1.1v86.8a7.5,7.5,0,0,0,15,0V665.6h27.8v86.8a7.5,7.5,0,0,0,15,0V623.1a32.7,32.7,0,0,0-5.6-18.4L652,585.5a7.5,7.5,0,0,0-12.5,8.3L652.3,613a18.2,18.2,0,0,1,3.1,10.1v27.6H619V574.5a18,18,0,0,1,13-17.4l25.7-7.7c9,37.5,43,65,82.3,65a84.6,84.6,0,0,0,40.1-10.1A24.7,24.7,0,0,0,800,614.4h1.1v1.1a67.4,67.4,0,0,0,34.3,58.7v12.2a1,1,0,0,1-.7,1l-28,9.3A33.1,33.1,0,0,0,784,728.2v24.3a7.5,7.5,0,0,0,15,0V728.2a18.3,18.3,0,0,1,12.4-17.3l8.2-2.7a58.9,58.9,0,0,0,97.8,0l8.2,2.7A18.2,18.2,0,0,1,938,728.2v24.3a7.5,7.5,0,0,0,15,0V728.2a33.1,33.1,0,0,0-22.7-31.5l-28-9.3a1.1,1.1,0,0,1-.7-1V674a68,68,0,0,0,31.8-40.5,76.1,76.1,0,0,0,127.4-29.2l28.6,11.5a18,18,0,0,1,11.4,16.9v35.1h-27.9v-9.6a7.5,7.5,0,0,0-15,0v94.3a7.5,7.5,0,0,0,15,0V682.9h19.3v69.6a7.5,7.5,0,0,0,15,0V682.9h1.1a7.5,7.5,0,0,0,7.5-7.5V632.8A32,32,0,0,0,1095.3,601.9ZM902,426.8a86.8,86.8,0,1,1,173.6,0c0,50.4,6.1,101.3,8,116.5-6.7,4.4-23.9,14.1-53,20.4V551.8a87.6,87.6,0,0,0,11.4-7.7,84.3,84.3,0,0,0,31.5-65.8c0-42.4-30.7-48.5-60.3-54.4-18.9-3.7-38.4-7.6-53.9-20a7.4,7.4,0,0,0-7.9-.9,7.6,7.6,0,0,0-4.3,6.8c0,.2-.3,19.9-28.6,27a7.5,7.5,0,1,0,3.6,14.6c23.7-5.9,33.3-19.2,37.2-29.2,16.3,9.6,34.5,13.3,50.9,16.5,31.7,6.3,48.2,10.9,48.2,39.6a73.6,73.6,0,0,1-1.7,15.5,69.5,69.5,0,0,1-24.2,38.7,69.6,69.6,0,0,1-84.2,2.4,83.4,83.4,0,0,0-20.5-31.6V469.8a7.4,7.4,0,0,0-3.6-6.4,7.3,7.3,0,0,0-7.3-.3l-16.2,8.1C901.5,455.4,902,440.5,902,426.8Zm10.7,54.9v27.1l-27.1-13.6Zm-87.9,0,27.1,13.6-27.1,13.6Zm-15,21.4a85.7,85.7,0,0,0-19.3,28.5c0-.7.1-1.4.1-2.1V503.2a84.8,84.8,0,0,0,19.3-19.9v19.8ZM670.6,435.3a7.6,7.6,0,0,0-7.5-7.5,9.6,9.6,0,0,1,0-19.2h17.1a7.5,7.5,0,0,0,7.1-5.1l6.9-20.7c17.2-.4,70.7-2.8,100.8-17.9a7.5,7.5,0,0,0-6.7-13.5c-32.3,16.1-98.8,16.3-99.5,16.3a7.5,7.5,0,0,0-7.1,5.1l-6.9,20.6H662V358a52.6,52.6,0,0,1,52.5-52.5h68.6A18.1,18.1,0,0,1,801,320.8a7.7,7.7,0,0,0,3.7,5.4,26.7,26.7,0,0,1,13.7,23.2v43.9h-9.7a7.5,7.5,0,0,0,0,15h8.6a9.6,9.6,0,1,1,0,19.2,7.6,7.6,0,0,0-7.5,7.5,69.7,69.7,0,0,1-69.6,69.6C701.8,505,670.6,473.7,670.6,435.3ZM740.2,520a84.8,84.8,0,0,0,35.3-7.7v17.4a35.3,35.3,0,0,1-70.6.1h0V512.3A84.8,84.8,0,0,0,740.2,520Zm-67.9,24.9,18.5-5.6a50.3,50.3,0,0,0,94,13.5,80.2,80.2,0,0,0-.7,11v7.1a24.5,24.5,0,0,0-8.6,18.6,69.6,69.6,0,0,1-103.2-44.6ZM898,701.5l4.8,1.6a44,44,0,0,1-68,0l4.8-1.6a16,16,0,0,0,11-15.2v-6a67.5,67.5,0,0,0,36.4,0v6A16,16,0,0,0,898,701.5Zm-29.2-33.7a52.6,52.6,0,0,1-52.5-52.5v-8.6a7.6,7.6,0,0,0-7.5-7.5h-8.6a9.6,9.6,0,0,1-4.8-17.9,6.5,6.5,0,0,0,1.8-1.5c18.5-.5,78.6-4,118.1-26.6a7.5,7.5,0,0,0-7.4-13c-34.6,19.8-89,23.7-108.7,24.5v-.9A69.1,69.1,0,0,1,811.1,525a7.8,7.8,0,0,0,2.4,2.4,7.9,7.9,0,0,0,3.9,1.1,8.4,8.4,0,0,0,3.4-.8l48.1-24,48.1,24a8.1,8.1,0,0,0,3.4.8,7.7,7.7,0,0,0,3.9-1.1,6.9,6.9,0,0,0,2.4-2.4,69.3,69.3,0,0,1,11.9,38.8v10.9a7.6,7.6,0,0,0,3.7,6.5,9.6,9.6,0,0,1-4.8,17.9h-8.6a7.6,7.6,0,0,0-7.5,7.5v8.6C921.2,644.2,897.7,667.8,868.8,667.8Zm119.9-25.7a61.1,61.1,0,0,1-51.2-27.8,24.5,24.5,0,0,0,15.9-43.2V564c0-3-.2-6-.5-9a84.5,84.5,0,0,0,62.6,3.5v11a24.6,24.6,0,0,0,15.5,22.9l16.2,6.5A61.2,61.2,0,0,1,988.7,642.1Z"/><path d="M890.6,626.6a7.5,7.5,0,0,0-10.5,1.1,13.9,13.9,0,0,1-22.6,0,7.5,7.5,0,1,0-11.6,9.4,29.6,29.6,0,0,0,23,11.3,29.9,29.9,0,0,0,23-11.3A7.7,7.7,0,0,0,890.6,626.6Z"/><circle cx="843.2" cy="598.2" r="7.5"/><circle cx="894.2" cy="598.2" r="7.5"/><path d="M303,7C465.6,7,597.4,98.8,597.4,211.9c0,53.3-29.2,101.8-77.1,138.3a121.5,121.5,0,0,0,14.9,39.4C565.5,440.1,639,481.7,639,481.7S526.3,423.1,443.8,392C402,407.9,354,416.9,303.1,416.9c-162.7,0-294.5-91.8-294.5-205S140.4,7,303,7Z" style="fill:#fff;stroke:#020100;stroke-linecap:round;stroke-linejoin:round;stroke-width:14px"/><text transform="translate(73.9 175.1)" style="isolation:isolate;font-size:61.98059844970703px;fill:#003764;font-family:OpenSans-Bold, Open Sans;font-weight:700">What Patients </text><text transform="translate(73.3 249.5)" style="isolation:isolate;font-size:61.98059844970703px;fill:#003764;font-family:OpenSans-Bold, Open Sans;font-weight:700">Say About PAs </text><text transform="translate(267.8 305.5)" style="isolation:isolate;font-size:28.86440086364746px;fill:#7a7a7a;font-family:RobotoSlab-Regular, Roboto Slab">2014 Harris <tspan x="161.5" y="0" style="letter-spacing:-0.006326727111456957em">P</tspan><tspan x="179.7" y="0" style="letter-spacing:-0.009777669172251662em">o</tspan><tspan x="195.6" y="0" style="letter-spacing:-0.000033832765301908865em">ll *</tspan></text></svg>