<?xml version="1.0" encoding="iso-8859-1"?>
<!-- Generator: Adobe Illustrator 19.0.0, SVG Export Plug-In . SVG Version: 6.00 Build 0)  -->
<svg version="1.1" id="Layer_1" xmlns="http://www.w3.org/2000/svg" xmlns:xlink="http://www.w3.org/1999/xlink" x="0px" y="0px"
	 viewBox="0 0 496 496" style="enable-background:new 0 0 496 496;" xml:space="preserve">
<g>
	<rect x="216" y="128" style="fill:#FFA64D;" width="272" height="48"/>
	<rect x="56" y="224" style="fill:#FFA64D;" width="432" height="56"/>
	<rect x="56" y="320" style="fill:#FFA64D;" width="432" height="56"/>
</g>
<g>
	<rect x="80" y="104" style="fill:#333333;" width="16" height="16"/>
	<rect x="112" y="104" style="fill:#333333;" width="16" height="16"/>
	<rect x="144" y="104" style="fill:#333333;" width="16" height="16"/>
	<rect x="176" y="104" style="fill:#333333;" width="16" height="16"/>
	<rect x="80" y="144" style="fill:#333333;" width="16" height="16"/>
	<rect x="112" y="144" style="fill:#333333;" width="16" height="16"/>
	<rect x="144" y="144" style="fill:#333333;" width="16" height="16"/>
	<rect x="176" y="144" style="fill:#333333;" width="16" height="16"/>
	<rect x="80" y="184" style="fill:#333333;" width="16" height="16"/>
	<rect x="112" y="184" style="fill:#333333;" width="16" height="16"/>
	<rect x="144" y="184" style="fill:#333333;" width="16" height="16"/>
	<rect x="176" y="184" style="fill:#333333;" width="16" height="16"/>
	<path style="fill:#333333;" d="M64,72v-0.208C73.656,64.488,80,53.016,80,40C80,17.944,62.056,0,40,0S0,17.944,0,40
		c0,13.016,6.344,24.488,16,31.792V496h16V79.192C34.584,79.72,37.264,80,40,80s5.416-0.28,8-0.808V496h16v-72h424h8V72H64z
		 M480,120H224V88h256V120z M480,280v32H64v-32h16v-16H64v-32h416v32H96v16H480z M224,216v-32h256v32H224z M224,168v-32h256v32H224z
		 M208,88v128H64V88H208z M16,40c0-13.232,10.768-24,24-24s24,10.768,24,24S53.232,64,40,64S16,53.232,16,40z M64,408v-32h384v-16
		H64v-32h416v32h-16v16h16v32H64z"/>
</g>
<g>
</g>
<g>
</g>
<g>
</g>
<g>
</g>
<g>
</g>
<g>
</g>
<g>
</g>
<g>
</g>
<g>
</g>
<g>
</g>
<g>
</g>
<g>
</g>
<g>
</g>
<g>
</g>
<g>
</g>
</svg>
