<?xml version="1.0" encoding="utf-8"?>
<!-- Generator: Adobe Illustrator 22.0.1, SVG Export Plug-In . SVG Version: 6.00 Build 0)  -->
<svg version="1.1" id="Capa_1" xmlns="http://www.w3.org/2000/svg" xmlns:xlink="http://www.w3.org/1999/xlink" x="0px" y="0px"
	 viewBox="0 0 496 496" style="enable-background:new 0 0 496 496;" xml:space="preserve">
<style type="text/css">
	.st0{fill:#017581;}
	.st1{fill:#003C69;}
</style>
<rect x="104" y="209.8" class="st0" width="288" height="48"/>
<g>
	<path class="st0" d="M208,393.8c-30.9,0-56-25.1-56-56s25.1-56,56-56v16c-22.1,0-40,17.9-40,40s17.9,40,40,40V393.8z"/>
	<path class="st0" d="M280,393.8c-30.9,0-56-25.1-56-56s25.1-56,56-56v16c-22.1,0-40,17.9-40,40s17.9,40,40,40V393.8z"/>
	<polygon class="st0" points="224,494.7 184,474.7 144,494.7 144,385.8 160,385.8 160,468.8 184,456.8 208,468.8 208,409.8 
		224,409.8 	"/>
	<polygon class="st0" points="320,494.7 280,474.7 240,494.7 240,385.8 256,385.8 256,468.8 280,456.8 304,468.8 304,409.8 
		320,409.8 	"/>
</g>
<g>
	<path class="st1" d="M96,137.8v128h304v-128h-16v64H112v-64H96z M384,217.8v32H112v-32H384z"/>
	<path class="st1" d="M440,281.8H56c-30.9,0-56,25.1-56,56s25.1,56,56,56h384c30.9,0,56-25.1,56-56S470.9,281.8,440,281.8z
		 M56,377.8c-22.1,0-40-17.9-40-40s17.9-40,40-40h344.9c-10.4,10.2-16.9,24.3-16.9,40s6.5,29.8,16.9,40H56z M440,377.8
		c-22.1,0-40-17.9-40-40s17.9-40,40-40s40,17.9,40,40S462.1,377.8,440,377.8z"/>
	<path class="st1" d="M40,224.3c2.5,0.9,5.2,1.5,8,1.5s5.5-0.6,8-1.5v41.5h16v-64c0-10.4-6.7-19.2-16-22.5v-70.1l192,69.1l208-74.9
		V76.2L248,1.3L40,76.2v13.6v13.6v75.8c-9.3,3.3-16,12.1-16,22.5v64h16V224.3z M56,87.4l192-69.1l192,69.1v4.8l-192,69.1L56,92.2
		v-2.4V87.4z M48,193.8c4.4,0,8,3.6,8,8s-3.6,8-8,8s-8-3.6-8-8S43.6,193.8,48,193.8z"/>
</g>
</svg>
