<?xml version="1.0" encoding="utf-8"?>
<!-- Generator: Adobe Illustrator 22.0.1, SVG Export Plug-In . SVG Version: 6.00 Build 0)  -->
<svg version="1.1" id="Capa_1" xmlns="http://www.w3.org/2000/svg" xmlns:xlink="http://www.w3.org/1999/xlink" x="0px" y="0px"
	 viewBox="0 0 497 497" style="enable-background:new 0 0 497 497;" xml:space="preserve">
<style type="text/css">
	.st0{fill:#003C69;}
	.st1{fill:#FFFFFF;}
	.st2{display:none;fill:#FFFFFF;}
</style>
<path class="st0" d="M391.8,168.7c-3.6-5.2-3.6-12.2,0-17.3c4.9-7.1,6.9-16.1,4.9-25.2c-2.1-9.1-7.8-16.3-15.3-20.6
	c-5.5-3.1-8.5-9.4-7.5-15.6c1.3-8.5-0.7-17.5-6.5-24.8c-5.8-7.3-14.1-11.3-22.7-11.9c-6.3-0.4-11.7-4.8-13.6-10.8
	c-2.5-8.2-8.3-15.4-16.6-19.5c-8.4-4-17.6-4.1-25.6-0.9c-5.8,2.3-12.6,0.8-16.9-3.9C266.1,12,257.8,8,248.5,8s-17.6,4-23.4,10.3
	c-4.3,4.6-11.1,6.2-16.9,3.9c-8-3.2-17.2-3.2-25.6,0.9c-8.4,4-14.2,11.2-16.6,19.5c-1.8,6-7.3,10.4-13.6,10.8
	c-8.6,0.6-16.9,4.6-22.7,11.9s-7.9,16.3-6.5,24.8c1,6.2-2,12.5-7.5,15.6c-7.5,4.3-13.2,11.5-15.3,20.6c-2.1,9.1,0,18.1,4.9,25.2
	c3.6,5.2,3.6,12.2,0,17.3c-4.9,7.1-6.9,16.1-4.9,25.2c2.1,9.1,7.8,16.3,15.3,20.6c5.5,3.1,8.5,9.4,7.5,15.6
	c-1.3,8.5,0.7,17.5,6.5,24.8c5.8,7.3,14.1,11.3,22.7,11.9c6.3,0.4,11.7,4.8,13.6,10.8c2.5,8.2,8.3,15.4,16.6,19.5
	c8.4,4,17.6,4.1,25.6,0.9c5.8-2.3,12.6-0.8,16.9,3.9c5.8,6.4,14.1,10.4,23.4,10.4c9.3,0,17.6-4,23.4-10.3c4.3-4.6,11.1-6.2,16.9-3.9
	c8,3.2,17.2,3.2,25.6-0.9c8.4-4,14.2-11.2,16.6-19.5c1.8-6,7.3-10.4,13.6-10.8c8.6-0.6,16.9-4.6,22.7-11.9s7.9-16.3,6.5-24.8
	c-1-6.2,2-12.5,7.5-15.6c7.5-4.3,13.2-11.5,15.3-20.6C398.7,184.8,396.7,175.8,391.8,168.7z"/>
<g>
	<path class="st1" d="M248.5,280c-66.2,0-120-53.8-120-120s53.8-120,120-120s120,53.8,120,120S314.7,280,248.5,280z M248.5,56
		c-57.3,0-104,46.7-104,104s46.7,104,104,104s104-46.7,104-104S305.8,56,248.5,56z"/>
	<path class="st1" d="M248.5,248c-48.5,0-88-39.5-88-88s39.5-88,88-88s88,39.5,88,88S297,248,248.5,248z M248.5,88
		c-39.7,0-72,32.3-72,72s32.3,72,72,72s72-32.3,72-72S288.2,88,248.5,88z"/>
	<path class="st1" d="M248.5,320c-11.1,0-21.8-4.7-29.3-12.9c-2-2.2-5.3-2.9-8-1.8c-10.3,4.1-22,3.8-32-1.1
		c-10-4.8-17.6-13.7-20.8-24.4c-0.9-2.8-3.5-4.9-6.4-5.1c-11.1-0.8-21.5-6.2-28.4-14.9c-6.9-8.7-9.9-20-8.2-31c0.5-2.9-1-6-3.6-7.4
		c-9.7-5.5-16.7-14.9-19.1-25.7s-0.3-22.3,6.1-31.5c1.7-2.5,1.7-5.8,0-8.2c-6.3-9.2-8.5-20.6-6.1-31.5s9.4-20.2,19.1-25.7
		c2.6-1.5,4-4.5,3.6-7.4c-1.7-11,1.3-22.3,8.2-31c6.9-8.7,17.3-14.1,28.4-14.9c2.9-0.2,5.6-2.3,6.4-5.1
		c3.2-10.7,10.8-19.6,20.8-24.4c10-4.8,21.7-5.2,32-1.1c2.7,1.1,6,0.3,8-1.8C226.7,4.7,237.4,0,248.5,0c11.1,0,21.8,4.7,29.3,12.9
		c2,2.2,5.3,2.9,8,1.8c10.4-4.1,22-3.7,32,1.1s17.6,13.7,20.8,24.4c0.8,2.8,3.5,4.9,6.4,5.1c11.1,0.8,21.5,6.2,28.4,14.9
		c6.9,8.7,9.9,20,8.2,31c-0.5,3,1,5.9,3.6,7.4c9.7,5.5,16.6,14.9,19.1,25.7s0.3,22.3-6.1,31.5c-1.7,2.5-1.7,5.8,0,8.2l0,0
		c6.3,9.2,8.6,20.6,6.1,31.5s-9.4,20.2-19.1,25.7c-2.6,1.5-4,4.5-3.6,7.4c1.7,11-1.3,22.3-8.2,31c-6.9,8.7-17.3,14.1-28.4,14.9
		c-2.9,0.2-5.6,2.3-6.5,5.1c-3.2,10.7-10.8,19.6-20.8,24.4c-10,4.8-21.7,5.2-32,1.1c-2.7-1.1-6-0.3-8,1.8
		C270.3,315.3,259.6,320,248.5,320z M213.7,288.7c6.4,0,12.7,2.6,17.2,7.5c9.1,10,26,10,35.1,0c6.5-7.1,16.8-9.5,25.8-5.9
		c6.3,2.5,13.1,2.3,19.2-0.6c6.1-2.9,10.5-8.1,12.4-14.6c2.8-9.2,11.1-15.8,20.7-16.5c6.8-0.5,12.8-3.6,17-8.9
		c4.2-5.3,5.9-11.9,4.9-18.5c-1.5-9.5,3.1-19.1,11.5-23.8c5.9-3.3,9.9-8.8,11.4-15.4s0.2-13.3-3.6-18.8l0,0
		c-5.5-7.9-5.5-18.5,0-26.4c3.8-5.6,5.2-12.3,3.6-18.8s-5.6-12-11.4-15.4c-8.4-4.8-13-14.3-11.5-23.8c1.1-6.7-0.7-13.3-4.9-18.5
		c-4.2-5.3-10.2-8.4-17-8.9c-9.6-0.7-17.9-7.3-20.7-16.5c-2-6.5-6.4-11.7-12.4-14.6c-6.1-2.9-12.9-3.2-19.2-0.6
		c-8.9,3.6-19.3,1.2-25.8-5.9c-9.2-10-25.9-10-35.1,0c-6.5,7.1-16.8,9.5-25.8,5.9c-6.3-2.5-13.1-2.3-19.2,0.6
		c-6.1,2.9-10.5,8.1-12.4,14.6c-2.8,9.2-11.1,15.8-20.7,16.5c-6.8,0.5-12.8,3.6-17,8.9S130,82.1,131,88.8
		c1.5,9.5-3.1,19.1-11.5,23.8c-5.9,3.3-10,8.8-11.5,15.4c-1.5,6.6-0.2,13.3,3.6,18.8c5.5,7.9,5.5,18.5,0,26.4
		c-3.8,5.6-5.2,12.3-3.6,18.8s5.6,12,11.4,15.4c8.4,4.7,13,14.3,11.5,23.8c-1.1,6.7,0.7,13.3,4.9,18.5c4.2,5.3,10.2,8.4,17,8.9
		c9.6,0.7,17.9,7.3,20.7,16.5c2,6.5,6.4,11.7,12.4,14.6c6.1,2.9,12.9,3.2,19.2,0.6C207.9,289.3,210.9,288.7,213.7,288.7z"/>
</g>
<g>
	<polygon class="st1" points="274.8,497 251.8,335.9 267.7,333.7 286.1,463 326.3,422.8 366.9,436.4 347.8,289.9 363.7,287.9 
		386.1,459.6 330.7,441.2 	"/>
	
		<rect x="315.4" y="319.5" transform="matrix(0.9908 -0.1351 0.1351 0.9908 -47.8366 47.1351)" class="st1" width="16" height="113"/>
	<polygon class="st1" points="222.1,497 166.3,441.2 110.9,459.6 133.3,287.9 149.2,289.9 130.1,436.4 170.7,422.8 210.8,463 
		229.3,333.7 245.1,335.9 	"/>
	<rect x="117" y="368" transform="matrix(0.1347 -0.9909 0.9909 0.1347 -222.3745 497.3317)" class="st1" width="113" height="16"/>
</g>
<path class="st1" d="M248.1,145c3.2,0,6-1.1,8.3-3.4c2.3-2.3,3.4-5.1,3.4-8.3c0-3.2-1.1-6-3.4-8.3c-2.3-2.3-5.1-3.4-8.3-3.4
	c-3.2,0-6,1.1-8.3,3.4c-2.3,2.3-3.4,5.1-3.4,8.3h-15.6c0-7.6,2.7-14,8-19.3c5.3-5.3,11.8-8,19.3-8c7.6,0,14,2.7,19.3,8
	c5.3,5.3,8,11.8,8,19.3c0,7-2.3,13.1-7,18.2c1.6,1.1,3,2.4,4.5,3.8c6.9,6.9,10.3,15.2,10.3,24.8s-3.4,18-10.3,24.8
	s-15.2,10.3-24.8,10.3s-18-3.4-24.8-10.3S213,189.8,213,180.1h15.6c0,5.4,1.9,10,5.7,13.8c3.8,3.8,8.4,5.7,13.8,5.7
	c5.4,0,10-1.9,13.8-5.7c3.8-3.8,5.7-8.4,5.7-13.8c0-5.4-1.9-10-5.7-13.8c-3.8-3.8-8.4-5.7-13.8-5.7h-7.8V145H248.1z"/>
<path class="st2" d="M229.2,172.2l-15.4-4.5l12.8-61.9h47.9v15.6h-35.2l-5.4,25.9c4.1-1.6,8.5-2.4,13.2-2.4c9.7,0,18,3.4,24.8,10.3
	s10.3,15.2,10.3,24.8s-3.4,18-10.3,24.8s-15.2,10.3-24.8,10.3s-18-3.4-24.8-10.3c-3.8-3.8-6.5-7.9-8.2-12.6l15.1-4.4
	c1,2.2,2.4,4.2,4.1,5.9c3.8,3.8,8.4,5.7,13.8,5.7c5.4,0,10-1.9,13.8-5.7c3.8-3.8,5.7-8.4,5.7-13.8c0-5.4-1.9-10-5.7-13.8
	c-3.8-3.8-8.4-5.7-13.8-5.7c-5.4,0-10,1.9-13.8,5.7C231.5,168.1,230.1,170.1,229.2,172.2z"/>
</svg>
