<?xml version="1.0" encoding="iso-8859-1"?>
<!-- Generator: Adobe Illustrator 19.0.0, SVG Export Plug-In . SVG Version: 6.00 Build 0)  -->
<svg version="1.1" id="Layer_1" xmlns="http://www.w3.org/2000/svg" xmlns:xlink="http://www.w3.org/1999/xlink" x="0px" y="0px"
	 viewBox="0 0 496 496" style="enable-background:new 0 0 496 496;" xml:space="preserve">
<g>
	<polygon style="fill:#FFA64D;" points="248,464 328,432 296,408 336,384 320,344 288,344 	"/>
	<polygon style="fill:#FFA64D;" points="248,464 168,432 200,408 160,384 176,344 208,344 	"/>
</g>
<g>
	<rect x="296" y="200" style="fill:#333333;" width="16" height="16"/>
	<rect x="184" y="200" style="fill:#333333;" width="16" height="16"/>
	<path style="fill:#333333;" d="M312,240h-16c0,26.472-21.528,48-48,48s-48-21.528-48-48h-16c0,35.288,28.712,64,64,64
		S312,275.288,312,240z"/>
	<path style="fill:#333333;" d="M424.504,411.608c-3.592-11.488-9.264-22.024-16.504-31.248V160C408,71.776,336.224,0,248,0
		S88,71.776,88,160v220.36c-7.248,9.224-12.92,19.768-16.504,31.248L45.12,496h405.76L424.504,411.608z M104,216v-56
		c0-79.4,64.6-144,144-144s144,64.6,144,144v56v148.216c-13.312-10.704-29.336-18.056-46.688-20.728L304,337.136v-8.208
		c26.92-15.632,46.784-42.136,53.488-73.48C376.928,252.736,392,236.176,392,216c0-19.312-13.768-35.472-32-39.192V176v-24v-16h-16
		v16v8H152v-8v-16h-16v16v24v0.808C117.768,180.528,104,196.688,104,216c0,20.176,15.072,36.736,34.512,39.448
		c6.704,31.344,26.568,57.848,53.488,73.48v8.208l-41.312,6.36c-17.352,2.664-33.376,10.024-46.688,20.728V216z M152,232v-56h192v56
		c0,52.936-43.064,96-96,96S152,284.936,152,232z M359.664,238.632C359.792,236.424,360,234.24,360,232v-38.528
		c9.288,3.312,16,12.112,16,22.528C376,226.536,369.128,235.416,359.664,238.632z M136.336,238.632
		C126.872,235.416,120,226.536,120,216c0-10.416,6.712-19.216,16-22.528V232C136,234.24,136.208,236.424,136.336,238.632z
		 M359.936,423.008l-15.872,1.984L350.936,480H256v-16h-16v16h-94.936l6.872-55.008l-15.872-1.984L128.936,480H66.88l19.872-63.624
		c9.352-29.904,35.4-52.312,66.368-57.072l54.88-8.44v-14.32c12.432,4.776,25.904,7.456,40,7.456c14.096,0,27.568-2.68,40-7.456
		v14.32l54.872,8.44c30.968,4.76,57.016,27.168,66.368,57.072L429.12,480h-62.056L359.936,423.008z"/>
</g>
<path style="fill:#FFA64D;" d="M136,144l-18.896-30.728c-3.288-4.384-5.104-9.824-5.104-15.304c0-9.136,4.92-17.616,12.848-22.152
	l89.376-58.008c20.144-13.08,47.4-13.08,67.552,0l89.752,58.24C379.08,80.344,384,88.832,384,97.968
	c0,5.488-1.816,10.92-5.104,15.304L360,144H136z"/>
<g>
	<rect x="240" y="56" style="fill:#333333;" width="16" height="56"/>
	<rect x="220" y="76" style="fill:#333333;" width="56" height="16"/>
</g>
<g>
</g>
<g>
</g>
<g>
</g>
<g>
</g>
<g>
</g>
<g>
</g>
<g>
</g>
<g>
</g>
<g>
</g>
<g>
</g>
<g>
</g>
<g>
</g>
<g>
</g>
<g>
</g>
<g>
</g>
</svg>
