<?xml version="1.0" encoding="iso-8859-1"?>
<!-- Generator: Adobe Illustrator 19.0.0, SVG Export Plug-In . SVG Version: 6.00 Build 0)  -->
<svg version="1.1" id="Layer_1" xmlns="http://www.w3.org/2000/svg" xmlns:xlink="http://www.w3.org/1999/xlink" x="0px" y="0px"
	 viewBox="0 0 496 496" style="enable-background:new 0 0 496 496;" xml:space="preserve">
<g>
	<polygon style="fill:#333333;" points="420.944,496 387.72,496 368,466.424 368,448 320,448 320,463.16 250.72,470.856 
		259.104,496 212.16,496 180.16,456 140,456 115.104,422.8 44.12,399.136 0,363.84 0,245.784 26.168,202.168 70.2,175.752 
		144.88,184.048 143.12,199.952 73.8,192.248 37.832,213.832 16,250.216 16,356.16 51.88,384.864 124.896,409.2 148,440 187.84,440 
		219.84,480 236.896,480 229.28,457.144 304,448.84 304,432 384,432 384,461.576 396.28,480 411.056,480 414.264,473.576 
		400,459.312 400,412 432,388 432,340.688 456,316.688 456,277.336 480,245.336 480,232 458.664,232 394.664,280 360,280 
		360,254.776 318.688,247.888 321.312,232.112 376,241.224 376,264 389.336,264 453.336,216 496,216 496,250.664 472,282.664 
		472,323.312 448,347.312 448,396 416,420 416,452.688 433.736,470.424 	"/>
	<path style="fill:#333333;" d="M248,368c-11.464,0-112-0.896-112-32c0-23.984,61.232-29.912,87.56-31.344l0.872,15.976
		c-46.16,2.52-67.728,11.088-71.976,15.384C158.24,342.152,192.616,352,248,352s89.76-9.848,95.536-15.984
		c-4.248-4.304-25.824-12.864-71.976-15.384l0.872-15.976C298.768,306.088,360,312.016,360,336C360,367.104,259.464,368,248,368z"/>
</g>
<path style="fill:#FFA64D;" d="M248,0c-70.576,0-128,57.424-128,128v4.432c0,24.824,7.152,48.944,20.68,69.76l75.888,116.76
	c6.944,10.68,18.688,17.056,31.432,17.056c12.744,0,24.488-6.376,31.432-17.056l75.888-116.76
	c13.528-20.816,20.68-44.936,20.68-69.76V128C376,57.424,318.576,0,248,0z M248,200c-39.768,0-72-32.232-72-72s32.232-72,72-72
	s72,32.232,72,72S287.768,200,248,200z"/>
<g>
	<path style="fill:#333333;" d="M248,208c-44.112,0-80-35.888-80-80s35.888-80,80-80s80,35.888,80,80S292.112,208,248,208z M248,64
		c-35.288,0-64,28.712-64,64s28.712,64,64,64s64-28.712,64-64S283.288,64,248,64z"/>
	<path style="fill:#333333;" d="M216.632,121.592l-15.672-3.184C205.472,96.152,225.264,80,248,80v16
		C232.84,96,219.648,106.76,216.632,121.592z"/>
	<path style="fill:#333333;" d="M209.6,156.808c-4.304-5.728-7.208-12.192-8.632-19.2l15.672-3.192
		c0.952,4.664,2.888,8.968,5.76,12.784L209.6,156.808z"/>
</g>
<g>
</g>
<g>
</g>
<g>
</g>
<g>
</g>
<g>
</g>
<g>
</g>
<g>
</g>
<g>
</g>
<g>
</g>
<g>
</g>
<g>
</g>
<g>
</g>
<g>
</g>
<g>
</g>
<g>
</g>
</svg>
