<?xml version="1.0" encoding="utf-8"?>
<!-- Generator: Adobe Illustrator 22.0.1, SVG Export Plug-In . SVG Version: 6.00 Build 0)  -->
<svg version="1.1" id="Capa_1" xmlns="http://www.w3.org/2000/svg" xmlns:xlink="http://www.w3.org/1999/xlink" x="0px" y="0px"
	 viewBox="0 0 497 497" style="enable-background:new 0 0 497 497;" xml:space="preserve">
<style type="text/css">
	.st0{fill:#017581;}
	.st1{fill:#003C69;}
</style>
<path class="st0" d="M136.5,184c-17.7,0-32,14.3-32,32v64h160v-64c0-17.7-14.3-32-32-32H136.5z"/>
<g>
	<polygon class="st0" points="413.7,497 368.9,362.5 384.1,357.5 419.3,463 436.5,440 469.4,440 432.9,330.5 448.1,325.5 491.6,456 
		444.5,456 	"/>
	<polygon class="st0" points="339.3,497 308.5,456 261.4,456 304.9,325.5 320.1,330.5 283.6,440 316.5,440 333.7,463 368.9,357.5 
		384.1,362.5 	"/>
</g>
<g>
	<circle class="st0" cx="184.5" cy="136" r="48"/>
	<circle class="st0" cx="376.5" cy="280" r="80"/>
</g>
<g>
	<polygon class="st1" points="0.5,0 0.5,368 280.5,368 280.5,352 16.5,352 16.5,16 480.5,16 480.5,368 496.5,368 496.5,0 	"/>
	<path class="st1" d="M414.1,37.1l-2-5.1H85l-2,5.1c-8.1,20.7-24.6,37.3-45.4,45.4l-5.1,2v199.1l5.1,2c20.7,8.1,37.3,24.6,45.4,45.4
		l2,5.1h195.6v-16H95.7c-9.6-20.8-26.4-37.6-47.2-47.2V95.2C69.3,85.6,86.1,68.8,95.7,48h305.6c9.6,20.8,26.4,37.6,47.2,47.2V208h16
		V84.4l-5.1-2C438.7,74.4,422.2,57.8,414.1,37.1z"/>
	<path class="st1" d="M184.5,192c30.9,0,56-25.1,56-56s-25.1-56-56-56s-56,25.1-56,56S153.6,192,184.5,192z M184.5,96
		c22.1,0,40,17.9,40,40s-17.9,40-40,40s-40-17.9-40-40S162.5,96,184.5,96z"/>
	<path class="st1" d="M96.5,216v72h176v-72c0-22.1-17.9-40-40-40v16c13.2,0,24,10.8,24,24v56h-16v-48h-16v48h-80v-48h-16v48h-16v-56
		c0-13.2,10.8-24,24-24v-16C114.5,176,96.5,193.9,96.5,216z"/>
	<path class="st1" d="M376.5,192c-48.5,0-88,39.5-88,88s39.5,88,88,88s88-39.5,88-88S425,192,376.5,192z M376.5,352
		c-39.7,0-72-32.3-72-72s32.3-72,72-72s72,32.3,72,72S416.2,352,376.5,352z"/>
	<path class="st1" d="M376.5,224c-30.9,0-56,25.1-56,56s25.1,56,56,56s56-25.1,56-56S407.4,224,376.5,224z M376.5,320
		c-22.1,0-40-17.9-40-40s17.9-40,40-40s40,17.9,40,40S398.6,320,376.5,320z"/>
</g>
<g>
	<rect x="288.5" y="96" class="st0" width="144" height="16"/>
	<rect x="288.5" y="128" class="st0" width="144" height="16"/>
	<rect x="416.5" y="160" class="st0" width="16" height="16"/>
	<rect x="288.5" y="160" class="st0" width="112" height="16"/>
</g>
</svg>
