<?xml version="1.0" encoding="utf-8"?>
<!-- Generator: Adobe Illustrator 22.0.1, SVG Export Plug-In . SVG Version: 6.00 Build 0)  -->
<svg version="1.1" id="Capa_1" xmlns="http://www.w3.org/2000/svg" xmlns:xlink="http://www.w3.org/1999/xlink" x="0px" y="0px"
	 viewBox="0 0 496 496" style="enable-background:new 0 0 496 496;" xml:space="preserve">
<style type="text/css">
	.st0{fill:#017581;}
	.st1{fill:#003C69;}
</style>
<g>
	<path class="st0" d="M475.7,78c-23.4-3.9-45.3-13.9-63.5-29.1l-3.3-2.8C398,37,384.2,32,370,32l0,0c-25.3,0-47.9,15.7-56.8,39.4
		l-0.8,2.2C307.4,87.1,294.4,96,280,96v80c0-13.4,10.8-24.2,24.2-24.2h18c13.9,0,27.3,5.6,37.1,15.5l8.7,8.8h20.2
		c13,0,25.8-3,37.5-8.8l0,0c8.8-4.4,14.3-13.4,14.3-23.2v-2.2c5.5-1.3,10.9-3.3,16-5.8l1.7-0.8c8.8-4.4,14.3-13.3,14.3-23.2v-4
		l4.8-1.2c6.6-1.6,11.2-7.5,11.2-14.3C488,85.3,482.8,79.1,475.7,78z"/>
	<path class="st0" d="M20.3,78C43.7,74.1,65.6,64,83.8,48.9l3.3-2.8C98,37,111.8,32,126,32l0,0c25.3,0,47.9,15.7,56.8,39.4l0.8,2.2
		c5.1,13.5,18,22.5,32.4,22.5v80c0-13.4-10.9-24.2-24.2-24.2h-18c-13.9,0-27.3,5.6-37.1,15.5L128,176h-20.2c-13,0-25.8-3-37.5-8.8
		l0,0C61.5,162.8,56,153.8,56,144v-2.2c-5.5-1.3-10.9-3.3-16-5.8l-1.7-0.8C29.5,130.8,24,121.8,24,112v-4l-4.8-1.2
		C12.6,105.2,8,99.3,8,92.5C8,85.3,13.2,79.1,20.3,78z"/>
</g>
<g>
	<rect x="168" y="168" class="st1" width="16" height="16"/>
	<rect x="312" y="168" class="st1" width="16" height="16"/>
	<path class="st1" d="M496,92.5c0-11.2-8-20.6-19-22.4c-21.9-3.7-42.6-13.1-59.7-27.4l-3.3-2.8C401.7,29.7,386.1,24,370,24
		c-28.5,0-54.3,17.9-64.3,44.6l-0.8,2.2c-2.9,7.8-9.3,13.6-17,16c0-2.7,0-5.4,0-8.2v-4.1c5-7.6,8-16.7,8-26.5c0-26.5-21.5-48-48-48
		s-48,21.5-48,48c0,9.8,3,18.9,8,26.5v4.1c0,2.7,0.1,5.4,0.1,8.2c-7.7-2.4-14.1-8.3-17-16l-0.8-2.2C180.3,41.9,154.4,24,126,24
		c-16,0-31.6,5.7-44,15.9l-3.3,2.8C61.6,57,40.9,66.4,19,70.1C8,71.9,0,81.3,0,92.5c0,10.1,6.6,18.8,16.2,21.7
		c0.8,12,7.7,22.7,18.6,28.1l1.7,0.8c3.8,1.9,7.8,3.4,11.8,4.7c1.3,11.3,8.1,21.3,18.5,26.5c12.7,6.3,26.9,9.7,41,9.7h8.6
		c-2.8,7.2-4.3,14.8-4.3,22.6v1.8c0,27.7,10.8,53.7,30.3,73.3c14.9,14.9,33.6,24.7,54,28.5c-12.8,8.7-20.4,23-20.4,38.5
		c0,14.6,7,28.6,18.7,37.3l9.4,7l-7.3,4.8c-13,8.7-20.8,23.2-20.8,38.8c0,14.6,7,28.6,18.7,37.3l29.3,22v-16
		c0-8.3,1.6-16.4,4.4-23.9c0.9,8.3,1.7,16.6,2.7,24.9c1,8.6,8.2,15,16.9,15c8.6,0,15.9-6.5,16.9-15c2.6-22.5,5-45.6,7.2-68.8
		l27.1-18.1c13-8.7,20.8-23.2,20.8-38.8c0-14.6-7-28.6-18.7-37.3l-9.1-6.8c23.2-2.7,44.8-13,61.4-29.6
		c19.6-19.6,30.3-45.6,30.3-73.3v-1.8c0-7.8-1.5-15.4-4.3-22.6h8.6c14.2,0,28.4-3.4,41-9.7c10.4-5.2,17.2-15.1,18.5-26.5
		c4-1.3,8-2.8,11.8-4.7l1.7-0.8c10.9-5.4,17.8-16.1,18.6-28.1C489.4,111.3,496,102.6,496,92.5z M236.3,371.5
		c-0.4-5.4-0.9-10.7-1.3-16.1c4.9-7.4,11.1-13.9,18.7-19l9.2-6.1c-0.4,5.7-0.8,11.5-1.3,17.2c-5,7.9-11.5,14.8-19.3,20L236.3,371.5z
		 M313.3,243.3c-3.1-5.1-7-9.7-11.9-13.3l-16.2-12.1c0.2-5.2,0.4-10.4,0.6-15.6c5.2,3.6,11.4,5.7,18.2,5.7h24v1.4
		c0,12.3-5,24.3-13.7,33C314,242.7,313.6,243,313.3,243.3z M212.5,255.9c-11.5-0.5-22.7-5.4-30.9-13.6c-8.7-8.7-13.7-20.7-13.7-33
		V208h24c6.8,0,13.1-2.2,18.3-5.8C210.9,220.1,211.6,238,212.5,255.9z M230.3,287.5c-3.9-65.7-6-132.1-6.3-197.9
		c7,4.1,15.2,6.4,23.9,6.4c8.7,0,16.9-2.4,23.9-6.5c-0.2,52.3-1.5,105.1-4,157.2c-4.8,13.2-13.6,24.7-25.7,32.8L230.3,287.5z
		 M248,16c17.6,0,32,14.4,32,32s-14.4,32-32,32s-32-14.4-32-32S230.4,16,248,16z M107.8,168c-11.7,0-23.4-2.8-33.9-8
		c-3.7-1.8-6.4-4.9-8.1-8.5c2.7,0.3,5.4,0.5,8.1,0.5h4.2c12.9,0,25.9-3.1,37.5-8.8l-7.2-14.3c-9.4,4.7-19.8,7.2-30.3,7.2h-4.2
		c-10.5,0-20.9-2.5-30.3-7.2l-1.7-0.8c-4.2-2.1-7.2-5.7-8.7-10c7.5,1.3,15.2,2,22.8,2c11.3,0,22.5-1.4,33.5-4.1l16.5-4.1l-3.9-15.5
		l-16.5,4.1c-19.3,4.8-39.8,4.8-59.2,0L21.1,99c-3-0.8-5.1-3.4-5.1-6.5c0-3.3,2.4-6.1,5.6-6.7c24.7-4.1,48-14.8,67.3-30.8l3.3-2.8
		C101.7,44.3,113.7,40,126,40c21.8,0,41.6,13.7,49.3,34.2l0.8,2.2c5.3,14.1,17.7,24.1,32.1,26.8c0.1,15.2,0.3,30.4,0.6,45.7
		c-4.9-3-10.6-4.9-16.8-4.9h-17.4c-16.5,0-32.6,6.7-44.3,18.3c-1.8,1.8-3.4,3.7-4.9,5.7H107.8z M128,208.4v-1.8
		c0-12.3,5-24.3,13.7-33c8.7-8.7,20.7-13.7,33-13.7H192c8.8,0,16,7.2,16,16c0,8.8-7.2,16-16,16h-40v17.4c0,16.5,6.7,32.6,18.3,44.3
		c11.4,11.4,27,18,43.1,18.3c0.4,8,0.9,16,1.4,24c-23.1-0.2-44.8-9.3-61.1-25.6C137.1,253.8,128,231.8,128,208.4z M192,348.7
		c0-10.3,5.1-19.8,13.6-25.5l45.5-30.3c18.8-12.6,31.5-32,35.5-53.9l5.1,3.8c7.7,5.8,12.3,14.9,12.3,24.5c0,10.3-5.1,19.8-13.6,25.5
		l-45.5,30.3c-18.8,12.6-31.5,32-35.5,53.9l-5.1-3.8C196.6,367.4,192,358.3,192,348.7z M249,479.1c-0.1,1-1.8,1-1.9,0
		c-1.7-14.9-3.3-29.9-4.9-44.8c3.4-3.6,7.3-7,11.5-9.8l1.2-0.8C253,442.4,251.1,461,249,479.1z M304,355.3
		c0,10.3-5.1,19.8-13.6,25.5l-45.5,30.3c-18.8,12.6-31.5,32-35.5,53.9l-5.1-3.8c-7.7-5.8-12.3-14.9-12.3-24.5
		c0-10.3,5.1-19.8,13.6-25.5l12-8l6.4,4.8V399l27.2-18.1c10.8-7.2,19.6-17,26-28.2l0.1,0c0-0.1,0-0.2,0-0.3c0.6-1.1,1.3-2,1.8-3.1
		c3.6-7,5.9-14.6,7.4-22.4l5.2,3.9C299.4,336.6,304,345.7,304,355.3z M368,208.4c0,23.4-9.1,45.4-25.7,61.9
		c-8,8-17.4,14.2-27.7,18.6c3.4-6.6,5.3-13.9,5.3-21.6c0-2.7-0.3-5.4-0.8-8.1c2.3-1.7,4.4-3.6,6.5-5.6
		c11.7-11.7,18.3-27.8,18.3-44.3V192h-40c-8.8,0-16-7.2-16-16c0-8.8,7.2-16,16-16h17.4c12.3,0,24.3,5,33,13.7
		c8.7,8.7,13.7,20.7,13.7,33V208.4z M474.9,99l-5.3,1.3c-19.3,4.8-39.8,4.8-59.2,0l-16.5-4.1l-3.9,15.5l16.5,4.1
		c10.9,2.7,22.2,4.1,33.5,4.1c7.6,0,15.3-0.7,22.8-2c-1.5,4.2-4.5,7.9-8.7,10l-1.7,0.8c-9.4,4.7-19.8,7.2-30.3,7.2h-4.2
		c-10.5,0-20.9-2.5-30.3-7.2l-7.2,14.3C392,149,405,152,417.9,152h4.2c2.7,0,5.4-0.2,8.1-0.5c-1.7,3.6-4.4,6.6-8.1,8.5
		c-10.5,5.2-22.2,8-33.9,8h-17.6c-1.5-2-3.2-3.9-4.9-5.7C354,150.7,337.9,144,321.4,144H304c-6.2,0-11.9,1.8-16.8,4.9
		c0.3-15.2,0.5-30.5,0.6-45.7c14.4-2.7,26.8-12.8,32.1-26.8l0.8-2.2C328.4,53.7,348.2,40,370,40c12.3,0,24.3,4.3,33.7,12.2l3.3,2.8
		c19.3,16.1,42.5,26.7,67.3,30.8c3.3,0.5,5.6,3.3,5.6,6.7C480,95.6,477.9,98.3,474.9,99z"/>
</g>
</svg>
