<?xml version="1.0" encoding="utf-8"?>
<!-- Generator: Adobe Illustrator 22.0.1, SVG Export Plug-In . SVG Version: 6.00 Build 0)  -->
<svg version="1.1" id="Layer_1" xmlns="http://www.w3.org/2000/svg" xmlns:xlink="http://www.w3.org/1999/xlink" x="0px" y="0px"
	 viewBox="0 0 496 496" style="enable-background:new 0 0 496 496;" xml:space="preserve">
<style type="text/css">
	.st0{fill:#017581;}
	.st1{fill:#003C69;}
</style>
<path class="st0" d="M268,369.8V424l-8,0H100l0-28.8l79.8-43c20.2-10.9,44.2-10.8,64.4,0l19.6,10.6L268,369.8z"/>
<g>
	<circle class="st1" cx="212" cy="256" r="8"/>
	<circle class="st1" cx="212" cy="288" r="8"/>
	<circle class="st1" cx="212" cy="320" r="8"/>
	<path class="st1" d="M460,360h-26.7l18.9-18.9l-45.2-45.2L388,314.7V288h-24v-9.1c13.8-3.6,24-16,24-30.9s-10.2-27.3-24-30.9V41.8
		c4.9-4.4,8-10.7,8-17.8c0-13.2-10.8-24-24-24H76C62.8,0,52,10.8,52,24c0,7.1,3.1,13.4,8,17.8v175.4c-13.8,3.6-24,16-24,30.9
		c0,14.9,10.2,27.3,24,30.9v175.4c-4.9,4.4-8,10.7-8,17.8c0,13.2,10.8,24,24,24h248h16h48v-26.7l18.9,18.9l45.2-45.2L433.3,424H460
		V360z M372,248c0,8.8-7.2,16-16,16s-16-7.2-16-16s7.2-16,16-16S372,239.2,372,248z M348,217.1c-13.8,3.6-24,16-24,30.9
		c0,14.9,10.2,27.3,24,30.9v9.1h-24v26.7l-6.4-6.4c-8.4-23.1-24.6-42.3-45.8-54.1l-11.2-6.2l11.2-6.2c32.2-17.9,52.2-52,52.3-88.8
		L324.1,48H348V217.1z M259.8,341.1l18.9,18.9H260h-8v8v48H115.9l0.1-72.9c0-31.1,16.9-59.8,44.1-74.9l23.7-13.2
		c2.5-1.4,4.1-4.1,4.1-7s-1.6-5.6-4.1-7L160,227.8c-26.8-14.9-43.5-43.1-44-73.7l96,22.1l96-22.1c-0.4,30.6-17.2,58.8-44,73.7
		L240.2,241c-2.5,1.4-4.1,4.1-4.1,7s1.6,5.6,4.1,7l23.7,13.2c14.5,8.1,26.2,20.2,33.9,34.8l-32.4,32.4L259.8,341.1z M115.9,432
		h154.9l-10.9,10.9l5.1,5.1h-149L115.9,432z M116,137.6l0-57.6h192.2l0,57.6L212,159.8L116,137.6z M308.1,64H115.9l0-16h192.2
		L308.1,64z M76,16h272c4.4,0,8,3.6,8,8s-3.6,8-8,8h-31.9H107.9H76c-4.4,0-8-3.6-8-8S71.6,16,76,16z M52,248c0-8.8,7.2-16,16-16
		s16,7.2,16,16s-7.2,16-16,16S52,256.8,52,248z M76,278.9c13.8-3.6,24-16,24-30.9s-10.2-27.3-24-30.9V48h23.9l0.1,104.9
		c0,36.9,20.1,70.9,52.3,88.8l11.2,6.2l-11.2,6.2c-32.2,17.9-52.2,52-52.3,88.8L99.9,448H76V278.9z M76,480c-4.4,0-8-3.6-8-8
		s3.6-8,8-8h31.9h173.1l16,16H76z M324,480h-10.7l10.7-10.7V480z M444,408h-25.8l-1.9,5.3c-0.8,2.1-1.6,4.2-2.6,6.2l-2.4,5.1
		l18.3,18.3l-22.6,22.6l-18.3-18.3l-5.1,2.4c-2,1-4.1,1.8-6.2,2.6l-5.3,1.9V480h-32v-25.8l-5.3-1.9c-2.1-0.8-4.2-1.6-6.2-2.6
		l-5.1-2.4l-18.3,18.3l-15.2-15.2l-2.4-2.4l-5.1-5.1l18.3-18.3l-2.4-5.1c-1-2-1.8-4.1-2.6-6.2l-1.9-5.3h-5.7H268v-32h20.2h5.7
		l1.9-5.3c0.8-2.1,1.6-4.2,2.6-6.2l2.4-5.1l-18.3-18.3l22.6-22.6l0.1,0.1l0,0l18.2,18.2l5.1-2.4c2-1,4.1-1.8,6.2-2.6l5.3-1.9V304h32
		v25.8l5.3,1.9c2.1,0.8,4.2,1.6,6.2,2.6l5.1,2.4l18.3-18.3l22.6,22.6l-18.3,18.3l2.4,5.1c1,2,1.8,4.1,2.6,6.2l1.9,5.3H444V408z"/>
	<path class="st1" d="M356,352c-22.1,0-40,17.9-40,40s17.9,40,40,40s40-17.9,40-40S378.1,352,356,352z M356,416
		c-13.2,0-24-10.8-24-24s10.8-24,24-24s24,10.8,24,24S369.2,416,356,416z"/>
</g>
</svg>
