<?xml version="1.0" encoding="utf-8"?>
<!-- Generator: Adobe Illustrator 22.0.1, SVG Export Plug-In . SVG Version: 6.00 Build 0)  -->
<svg version="1.1" id="Layer_1" xmlns="http://www.w3.org/2000/svg" xmlns:xlink="http://www.w3.org/1999/xlink" x="0px" y="0px"
	 viewBox="0 0 200 200" style="enable-background:new 0 0 200 200;" xml:space="preserve">
<style type="text/css">
	.st0{fill:#FFFFFF;}
	.st1{fill:#F58220;}
</style>
<g>
	<path class="st0" d="M183.9,141.8l-32.1-22c-0.4-2.4-0.8-4.8-1.3-7.4c-1.9-10-3.9-20.4-5.3-30.7l1.2-0.9l0,0l35.6-24.4l-21.5-8.2
		l-17.4,10c0.2-16.4,3.2-30.4,9.3-42.6c0.6-1.2,0.3-2.6-0.6-3.5c-1-0.9-2.4-1.1-3.6-0.4l-27,15.6c-0.6,0.4-1.1,0.9-1.3,1.6
		c-4.6,13.4-6.3,28-5.3,45.8l-0.9,0.5c0,0-0.1,0.1-0.1,0.1l-14.5,8.4L78.7,69.6c1.6-1.8,2.9-3.7,4.1-5.7c4.6-8,5.9-17.4,3.5-26.4
		c-2.4-9-8.2-16.5-16.2-21.1c-5.3-3.1-11.3-4.7-17.4-4.7c-12.4,0-24,6.7-30.2,17.4C13.3,45.2,18.2,65.7,34,75.8l39.5,22.8
		l-41.4,23.9c-15.6,10.1-20.6,30.5-11.3,46.7c6.2,10.7,17.8,17.4,30.2,17.4c0,0,0,0,0,0c6.1,0,12.1-1.6,17.4-4.7
		c8.1-4.6,13.8-12.1,16.2-21.1c2.4-9,1.2-18.4-3.5-26.4c-1.2-2-2.6-4-4.1-5.7l22.2-15.2l23.6,13.6c2.1,13.7,4.1,28,4.9,43.6
		c0.1,0.9,0.5,1.8,1.3,2.3l21.5,15c0.5,0.4,1.1,0.5,1.7,0.5c0.5,0,1-0.1,1.4-0.3c1-0.5,1.6-1.5,1.6-2.7c0-3.6,0.1-7.1,0.1-10.6
		c0.1-9.1,0.3-18.4-0.4-29.4l7.6,4.4L183.9,141.8z M37.1,70.7c-12.9-8.3-17-25.3-9.3-38.6c5.1-8.9,14.7-14.4,25-14.4
		c5,0,10,1.3,14.4,3.9c6.7,3.8,11.4,10.1,13.4,17.5c2,7.4,1,15.2-2.9,21.9c-1.5,2.6-3.4,4.9-5.6,6.9l-2.8,2.5l24.3,16.7l-14.1,8.1
		L37.1,70.7z M70.3,130.5c2.2,2,4.1,4.3,5.6,6.9c3.8,6.7,4.9,14.4,2.9,21.9c-2,7.4-6.8,13.6-13.4,17.5c-4.4,2.5-9.3,3.9-14.4,3.9
		l0,0c-10.3,0-19.8-5.5-25-14.4c-7.7-13.3-3.6-30.3,9.2-38.5l84.1-48.6c0,0,0,0,0.1,0l22.4-12.9c0,0,0.1-0.1,0.1-0.1l19.3-11.1
		l8.1,3.1L67.5,127.9L70.3,130.5z M104.6,109.7l11-7.5l3.5,2.4c0,0.3,0.1,0.6,0.1,0.9c0.3,2.1,0.7,4.3,1,6.5l0,0.1l0.1,0.3
		c0.4,2.3,0.8,4.7,1.1,7.1L104.6,109.7z M153.1,127.9l18,12.4l-8.1,3.1l-8.7-5C154,135.1,153.6,131.6,153.1,127.9z"/>
	<path class="st1" d="M125.4,32l18.2-10.5c-4.4,11.8-6.5,25.1-6.3,40.3l-16.6,9.6C120,56.3,121.5,43.6,125.4,32z"/>
	<path class="st1" d="M149.3,174.9c0,1.6,0,3.3-0.1,4.9l-15.7-10.9c-1.2-20.3-4.2-38.4-7-55.9l-0.3-2.1c-0.8-4.9-1.6-9.8-2.3-14.5
		l15.9-10.9c1.4,9.4,3.1,18.9,4.9,28C149.8,141,149.6,158.2,149.3,174.9z"/>
	<path class="st0" d="M62.6,29.4c-3-1.7-6.4-2.7-9.9-2.7c-7.1,0-13.6,3.8-17.2,9.9c-3.8,6.5-4,13.3-0.6,19.2
		c3.6,6.3,10.8,10.3,18.4,10.3c0,0,0,0,0,0c6.9,0,13-3.5,16.5-9.7C75.3,46.9,72.1,34.8,62.6,29.4z M64.7,53.4
		c-2.5,4.3-6.5,6.7-11.3,6.7c0,0,0,0,0,0c-5.4,0-10.7-3-13.2-7.3c-1.6-2.8-2.8-7.3,0.6-13.2c2.5-4.3,7-6.9,12-6.9
		c2.4,0,4.8,0.6,6.9,1.8C66.2,38.4,68.5,46.8,64.7,53.4z"/>
	<path class="st0" d="M60.6,134.6c-0.3-0.2-0.6-0.3-1.1-0.6c-2.7-1.3-5.6-1.9-8.6-1.9c-7.2,0-14.1,4-17.6,10.1
		c-3.5,6-3.3,13.1,0.4,19.5c3.5,6.1,10.1,9.9,17.2,9.9c3.5,0,6.9-0.9,9.9-2.7c9.5-5.5,12.7-17.6,7.2-27
		C66.3,138.8,63.7,136.3,60.6,134.6z M57.8,163.8c-2.1,1.2-4.5,1.9-6.9,1.9c-4.9,0-9.5-2.6-12-6.9c-2.6-4.6-2.8-9.4-0.4-13.5
		c2.5-4.3,7.4-7.1,12.4-7.1c2.1,0,4.1,0.5,6,1.4c0.2,0.1,0.5,0.2,0.7,0.4c2.1,1.2,3.9,3,5.2,5.1C66.7,151.5,64.4,160,57.8,163.8z"/>
	<circle class="st0" cx="99.7" cy="97.7" r="4.1"/>
</g>
</svg>
