<?xml version="1.0" encoding="utf-8"?>
<!-- Generator: Adobe Illustrator 22.0.1, SVG Export Plug-In . SVG Version: 6.00 Build 0)  -->
<svg version="1.1" id="Layer_1" xmlns="http://www.w3.org/2000/svg" xmlns:xlink="http://www.w3.org/1999/xlink" x="0px" y="0px"
	 viewBox="0 0 496 496" style="enable-background:new 0 0 496 496;" xml:space="preserve">
<style type="text/css">
	.st0{fill:#FFFFFF;}
	.st1{fill:#62489D;}
</style>
<path class="st0" d="M440,440c0,22.1-17.9,40-40,40H208c-22.1,0-40-17.9-40-40v-64h16v64c0,13.2,10.8,24,24,24h192
	c13.2,0,24-10.8,24-24V288h-16v152c0,4.4-3.6,8-8,8H208c-4.4,0-8-3.6-8-8V336h-16v24h-16v-24h-16v104c0,30.9,25.1,56,56,56h192
	c30.9,0,56-25.1,56-56V288h-16V440z"/>
<path class="st1" d="M432,296c-35.3,0-64-28.7-64-64s28.7-64,64-64s64,28.7,64,64S467.3,296,432,296z"/>
<g>
	<path class="st0" d="M128,0h-24h-8H72h-8H24C10.8,0,0,10.8,0,24v152c0,75,61,136,136,136v-16c-66.2,0-120-53.8-120-120V24
		c0-4.4,3.6-8,8-8h40v16H32v144c0,57.3,46.7,104,104,104v-16c-48.5,0-88-39.5-88-88V48h16v16c0,8.8,7.2,16,16,16h16
		c0,8.8,7.2,16,16,16h16c8.8,0,16-7.2,16-16V16C144,7.2,136.8,0,128,0z M128,80h-16V48H96v16H80V16h16v16h16V16h16V80z"/>
	<path class="st0" d="M352,176V24c0-13.2-10.8-24-24-24h-32h-16h-16h-8h-24c-8.8,0-16,7.2-16,16v64c0,8.8,7.2,16,16,16h16
		c8.8,0,16-7.2,16-16h16c8.8,0,16-7.2,16-16V48h8v128c0,48.5-39.5,88-88,88v16c57.3,0,104-46.7,104-104V32h-24V16h32
		c4.4,0,8,3.6,8,8v152c0,66.2-53.8,120-120,120v16C291,312,352,251,352,176z M248,80h-16V16h16V80z M280,64h-16V16h16V64z"/>
	<path class="st0" d="M432,200c-17.6,0-32,14.4-32,32s14.4,32,32,32c5.3,0,10.6-1.3,15.3-3.9l-7.6-14.1c-2.4,1.3-4.9,1.9-7.6,1.9
		c-8.8,0-16-7.2-16-16s7.2-16,16-16s16,7.2,16,16c0,1.8-0.3,3.6-0.9,5.3l15.1,5.3c1.2-3.4,1.8-7,1.8-10.7
		C464,214.4,449.6,200,432,200z"/>
</g>
<path class="st1" d="M195.1,344h-38.1c-6.1,0-11.6-3.4-14.3-8.8L128,305.9V264h96v41.9l-14.6,29.3C206.6,340.6,201.2,344,195.1,344z
	 M195.1,328v8V328L195.1,328z"/>
</svg>
