<?xml version="1.0" encoding="utf-8"?>
<!-- Generator: Adobe Illustrator 22.0.1, SVG Export Plug-In . SVG Version: 6.00 Build 0)  -->
<svg version="1.1" id="Layer_1" xmlns="http://www.w3.org/2000/svg" xmlns:xlink="http://www.w3.org/1999/xlink" x="0px" y="0px"
	 viewBox="0 0 260 260" style="enable-background:new 0 0 260 260;" xml:space="preserve">
<style type="text/css">
	.st0{fill:#624A9E;}
</style>
<path class="st0" d="M52,150.3c-1.5-1-2.9-2-4.3-2.9L45,150c1.4,0.9,2.8,1.9,4.2,3L52,150.3z M75.8,162.9c-4.1-1.3-8-2.9-11.7-5
	L61,161c3.4,2.1,7,3.9,10.7,5.3c6.1,2.3,10.6,2.4,12.7,0.2c0.7-0.7,1.1-1.6,1.3-2.5C82.4,164.4,79,164,75.8,162.9 M85.5,116.7
	c-4.3-3.1-8.9-5.8-13.7-8.1c2.3,4.8,5,9.4,8,13.8L85.5,116.7z M109.1,129.3c-4-1.3-7.9-2.9-11.5-5l-7.5,7.5
	c3.4,2.1,6.9,3.8,10.6,5.3c6.1,2.3,10.5,2.4,12.6,0.2c1.4-1.4,1.9-3.7,1.4-6.9C112.8,130.2,110.9,129.8,109.1,129.3 M58.4,110
	c-0.7-1.9-1.3-3.8-1.6-5.8c-3.1-0.1-5.6,0.7-7.2,2.3c-0.9,0.9-1.5,2-1.8,3.1c3.2,0,6.3,0.6,9.2,1.8c0.8,0.3,1.6,0.6,2.4,1
	C59,111.6,58.6,110.8,58.4,110 M83.5,85.6C77,83.7,72.1,84,69.4,86.7c-1.8,1.7-2.5,4.4-2.3,7.9c1.8,0.4,3.5,0.9,5.2,1.5
	c5.9,2.4,11.4,5.4,16.6,9.1l11.4-11.4C95.1,90.3,89.4,87.6,83.5,85.6 M71.5,132.3l-12.9,12.9L30,173.9c1.8,1.2,3.7,2.4,5.6,3.8
	c1.4,1,2.8,2,4.2,2.9l28.9-28.9l9.5-9.5C76.3,139,74.1,135.7,71.5,132.3"/>
<path class="st0" d="M85.2,153.4c-2.3-6.2-6.8-13.8-13-22.1s-10.5-15.7-12.8-21.8c-2.3-6.1-2.3-10.6-0.2-12.7l7.3-7.3
	c-0.9,3-0.6,7,0.7,11.5c2,6.6,6.1,14.5,12,23s10,16.2,11.9,22.7s1.6,11.4-1.1,14.1l-3.3,3.3C87.4,161.4,86.8,157.7,85.2,153.4
	 M120.3,100.1l10.8-10.9l-8.2-8.2l-9,9C116.2,93.3,118.3,96.6,120.3,100.1"/>
<path class="st0" d="M100.7,103.2l-20.3,20.3c2.3,3.3,4.4,6.6,6.4,10.1l20.6-20.6C105.4,109.9,103.2,106.6,100.7,103.2"/>
<path class="st0" d="M114.2,124.2c1.6,4.3,2.2,7.9,1.6,10.7l7.8-7.8c2.7-2.7,3-7.6,1.1-14.1s-6-14.3-11.9-22.7
	c-0.6-0.8-1.2-1.7-1.7-2.5L99.4,99.6c0.6,0.9,1.2,1.7,1.9,2.6C107.4,110.4,111.9,118,114.2,124.2 M47.4,120.8
	c-1.3-4.5-1.7-8.5-0.7-11.5l-2.9,2.9c-2.2,2.1-2.1,6.6,0.2,12.7c2.4,6,5.6,11.7,9.3,16.9l2.9-2.9C52.5,133.3,49.6,127.2,47.4,120.8
	 M44.9,178.6c0-1,0.8-1.9,1.9-1.9c1,0,1.9,0.8,1.9,1.9c0,1-0.8,1.9-1.8,1.9C45.7,180.5,44.9,179.7,44.9,178.6 M45.1,178.6
	c0,0.9,0.7,1.6,1.6,1.6c0.9,0,1.6-0.7,1.6-1.6c0-0.9-0.7-1.6-1.6-1.6C45.8,177,45.1,177.7,45.1,178.6
	C45.1,178.7,45.1,178.7,45.1,178.6 M46.8,178.8h-0.4v0.9h-0.3v-2.1h0.8c0.3-0.1,0.7,0.1,0.7,0.5c0,0,0,0.1,0,0.1
	c0,0.3-0.2,0.5-0.4,0.6l0.4,0.9h-0.4L46.8,178.8z M46.4,177.9v0.6h0.4c0.3,0,0.4-0.1,0.4-0.3s-0.1-0.3-0.4-0.3L46.4,177.9
	L46.4,177.9z M212.4,157.6l3.6-10.3l3.5,10.3H212.4L212.4,157.6z M202.4,169.1h6.1l2.3-6.7H221l2.2,6.7h6.8l-10.7-30.3H213
	L202.4,169.1z M187.1,153.3v-8.9h4.5c4.1,0,5.7,1.6,5.7,4.4s-1.6,4.5-5.7,4.5H187.1z M180.5,169.1h6.6v-10.7h4.3
	c6,0,12.4-1.7,12.4-9.8c0-7.9-5.9-9.6-12.3-9.6h-11L180.5,169.1L180.5,169.1z M159.1,157.6l3.5-10.3h0.1l3.5,10.3H159.1z M149,169.1
	h6.1l2.3-6.7h10.3l2.3,6.7h6.7L166,138.9h-6.3L149,169.1z M130,157.6l3.5-10.3h0.1l3.5,10.3H130L130,157.6z M120,169.1h6.1l2.3-6.7
	h10.3l2.2,6.7h6.7L137,138.9h-6.3L120,169.1z"/>
</svg>
