<svg xmlns="http://www.w3.org/2000/svg" viewBox="0 0 200 99.54"><title>aapa</title><path d="M22 69.27q-2.19-1.51-4.33-2.87L15 69c1.38.94 2.78 1.95 4.2 3zm23.78 12.62a63 63 0 0 1-11.7-5L31 80a68.84 68.84 0 0 0 10.72 5.33c6.09 2.3 10.6 2.37 12.71.19A5.09 5.09 0 0 0 55.74 83a23.2 23.2 0 0 1-10-1.08m9.8-46.2a103.16 103.16 0 0 0-13.68-8.12 97.61 97.61 0 0 0 8 13.83zm23.59 12.57a62 62 0 0 1-11.54-5l-7.49 7.54a68 68 0 0 0 10.57 5.29c6.05 2.31 10.53 2.36 12.62.19 1.39-1.36 1.86-3.74 1.39-6.89a30.61 30.61 0 0 1-5.56-1.15M28.36 29a30.21 30.21 0 0 1-1.64-5.85c-3.11-.07-5.57.67-7.17 2.3a7.35 7.35 0 0 0-1.83 3.13 23.14 23.14 0 0 1 9.18 1.83c.79.3 1.61.64 2.44 1q-.54-1.24-1-2.41M53.46 4.61C47 2.69 42.05 3 39.4 5.7c-1.75 1.72-2.49 4.41-2.28 7.85a32.66 32.66 0 0 1 5.22 1.52 83.55 83.55 0 0 1 16.6 9.07L70.38 12.7a72.26 72.26 0 0 0-16.92-8.09M41.53 51.34L28.6 64.27 0 92.87q2.72 1.75 5.57 3.77 2.14 1.53 4.23 2.9l28.91-28.9 9.49-9.49c-1.91-3.12-4.14-6.41-6.67-9.81" fill="#003660"/><path d="M55.18 72.43c-2.34-6.23-6.82-13.85-13-22.07S31.71 34.65 29.42 28.58 27.07 18 29.24 15.87l7.31-7.31c-.93 3-.61 7 .73 11.51 2 6.61 6.12 14.54 12 23s10 16.23 11.92 22.68 1.59 11.41-1.1 14.07l-3.3 3.3c.63-2.76 0-6.42-1.62-10.69m35.08-53.34l10.85-10.86L92.87 0l-9 9a115.35 115.35 0 0 1 6.37 10.11" fill="#003660"/><path d="M70.65 22.22l-20.29 20.3a115.49 115.49 0 0 1 6.37 10.1L77.31 32c-1.91-3.12-4.14-6.41-6.66-9.81" fill="#003660"/><path d="M84.25 43.23c1.6 4.28 2.25 7.93 1.61 10.69l7.75-7.75c2.69-2.66 3-7.6 1.1-14.07s-6-14.31-11.91-22.68c-.6-.85-1.17-1.7-1.74-2.54L69.39 18.56c.62.86 1.25 1.73 1.9 2.61 6.13 8.22 10.61 15.84 13 22.07m-66.85-3.46c-1.34-4.52-1.66-8.46-.73-11.51l-2.9 2.9c-2.17 2.11-2.12 6.62.19 12.71a83.73 83.73 0 0 0 9.33 16.94l2.92-2.92a74.78 74.78 0 0 1-8.8-18.13M14.9 97.65a1.86 1.86 0 1 1 1.87 1.86 1.87 1.87 0 0 1-1.87-1.86m.22 0A1.64 1.64 0 1 0 16.76 96a1.65 1.65 0 0 0-1.65 1.66m1.71.16h-.41v.86h-.33v-2.06h.76a.61.61 0 0 1 .74.6.55.55 0 0 1-.41.55l.44.91h-.37zm-.41-.9v.61h.4c.26 0 .42-.08.42-.32s-.15-.3-.41-.3h-.41zm166-20.32L186 66.34l3.46 10.26h-7.09zm-10.06 11.53h6.11l2.32-6.72H191l2.24 6.72H200l-10.67-30.26H183zm-15.27-15.84v-8.88h4.52c4.15 0 5.66 1.59 5.66 4.4s-1.55 4.48-5.66 4.48h-4.52zm-6.6 15.84h6.6V77.42h4.28c6 0 12.38-1.67 12.38-9.77 0-7.94-5.86-9.65-12.3-9.65h-11v30.13zM129.1 76.6l3.54-10.26h.08l3.46 10.26h-7.08zM119 88.13h6.11l2.32-6.72h10.26l2.31 6.72h6.72L136 57.87h-6.31zm-19-11.52l3.54-10.26h.08l3.46 10.26h-7.09zM90 88.13h6.11l2.32-6.72h10.27l2.24 6.72h6.72L107 57.87h-6.31z" fill="#003660"/></svg>