<?xml version="1.0" encoding="utf-8"?>
<!-- Generator: Adobe Illustrator 22.0.1, SVG Export Plug-In . SVG Version: 6.00 Build 0)  -->
<svg version="1.1" id="Layer_1" xmlns="http://www.w3.org/2000/svg" xmlns:xlink="http://www.w3.org/1999/xlink" x="0px" y="0px"
	 viewBox="0 0 278.7 112.4" style="enable-background:new 0 0 278.7 112.4;" xml:space="preserve">
<style type="text/css">
	.st0{fill:#007BC3;}
	.st1{fill:#562700;}
	.st2{fill:#00B8BA;}
	.st3{fill:#56B146;}
	.st4{fill:#FDB913;}
	.st5{fill:#B81237;}
	.st6{fill:none;}
</style>
<title>Artboard 1</title>
<path class="st0" d="M86.7,111.9l0.5-0.2c0.6-0.2,0.5-0.4,0.7-1.3l1-5.6c0.1-0.2,0.1-0.5,0.1-0.7c0-0.3-0.1-0.3-0.6-0.5l-0.5-0.2
	v-0.3h6.2l0.1,0.1l-0.4,2h-0.3l-0.4-0.9c-0.2-0.7-0.4-0.7-1.6-0.7s-1.5,0-1.6,0.6l-0.5,2.7c0,0.1,0,0.2,0,0.3c0,0.2,0.2,0.2,0.3,0.2
	H91c0.5,0,0.5,0,0.8-0.4l0.5-0.7h0.3L92,109h-0.3l-0.2-0.7c-0.1-0.4-0.2-0.4-0.7-0.4h-0.9c-0.4,0-0.4,0-0.5,0.4l-0.3,1.8
	c-0.1,0.4-0.1,0.7-0.2,1.1c0,0.2,0.3,0.3,0.5,0.4l0.8,0.3l-0.1,0.3h-3.5L86.7,111.9z"/>
<path class="st0" d="M93.6,110.1c0-2.4,1.3-4.7,4-4.7c1.4,0,2.1,0.8,2.1,2.3s-0.8,4.7-4,4.7c-1.1,0.1-2.1-0.8-2.1-1.9
	C93.6,110.3,93.6,110.2,93.6,110.1z M96.2,111.8c1.8,0,2.4-2.5,2.4-4.1c0-1.1-0.4-1.8-1.4-1.8c-2,0-2.5,2.8-2.5,4.1
	S95,111.8,96.2,111.8z"/>
<path class="st0" d="M102.4,112c-0.3,0.1-0.7,0.2-1,0.2c-0.2,0-0.4-0.3-0.4-0.5c0-0.1,0-0.2,0-0.3l1-3.9c0.1-0.3,0.1-0.5,0.1-0.8
	c0-0.3-0.2-0.5-0.5-0.5c0,0-0.1,0-0.1,0c-0.2,0-0.5,0-0.7,0.1l0.1-0.4c0.4-0.2,0.9-0.4,1.4-0.5c0.2,0,0.4,0.1,0.5,0.3
	c0.1,0.2,0.2,0.3,0.3,0.3c0.3,0,0.5-0.1,0.7-0.3c0.4-0.2,0.8-0.3,1.2-0.3c0.2,0,0.4,0.1,0.5,0.2c0.1,0.1,0.1,0.3,0.1,0.4
	c0,0.1-0.1,0.2-0.1,0.3l-0.3,0.6h-0.2c-0.1-0.4-0.4-0.7-0.9-0.8c-0.7,0-1.1,0.6-1.4,1.7l-0.7,2.7c-0.1,0.2-0.1,0.5-0.2,0.7
	c0,0.4,0.2,0.5,0.3,0.5L102.4,112z"/>
<path class="st0" d="M112.7,107.2c-0.1-0.4-0.3-1.3-1.2-1.3c-0.5-0.1-1,0.3-1.1,0.9c0,0,0,0.1,0,0.1c0,0.9,1,1.3,1.7,1.9
	c0.5,0.4,0.8,0.7,0.8,1.3c-0.1,1.3-1.2,2.3-2.5,2.2c0,0,0,0-0.1,0c-0.6,0-1.1-0.2-1.5-0.6c-0.1-0.2-0.1-0.3-0.1-0.5
	c0-0.1,0-0.2,0.1-0.3l0.4-0.8h0.2c0,0.9,0.7,1.6,1.6,1.7c0.6,0,1.1-0.5,1.1-1.1c0,0,0,0,0,0c0-1.6-2.4-1.7-2.4-3.3
	c0.1-1.3,1.3-2.1,2.5-2c0,0,0,0,0,0c0.4,0,0.8,0.1,1.2,0.4c0.1,0.1,0.2,0.3,0.2,0.5c0,0.1,0,0.2-0.1,0.3l-0.3,0.7L112.7,107.2z"/>
<path class="st0" d="M119,111.4c-0.8,0.6-1.8,1-2.8,1c-1,0-1.8-0.7-1.8-1.7c0-0.1,0-0.2,0-0.3c0-1.3,0.3-2.5,1-3.6
	c0.7-0.9,1.7-1.4,2.8-1.4c0.5,0,0.9,0.1,1.3,0.4c0.1,0.1,0.1,0.3,0.1,0.4c0,0.1,0,0.2-0.1,0.3l-0.4,0.9h-0.2c0-0.4-0.1-1.6-1.2-1.6
	c-1.4,0-2.2,2.6-2.2,4c0,1.1,0.4,1.7,1.4,1.7c0.8-0.1,1.5-0.3,2.2-0.8L119,111.4z"/>
<path class="st0" d="M123.5,111.5c-0.5,0.4-1.2,0.7-1.8,0.8c-0.6,0-1.1-0.5-1.1-1.1c0-0.5,0.2-1.1,0.3-1.6l0.6-2
	c0.1-0.3,0.2-0.7,0.2-1c0-0.5-0.6-0.4-1.2-0.5l0.1-0.3c0.7-0.2,1.3-0.4,2-0.5c0.1,0,0.4,0.3,0.4,0.4c-0.2,0.8-0.4,1.6-0.6,2.4
	l-0.4,1.3c-0.1,0.4-0.2,0.9-0.3,1.3c0,0.6,0.4,0.8,0.6,0.8c0.5,0,0.9-0.2,1.3-0.5L123.5,111.5z M122.2,103.5c0-0.4,0.3-0.6,0.7-0.6
	c0,0,0,0,0,0c0.4,0,0.6,0.2,0.6,0.6c0,0.4-0.3,0.7-0.6,0.7c0,0,0,0-0.1,0c-0.3,0-0.6-0.2-0.6-0.5
	C122.2,103.6,122.2,103.5,122.2,103.5L122.2,103.5z"/>
<path class="st0" d="M129.4,111.4c-0.9,0.6-1.9,0.9-3,1c-1.2,0-1.9-0.7-1.9-2c0-2.1,1.3-4.9,3.9-4.9c0.9,0,1.6,0.4,1.6,1.3
	c0,0.5-0.2,1-0.6,1.3c-0.6,0.4-1.3,0.7-2,0.8l-0.8,0.2c-0.3,0-0.7,0.1-1,0.3c-0.1,0.1-0.1,0.2-0.1,0.7c0,1,0.2,1.8,1.4,1.8
	c0.8-0.1,1.7-0.3,2.4-0.7L129.4,111.4z M127.4,108.4c0.8-0.2,1.6-0.5,1.6-1.4c0-0.6-0.4-1-0.9-1.1c0,0,0,0-0.1,0
	c-1.8,0-2.2,2.5-2.2,2.6c0,0.1,0.1,0.1,0.1,0.2c0.2,0,0.4,0,0.6-0.1L127.4,108.4z"/>
<path class="st0" d="M132.3,110.5c-0.1,0.3-0.1,0.5-0.2,0.8c0,0.2,0.1,0.4,0.3,0.5v0.2c-0.3,0.1-0.6,0.2-0.9,0.2
	c-0.2-0.1-0.4-0.3-0.4-0.6c0-0.1,0-0.1,0-0.2l1.1-3.9c0.1-0.3,0.1-0.5,0.1-0.8c0-0.3-0.2-0.5-0.5-0.5c0,0-0.1,0-0.1,0
	c-0.2,0-0.5,0-0.7,0.1l0.1-0.4c0.5-0.2,1-0.4,1.5-0.5c0.4,0,0.5,0.6,0.8,0.6c0.8-0.2,1.5-0.4,2.3-0.6c1.2,0,1.3,0.5,1.3,1
	c0,0.3-0.1,0.5-0.2,0.8l-0.7,2.9c-0.1,0.2-0.1,0.5-0.1,0.8c0,0.5,0.3,0.7,0.6,0.7c0.5-0.1,1-0.3,1.4-0.5l-0.1,0.4
	c-0.5,0.5-1.2,0.8-1.8,0.9c-0.6,0-1.1-0.4-1.1-1c0,0,0,0,0,0c0-0.2,0.1-0.5,0.1-0.7l0.7-3c0.1-0.2,0.1-0.5,0.1-0.8
	c0-0.3-0.2-0.8-1-0.8c-1.1,0-1.8,0.6-2.1,2L132.3,110.5z"/>
<path class="st0" d="M143.6,111.4c-0.8,0.6-1.8,1-2.8,1c-1,0-1.8-0.7-1.8-1.7c0-0.1,0-0.2,0-0.3c0-1.3,0.3-2.5,1-3.6
	c0.7-0.9,1.7-1.5,2.9-1.4c0.5,0,0.9,0.1,1.3,0.4c0.1,0.1,0.1,0.3,0.1,0.4c0,0.1-0.1,0.2-0.1,0.3l-0.4,0.9h-0.2
	c0-0.4-0.1-1.6-1.2-1.6c-1.4,0-2.2,2.6-2.2,4c0,1.1,0.4,1.7,1.4,1.7c0.8-0.1,1.5-0.3,2.2-0.8L143.6,111.4z"/>
<path class="st0" d="M149.7,111.4c-0.9,0.6-1.9,0.9-3,1c-1.2,0-1.9-0.7-1.9-2c0-2.1,1.3-4.9,3.9-4.9c0.9,0,1.6,0.4,1.6,1.3
	c0,0.5-0.2,1-0.6,1.3c-0.6,0.4-1.3,0.7-2,0.8L147,109c-0.3,0-0.7,0.1-1,0.3c-0.1,0.1-0.1,0.2-0.1,0.7c0,1,0.2,1.8,1.4,1.8
	c0.8-0.1,1.6-0.3,2.4-0.7L149.7,111.4z M147.7,108.4c0.8-0.2,1.6-0.5,1.6-1.4c0-0.6-0.4-1-0.9-1.1c0,0,0,0-0.1,0
	c-1.8,0-2.2,2.5-2.2,2.6c0,0.1,0.1,0.1,0.1,0.2c0.2,0,0.4,0,0.6-0.1L147.7,108.4z"/>
<path class="st0" d="M150.4,111.7c0-0.4,0.3-0.7,0.7-0.7c0,0,0,0,0.1,0c0.3,0,0.6,0.2,0.7,0.5c0,0,0,0.1,0,0.1
	c0,0.4-0.3,0.7-0.7,0.7c0,0,0,0,0,0C150.7,112.3,150.4,112.1,150.4,111.7C150.4,111.7,150.4,111.7,150.4,111.7z"/>
<path class="st0" d="M155.2,111.9l0.5-0.2c0.6-0.2,0.6-0.4,0.7-1.3l1-5.6c0.1-0.2,0.1-0.5,0.1-0.7c0-0.3-0.1-0.3-0.6-0.5l-0.5-0.2
	v-0.3h6.2l0.1,0.1l-0.4,2h-0.3l-0.4-0.9c-0.3-0.7-0.4-0.7-1.6-0.7s-1.5,0-1.6,0.6l-0.5,2.7c0,0.1,0,0.2,0,0.3c0,0.2,0.1,0.2,0.3,0.2
	h1.1c0.5,0,0.5,0,0.8-0.4l0.5-0.7h0.3l-0.5,2.8h-0.3l-0.2-0.7c-0.1-0.4-0.2-0.4-0.7-0.4h-1c-0.4,0-0.4,0-0.5,0.4l-0.3,1.8
	c-0.1,0.4-0.1,0.8-0.2,1.1c0,0.2,0.3,0.3,0.5,0.4l0.8,0.3l-0.1,0.3h-3.5L155.2,111.9z"/>
<path class="st0" d="M162.1,110.1c0-2.4,1.3-4.7,4-4.7c1.4,0,2.1,0.8,2.1,2.3s-0.8,4.7-4,4.7c-1.1,0.1-2-0.8-2.1-1.9
	C162,110.3,162,110.2,162.1,110.1z M164.7,111.8c1.8,0,2.4-2.5,2.4-4.1c0-1.1-0.4-1.8-1.4-1.8c-2,0-2.5,2.8-2.5,4.1
	S163.5,111.8,164.7,111.8z"/>
<path class="st0" d="M170.9,112c-0.3,0.1-0.7,0.2-1,0.2c-0.2,0-0.4-0.3-0.4-0.5c0-0.1,0-0.2,0-0.3l1-3.9c0.1-0.3,0.1-0.5,0.1-0.8
	c0-0.3-0.2-0.5-0.5-0.5c0,0-0.1,0-0.1,0c-0.2,0-0.5,0-0.7,0.1l0.1-0.4c0.4-0.2,0.9-0.4,1.4-0.5c0.2,0,0.4,0.1,0.5,0.3
	c0.1,0.2,0.2,0.3,0.4,0.3c0.3,0,0.5-0.1,0.7-0.3c0.4-0.2,0.8-0.3,1.2-0.3c0.2,0,0.4,0.1,0.5,0.2c0.1,0.1,0.1,0.3,0.1,0.4
	c0,0.1-0.1,0.2-0.1,0.3l-0.3,0.6h-0.2c-0.1-0.4-0.4-0.8-0.9-0.8c-0.7,0-1.1,0.6-1.4,1.7l-0.7,2.7c-0.1,0.2-0.1,0.5-0.1,0.7
	c0,0.4,0.1,0.5,0.3,0.5L170.9,112z"/>
<path class="st0" d="M183.9,111.5c-0.5,0.4-1.1,0.7-1.8,0.8c-0.5,0-0.8-0.6-1.1-0.6c-0.8,0.3-1.6,0.5-2.4,0.6c-1,0-1.5-0.5-1.5-1.8
	s0.9-5.1,4.1-5.1c0.2,0,0.5,0,0.7,0.1c0.1,0.1,0.3,0.1,0.4,0.1c0.1,0,0.2-0.1,0.3-0.1l0.4-0.2l0.1,0.1c0,0.2-0.4,1.3-0.6,2.3
	l-0.4,1.9c-0.1,0.4-0.2,0.7-0.2,1.1c0,0.6,0.3,0.8,0.6,0.8c0.5,0,0.9-0.2,1.3-0.4L183.9,111.5z M181.6,108.1
	c0.1-0.4,0.2-0.9,0.2-1.3c0-0.5-0.4-0.9-0.9-0.9c0,0,0,0-0.1,0c-2.1,0-2.7,3.3-2.7,4.5c0,0.9,0.3,1.4,1.1,1.4c0.6,0,1.1-0.3,1.4-0.7
	c0.3-0.5,0.5-1.1,0.6-1.8L181.6,108.1z"/>
<path class="st0" d="M189.2,111.4c-0.8,0.6-1.8,1-2.8,1c-1,0-1.8-0.7-1.8-1.7c0-0.1,0-0.2,0-0.3c0-1.3,0.3-2.5,1-3.6
	c0.7-0.9,1.7-1.4,2.8-1.4c0.5,0,0.9,0.1,1.3,0.4c0.1,0.1,0.1,0.3,0.1,0.4c0,0.1,0,0.2-0.1,0.3l-0.4,0.9H189c0-0.4-0.1-1.6-1.2-1.6
	c-1.4,0-2.2,2.6-2.2,4c0,1.1,0.4,1.7,1.4,1.7c0.8-0.1,1.5-0.3,2.2-0.8L189.2,111.4z"/>
<path class="st0" d="M193.7,111.6c-0.6,0.4-1.3,0.7-2,0.8c-0.5,0-1-0.3-1-0.9c0,0,0-0.1,0-0.1c0-0.3,0.1-0.6,0.2-1l0.8-3.7
	c0-0.1,0-0.2,0.1-0.3c0-0.1-0.1-0.2-0.4-0.2l-0.7-0.1v-0.3l0.7-0.1c0.4-0.1,0.5-0.1,0.6-0.5l0.6-1.3h0.3v1.3c0,0.1,0,0.2,0,0.2
	c0,0.2,0.2,0.2,0.4,0.3l1.1,0.2v0.3l-1.2,0.2c-0.4,0.1-0.5,0.2-0.6,0.6l-0.6,2.7c-0.1,0.4-0.2,0.9-0.2,1.3c0,0.6,0.3,0.8,0.8,0.8
	c0.4,0,0.8-0.2,1.2-0.4L193.7,111.6z"/>
<path class="st0" d="M198.3,111.5c-0.5,0.4-1.2,0.7-1.8,0.8c-0.6,0-1.1-0.5-1.1-1.1c0-0.5,0.2-1.1,0.3-1.6l0.6-2
	c0.1-0.3,0.2-0.7,0.2-1c0-0.5-0.6-0.4-1.2-0.5v-0.3c0.7-0.2,1.3-0.4,2-0.5c0.2,0.1,0.3,0.2,0.4,0.4c0,0.3-0.4,1.4-0.6,2.4l-0.4,1.3
	c-0.1,0.4-0.2,0.9-0.3,1.3c0,0.6,0.4,0.8,0.6,0.8c0.5,0,0.9-0.2,1.3-0.5L198.3,111.5z M197,103.5c0-0.4,0.3-0.6,0.7-0.6c0,0,0,0,0,0
	c0.4,0,0.6,0.2,0.6,0.6c0,0.4-0.3,0.7-0.6,0.7c0,0,0,0-0.1,0c-0.3,0-0.6-0.2-0.6-0.5C197,103.6,197,103.5,197,103.5L197,103.5z"/>
<path class="st0" d="M199.2,110.1c0-2.4,1.3-4.7,3.9-4.7c1.4,0,2.1,0.8,2.1,2.3s-0.8,4.7-4,4.7c-1.1,0.1-2-0.7-2.1-1.8
	C199.1,110.4,199.1,110.3,199.2,110.1z M201.8,111.8c1.8,0,2.4-2.5,2.4-4.1c0-1.1-0.4-1.8-1.4-1.8c-2,0-2.5,2.8-2.5,4.1
	S200.6,111.8,201.8,111.8z"/>
<path class="st0" d="M207.5,110.5c-0.1,0.3-0.2,0.5-0.2,0.8c0,0.2,0.1,0.4,0.3,0.5v0.2c-0.3,0.1-0.6,0.2-0.9,0.2
	c-0.2-0.1-0.4-0.3-0.4-0.6c0-0.1,0-0.1,0-0.2l1.1-3.9c0.1-0.3,0.1-0.5,0.1-0.8c0-0.3-0.2-0.5-0.5-0.5c0,0-0.1,0-0.1,0
	c-0.2,0-0.5,0-0.7,0.1l0.1-0.4c0.5-0.3,1-0.4,1.5-0.5c0.4,0,0.5,0.6,0.8,0.6c0.8-0.2,1.6-0.4,2.4-0.6c1.2,0,1.3,0.5,1.3,1
	c0,0.3-0.1,0.5-0.2,0.8l-0.7,2.9c0,0.2-0.1,0.5-0.1,0.8c0,0.5,0.3,0.7,0.6,0.7c0.5-0.1,1-0.3,1.4-0.5l-0.1,0.4
	c-0.5,0.5-1.2,0.8-1.8,0.9c-0.6,0-1.1-0.4-1.1-1c0,0,0,0,0,0c0-0.2,0.1-0.5,0.1-0.7l0.7-3c0.1-0.2,0.1-0.5,0.1-0.8
	c0-0.3-0.2-0.8-1-0.8c-1.1,0-1.8,0.6-2.1,2L207.5,110.5z"/>
<path class="st0" d="M214.1,111.7c0-0.4,0.3-0.7,0.7-0.7c0,0,0,0,0.1,0c0.3,0,0.6,0.2,0.7,0.5c0,0,0,0.1,0,0.1
	c0,0.4-0.3,0.7-0.7,0.7c0,0,0,0,0,0C214.5,112.3,214.2,112.1,214.1,111.7C214.1,111.7,214.1,111.7,214.1,111.7z"/>
<path class="st0" d="M218.1,111.9l0.5-0.2c0.6-0.2,0.5-0.4,0.7-1.3l1.1-5.6c0.1-0.2,0.1-0.5,0.1-0.7c0-0.3-0.1-0.3-0.6-0.5l-0.5-0.2
	v-0.3h6.2l0.1,0.1l-0.4,2h-0.3l-0.4-0.9c-0.3-0.7-0.4-0.7-1.6-0.7s-1.5,0-1.6,0.6l-0.5,2.7c0,0.1,0,0.2,0,0.3c0,0.2,0.1,0.2,0.3,0.2
	h1.1c0.5,0,0.5,0,0.8-0.4l0.5-0.7h0.3l-0.5,2.8h-0.3l-0.2-0.7c-0.1-0.4-0.2-0.4-0.7-0.4h-1c-0.4,0-0.4,0-0.5,0.4l-0.3,1.8
	c-0.1,0.4-0.1,0.8-0.2,1.1c0,0.2,0.3,0.3,0.5,0.4l0.8,0.3l-0.1,0.3h-3.5L218.1,111.9z"/>
<path class="st0" d="M225,110.1c0-2.4,1.3-4.7,3.9-4.7c1.4,0,2.1,0.8,2.1,2.3s-0.8,4.7-3.9,4.7c-1.1,0.1-2-0.7-2.1-1.7
	C225,110.4,225,110.3,225,110.1z M227.6,111.8c1.8,0,2.4-2.5,2.4-4.1c0-1.1-0.4-1.8-1.4-1.8c-2,0-2.5,2.8-2.5,4.1
	S226.5,111.8,227.6,111.8z"/>
<path class="st0" d="M233.8,112c-0.3,0.1-0.7,0.2-1,0.2c-0.2,0-0.4-0.3-0.4-0.5c0-0.1,0-0.2,0-0.3l1-3.9c0.1-0.3,0.1-0.5,0.1-0.8
	c0-0.3-0.2-0.5-0.5-0.5c0,0-0.1,0-0.1,0c-0.2,0-0.5,0-0.7,0.1l0.1-0.4c0.5-0.3,1-0.5,1.5-0.5c0.2,0,0.4,0.1,0.5,0.3
	c0.1,0.2,0.2,0.3,0.4,0.3c0.3,0,0.5-0.1,0.7-0.3c0.4-0.2,0.8-0.3,1.2-0.3c0.2,0,0.4,0.1,0.5,0.2c0.1,0.1,0.1,0.3,0.1,0.4
	c0,0.1-0.1,0.2-0.1,0.3l-0.3,0.6h-0.2c-0.1-0.4-0.4-0.7-0.9-0.8c-0.7,0-1.1,0.6-1.4,1.7l-0.7,2.7c-0.1,0.2-0.1,0.5-0.1,0.7
	c0,0.4,0.1,0.5,0.3,0.5L233.8,112z"/>
<path class="st0" d="M240.9,112c-0.3,0.1-0.6,0.2-0.9,0.2c-0.2-0.1-0.4-0.3-0.4-0.6c0-0.1,0-0.1,0-0.2l1.4-5.7
	c0.2-0.7,0.3-1.5,0.4-2.2c0-0.2,0-0.3-0.4-0.3l-0.6-0.1v-0.2c0.8-0.2,1.6-0.5,1.9-0.5c0.1,0,0.3,0.1,0.3,0.2c0,0.1,0,0.2-0.1,0.3
	l-0.7,2.7c0,0.1,0,0.2,0,0.3c0,0.1,0,0.1,0.1,0.1c0,0,0,0,0,0c0.7-0.3,1.5-0.5,2.3-0.6c0.7,0,1.2,0.3,1.2,0.8c0,0.3-0.1,0.7-0.2,1
	l-0.6,2.6c-0.1,0.4-0.2,0.8-0.2,1.2c0,0.4,0.4,0.6,0.7,0.6c0.5-0.1,0.9-0.2,1.3-0.5l-0.1,0.3c-0.5,0.5-1.2,0.8-1.8,0.8
	c-0.6,0-1.1-0.4-1.1-1c0-0.3,0.1-0.6,0.2-0.9l0.7-2.8c0.1-0.3,0.1-0.5,0.1-0.8c0-0.4-0.3-0.8-0.9-0.8c-1.1-0.1-2.1,0.8-2.2,1.9
	l-0.7,2.7c-0.1,0.3-0.1,0.5-0.1,0.8C240.6,111.6,240.7,111.8,240.9,112L240.9,112z"/>
<path class="st0" d="M252.2,111.4c-0.9,0.6-1.9,0.9-3,1c-1.2,0-1.9-0.7-1.9-2c0-2.1,1.3-4.9,3.9-4.9c0.9,0,1.6,0.4,1.6,1.3
	c0,0.5-0.2,1-0.6,1.3c-0.6,0.4-1.3,0.7-2,0.8l-0.8,0.2c-0.3,0-0.7,0.1-1,0.3c-0.1,0.1-0.1,0.2-0.1,0.7c0,1,0.2,1.8,1.4,1.8
	c0.8-0.1,1.6-0.3,2.4-0.7L252.2,111.4z M250.2,108.4c0.8-0.2,1.6-0.5,1.6-1.4c0-0.6-0.4-1-0.9-1.1c0,0,0,0-0.1,0
	c-1.8,0-2.2,2.5-2.2,2.6c0,0.1,0.1,0.1,0.1,0.2c0.2,0,0.4,0,0.6-0.1L250.2,108.4z"/>
<path class="st0" d="M260.3,111.5c-0.5,0.4-1.1,0.7-1.8,0.8c-0.5,0-0.8-0.6-1.1-0.6c-0.8,0.3-1.6,0.5-2.4,0.6c-1,0-1.5-0.5-1.5-1.8
	s0.9-5.1,4.1-5.1c0.2,0,0.5,0,0.7,0.1c0.1,0.1,0.3,0.1,0.4,0.1c0.1,0,0.2-0.1,0.3-0.1l0.4-0.2l0.1,0.1c0,0.2-0.4,1.3-0.6,2.3
	l-0.4,1.9c-0.1,0.4-0.2,0.7-0.2,1.1c0,0.6,0.3,0.8,0.6,0.8c0.5,0,0.9-0.2,1.3-0.4L260.3,111.5z M258.1,108.1
	c0.1-0.4,0.2-0.9,0.2-1.3c0-0.5-0.4-0.9-0.9-0.9c0,0,0,0-0.1,0c-2.1,0-2.7,3.3-2.7,4.5c0,0.9,0.3,1.4,1.1,1.4c0.6,0,1.1-0.3,1.4-0.7
	c0.3-0.5,0.5-1.1,0.6-1.8L258.1,108.1z"/>
<path class="st0" d="M264.3,111.4c-0.5,0.5-1.2,0.9-1.9,1c-0.6,0-1.1-0.5-1.1-1.1c0,0,0-0.1,0-0.1c0-0.2,0.1-0.3,0.1-0.5l1.1-5
	c0.2-0.7,0.4-1.4,0.5-2.1c0-0.2,0-0.3-0.4-0.3l-0.6-0.1v-0.2c0.8-0.2,1.6-0.5,1.9-0.5c0.1,0,0.3,0.1,0.3,0.2c0,0.1,0,0.2-0.1,0.3
	l-1.5,6.2c-0.2,0.6-0.3,1.1-0.3,1.7c0,0.5,0.2,0.8,0.6,0.8c0.5-0.1,1-0.3,1.4-0.6L264.3,111.4z"/>
<path class="st0" d="M268.3,111.6c-0.6,0.4-1.3,0.7-2,0.8c-0.5,0-1-0.3-1-0.8c0-0.1,0-0.1,0-0.2c0-0.3,0.1-0.6,0.1-0.9l0.8-3.7
	c0-0.1,0.1-0.2,0.1-0.3c0-0.1-0.1-0.2-0.4-0.2l-0.7-0.1v-0.3l0.7-0.1c0.5-0.1,0.5-0.1,0.6-0.5l0.6-1.3h0.3v1.3c0,0.1,0,0.2,0,0.2
	c0,0.2,0.2,0.2,0.4,0.3l1.1,0.2v0.3l-1.2,0.2c-0.3,0-0.6,0.3-0.6,0.6l-0.6,2.7c-0.1,0.4-0.2,0.9-0.2,1.3c0,0.6,0.3,0.8,0.8,0.8
	c0.4,0,0.8-0.2,1.2-0.4L268.3,111.6z"/>
<path class="st0" d="M271.1,112c-0.3,0.1-0.6,0.2-0.9,0.2c-0.2-0.1-0.4-0.3-0.4-0.6c0-0.1,0-0.1,0-0.2l1.4-5.7
	c0.2-0.7,0.3-1.5,0.4-2.2c0-0.2,0-0.3-0.4-0.3l-0.6-0.1v-0.2c0.8-0.2,1.6-0.5,1.9-0.5c0.1,0,0.3,0.1,0.3,0.2c0,0.1,0,0.2,0,0.3
	l-0.7,2.7c0,0.1,0,0.2,0,0.3c0,0.1,0,0.1,0.1,0.1c0,0,0,0,0,0c0.7-0.3,1.5-0.5,2.3-0.6c0.7,0,1.2,0.3,1.2,0.8c0,0.3-0.1,0.7-0.2,1
	l-0.6,2.6c-0.1,0.4-0.2,0.8-0.2,1.2c0,0.4,0.4,0.6,0.7,0.6c0.5-0.1,0.9-0.2,1.3-0.5l-0.1,0.3c-0.5,0.5-1.2,0.8-1.8,0.8
	c-0.6,0-1.1-0.4-1.1-1c0-0.3,0.1-0.7,0.2-1l0.7-2.8c0.1-0.3,0.1-0.5,0.1-0.8c0-0.4-0.3-0.8-0.9-0.8c-1.1-0.1-2.1,0.8-2.2,1.9
	l-0.7,2.7c-0.1,0.3-0.1,0.5-0.1,0.8c0,0.2,0.1,0.4,0.3,0.5L271.1,112z"/>
<path class="st0" d="M277.3,111.7c0-0.4,0.3-0.7,0.7-0.7c0,0,0,0,0.1,0c0.3,0,0.6,0.2,0.7,0.5c0,0,0,0.1,0,0.1
	c0,0.4-0.3,0.7-0.7,0.7c0,0,0,0,0,0C277.6,112.3,277.3,112.1,277.3,111.7C277.3,111.7,277.3,111.7,277.3,111.7z"/>
<path class="st0" d="M5.5,83.5h1.4l3.8,9H9.3l-0.9-2.3H3.9L3,92.5H1.7L5.5,83.5z M6.2,84.8l-1.8,4.5h3.6L6.2,84.8z"/>
<path class="st0" d="M12.4,83.5h2.1l2.8,7.5l2.8-7.5h2.1v9h-1.3v-7.8l0,0l-3,7.8h-1.3l-3-7.8l0,0v7.8h-1.3V83.5z"/>
<path class="st0" d="M25.8,83.5h5v1.1H27v2.6h3.4v1.1H27v3h3.8v1.1h-5L25.8,83.5z"/>
<path class="st0" d="M33.9,83.5h2.2c1.8,0,3.5,0.3,3.5,2.4c0,1-0.8,1.9-1.9,2l0,0c0.4,0.2,0.7,0.5,0.9,0.9l1.7,3.6h-1.5l-1.4-3.1
	c-0.4-0.9-0.8-0.9-1.5-0.9h-0.8v4h-1.3V83.5z M35.2,87.4h1.1c1.2,0,1.9-0.6,1.9-1.4s-0.6-1.3-1.8-1.3h-1.2V87.4z"/>
<path class="st0" d="M43,83.5h1.3v9H43V83.5z"/>
<path class="st0" d="M53.5,85c-0.6-0.3-1.2-0.5-1.9-0.5c-1.9,0.2-3.3,1.9-3.2,3.8c0.2,1.6,1.5,3,3.1,3.2c0.7,0,1.4-0.1,2-0.4l0,1.3
	c-0.6,0.2-1.3,0.3-2,0.3c-2.4,0.2-4.6-1.7-4.7-4.1c0-0.2,0-0.4,0-0.6c-0.1-2.5,1.9-4.6,4.3-4.6c0.1,0,0.2,0,0.4,0
	c0.7,0,1.4,0.1,2,0.4L53.5,85z"/>
<path class="st0" d="M58.6,83.5H60l3.8,9h-1.4l-0.9-2.3h-4.4l-0.9,2.3h-1.4L58.6,83.5z M59.3,84.8l-1.8,4.5h3.6L59.3,84.8z"/>
<path class="st0" d="M66.2,83.5H68l4,7.2l0,0v-7.2h1.3v9h-1.7l-4.1-7.4l0,0v7.4h-1.3V83.5z"/>
<path class="st0" d="M79.9,83.5h2.4c1.8,0,3.4,0.6,3.4,2.7s-1.6,2.7-3.2,2.7h-1.3v3.6h-1.2V83.5z M81.2,87.8h1.3
	c0.9,0.1,1.7-0.5,1.8-1.4c0-0.1,0-0.1,0-0.2c0-1.1-1.2-1.6-2-1.6h-1.1L81.2,87.8z"/>
<path class="st0" d="M95,88.8c0,2.5-1.3,3.9-3.5,3.9S88,91.4,88,88.8v-5.3h1.3v5.1c0,1.7,0.5,2.9,2.2,2.9s2.2-1.2,2.2-2.9v-5.1H95
	V88.8z"/>
<path class="st0" d="M97.6,83.5h2.4c1.9,0,3.2,0.6,3.2,2.3c0,1.1-0.8,2-1.9,2.1l0,0c1.2,0,2.1,1,2.1,2.1c0,0,0,0,0,0
	c0,1.9-1.6,2.4-3.4,2.4h-2.4V83.5z M98.9,87.4h0.7c1.2,0,2.3-0.1,2.3-1.4c0-1.1-0.9-1.3-1.7-1.3h-1.3V87.4z M98.9,91.5h1
	c1.2,0,2.2-0.2,2.2-1.5c0-1.4-1.2-1.6-2.3-1.6h-0.9V91.5z"/>
<path class="st0" d="M106.2,83.5h1.3v7.8h3.8v1.1h-5.1V83.5z"/>
<path class="st0" d="M113.5,83.5h1.3v9h-1.3L113.5,83.5z"/>
<path class="st0" d="M124.2,85c-0.6-0.3-1.2-0.5-1.9-0.5c-1.9,0.2-3.4,1.9-3.2,3.8c0.2,1.7,1.4,3,3.1,3.2c0.7,0,1.4-0.1,2-0.4
	l0.1,1.2c-0.6,0.2-1.3,0.3-2,0.3c-2.4,0.2-4.6-1.7-4.7-4.1c0-0.2,0-0.4,0-0.6c-0.1-2.5,1.9-4.5,4.4-4.6c0.1,0,0.2,0,0.3,0
	c0.7,0,1.4,0.1,2,0.4L124.2,85z"/>
<path class="st0" d="M130.3,83.5h1.3v3.8h4.3v-3.8h1.3v9h-1.3v-4.1h-4.3v4.1h-1.3L130.3,83.5z"/>
<path class="st0" d="M140.8,83.5h5v1.1h-3.7v2.6h3.4v1.1h-3.4v3h3.8v1.1h-5L140.8,83.5z"/>
<path class="st0" d="M151.4,83.5h1.4l3.8,9h-1.4l-0.9-2.3h-4.4l-0.9,2.3h-1.4L151.4,83.5z M152,84.8l-1.8,4.5h3.6L152,84.8z"/>
<path class="st0" d="M158.7,83.5h1.3v7.8h3.8v1.1h-5.1L158.7,83.5z"/>
<path class="st0" d="M166.7,84.7h-2.8v-1.1h6.9v1.1H168v7.9h-1.3L166.7,84.7z"/>
<path class="st0" d="M172.7,83.5h1.3v3.8h4.3v-3.8h1.3v9h-1.3v-4.1H174v4.1h-1.3V83.5z"/>
<path class="st0" d="M189.2,83.5h1.4l3.8,9h-1.4l-0.9-2.3h-4.4l-0.9,2.3h-1.4L189.2,83.5z M189.8,84.8l-1.8,4.5h3.6L189.8,84.8z"/>
<path class="st0" d="M199.9,84.9c-0.5-0.2-1.1-0.4-1.7-0.4c-0.7,0-1.6,0.3-1.6,1.2c0,1.7,3.9,1.3,3.9,4.3c0,1.9-1.5,2.7-3.3,2.7
	c-0.6,0-1.3-0.2-1.9-0.4l0.1-1.2c0.6,0.3,1.2,0.4,1.9,0.4c0.9,0.1,1.7-0.5,1.8-1.4c0,0,0,0,0,0c0-2-3.9-1.5-3.9-4.3
	c0-1.6,1.3-2.4,2.9-2.4c0.7,0,1.3,0.1,1.9,0.3L199.9,84.9z"/>
<path class="st0" d="M207.5,84.9c-0.5-0.2-1.1-0.4-1.7-0.4c-0.7,0-1.6,0.3-1.6,1.2c0,1.7,3.9,1.3,3.9,4.3c0,1.9-1.5,2.7-3.3,2.7
	c-0.6,0-1.2-0.2-1.8-0.4l0.1-1.2c0.6,0.3,1.2,0.4,1.9,0.4c0.9,0.1,1.7-0.6,1.8-1.4c0,0,0,0,0,0c0-2-3.9-1.5-3.9-4.3
	c0-1.6,1.3-2.4,2.9-2.4c0.7,0,1.3,0.1,1.9,0.3L207.5,84.9z"/>
<path class="st0" d="M214.3,83.4c2.7,0,4.3,2,4.3,4.7s-1.6,4.7-4.3,4.7S210,90.8,210,88S211.6,83.4,214.3,83.4z M214.3,91.5
	c2.1,0,3-1.7,3-3.5s-1-3.5-3-3.5s-3,1.7-3,3.5S212.3,91.6,214.3,91.5L214.3,91.5z"/>
<path class="st0" d="M227.1,85c-0.6-0.3-1.2-0.5-1.9-0.5c-1.9,0.2-3.4,1.9-3.2,3.8c0.2,1.7,1.4,3,3.1,3.2c0.7,0,1.4-0.1,2-0.4
	l0.1,1.2c-0.7,0.2-1.4,0.3-2.1,0.3c-2.4,0.2-4.6-1.7-4.7-4.1c0-0.2,0-0.4,0-0.6c-0.1-2.5,1.9-4.5,4.4-4.6c0.1,0,0.2,0,0.3,0
	c0.7,0,1.4,0.1,2,0.4L227.1,85z"/>
<path class="st0" d="M229.9,83.5h1.3v9h-1.3V83.5z"/>
<path class="st0" d="M237.3,83.5h1.4l3.8,9H241l-0.9-2.3h-4.4l-0.9,2.3h-1.4L237.3,83.5z M237.9,84.8l-1.8,4.5h3.6L237.9,84.8z"/>
<path class="st0" d="M245.2,84.7h-2.8v-1.1h6.9v1.1h-2.8v7.9h-1.3V84.7z"/>
<path class="st0" d="M252.2,83.5h1.3v9h-1.3V83.5z"/>
<path class="st0" d="M260.9,83.4c2.7,0,4.3,2,4.3,4.7s-1.6,4.7-4.3,4.7s-4.3-1.9-4.3-4.7S258.1,83.4,260.9,83.4z M260.9,91.5
	c2.1,0,3-1.7,3-3.5s-1-3.5-3-3.5s-3,1.7-3,3.5S258.8,91.6,260.9,91.5L260.9,91.5z"/>
<path class="st0" d="M267.6,83.5h1.8l4,7.2l0,0v-7.2h1.3v9H273l-4.1-7.4l0,0v7.4h-1.3L267.6,83.5z"/>
<path class="st0" d="M256.4,38.5h-21.2c-0.5,1.1-0.9,2-1.4,3.1c-1.3,3.1-2.6,5.9-3.6,8.3c-0.9,2.1-1.9,4.1-3,6
	c-0.5,0.9-1.1,1.7-1.8,2.5c-0.5,0.5-1.1,0.8-1.7,1.2c-0.1,0.1-0.3,0.2-0.4,0.2h-0.1c-1.1-0.4-2.1-1.2-2.8-2.2
	c-0.4-0.8-0.6-1.7-0.6-2.6c-0.1-1.3-0.1-2.7-0.1-4.2c0-1.9,0-3.6,0-5.2s0-3.1,0-4.6V15.1c0-0.8,0-1.7,0.1-2.5s0.1-1.5,0.2-2.2
	c0.1-0.5,0.2-1.1,0.5-1.5c0.6-1.1,1.5-1.9,2.7-2.4c1.1-0.5,2.4-0.9,3.6-1.1V4.6h-23.7v0.8c1.2,0.1,2.4,0.3,3.6,0.6
	c1.4,0.5,2.5,1.4,3.2,2.6c0.5,0.8,0.7,1.7,0.8,2.6c0.1,1.1,0.1,2.1,0.2,3.1c0,1.7,0.1,3.3,0.1,4.7v15.8h-27v-11c0-1.9,0-4,0-6.1
	s0-4.1,0.1-6c0-1,0.3-2.1,0.8-3c0.4-0.7,1-1.4,1.7-1.9c0.7-0.5,1.5-0.8,2.3-1c0.8-0.2,1.6-0.4,2.4-0.5V4.6h-23.5v0.8
	c1.2,0.1,2.5,0.4,3.7,0.8c1.1,0.4,2,1,2.7,1.9c0.4,0.4,0.6,1,0.7,1.5c0.2,0.7,0.3,1.5,0.4,2.2c0.1,0.8,0.1,1.7,0.1,2.6v22.9
	c0,1.6,0,3.1-0.1,4.6s0,2.9-0.1,4.1s0,2.3,0,3s0,1.7-0.1,2.7s-0.1,1.8-0.2,2.6c-0.1,0.7-0.2,1.4-0.3,2.1c-0.1,0.5-0.2,0.9-0.5,1.3
	c-0.8,0.8-1.7,1.5-2.8,1.8c-1.2,0.5-2.5,0.9-3.8,1.1v0.7h16.4V36.9h27v24.6h25.8v-0.8c-0.7-0.1-1.4-0.2-2.1-0.3
	c-0.7-0.1-1.4-0.3-2.1-0.6c-0.6-0.2-1.1-0.6-1.6-1.1c-0.4-0.5-0.6-1-0.6-1.7c0.2-2,0.8-4,1.6-5.9c0.7-1.8,1.4-3.6,2.2-5.4
	c0.7-1.6,1.4-3.3,2.1-5.1h21l8.3,20.9h8.4l-1.8-4.9c-0.1-0.3-0.2-0.5-0.3-0.8c-0.5-1.4-0.8-2.3-1.2-3.4s-0.9-2.6-1.5-4.2
	c-1.2-3.3-2.5-6.5-3.7-9.9L261.6,28c-1.3-3.6-2.7-7.3-4.1-11.1c-1.4-3.9-2.9-7.9-4.6-12.2h-0.6c-0.2,0.4-0.5,0.8-0.9,1.4
	c-0.4,0.6-0.9,1.2-1.4,1.8c-0.6,0.7-1.3,1.3-2,1.8c-0.8,0.6-1.6,1.1-2.5,1.5l0.8,1.7L256.4,38.5z M170.2,21.1
	c0.1-2.9-0.7-5.8-2.3-8.2c-1.4-2.2-3.4-4.1-5.8-5.4c-2.3-1.3-4.9-2.1-7.6-2.5c-3.1-0.4-6.1-0.5-9.2-0.5h-3.6c-1.4,0-2.8,0-4.4,0.1
	s-3.1,0-4.7,0s-3,0-4.4,0c-1.4,0-2.5,0-3.5,0h-1.9v0.8c1.4,0.2,2.8,0.5,4,0.8c1.1,0.3,2.2,0.8,3,1.7c0.4,0.4,0.6,1,0.8,1.5
	c0.2,0.8,0.3,1.6,0.4,2.4c0.1,0.9,0.1,1.8,0.2,2.8s0,1.9,0,2.9v20c0,1.6,0,3.1,0,4.6s-0.1,2.9-0.1,4.1s0,2.3,0,3s0,1.7-0.1,2.6
	s-0.1,1.8-0.1,2.7c-0.1,0.7-0.2,1.4-0.4,2.1c-0.1,0.5-0.3,1-0.6,1.4c-0.7,0.9-1.7,1.5-2.8,1.9c-0.8,0.3-1.6,0.5-2.5,0.7l-1.4-3.9
	c-0.1-0.3-0.2-0.5-0.3-0.8c-0.5-1.4-0.8-2.3-1.2-3.4s-0.9-2.6-1.5-4.2c-1.2-3.3-2.5-6.5-3.7-9.9L112.5,28c-1.3-3.6-2.7-7.3-4.1-11.1
	s-3-7.9-4.6-12.2h-0.6C103,5,102.7,5.5,102.3,6c-0.4,0.6-0.9,1.2-1.4,1.8c-0.6,0.7-1.3,1.3-2,1.8c-0.8,0.6-1.6,1.1-2.5,1.5l0.8,1.7
	l10.2,25.7H86.2c-0.5,1.1-0.9,2-1.3,3.1c-1.3,3.1-2.6,5.9-3.6,8.3c-0.9,2.1-1.9,4.1-3,6c-0.5,0.9-1.1,1.7-1.8,2.5
	c-0.5,0.5-1.1,0.8-1.7,1.2c-1.1,0.6-2.2,1-3.4,1.1v0.8h16.5v-0.8c-0.7-0.1-1.4-0.2-2.1-0.3c-0.7-0.1-1.4-0.3-2.1-0.6
	c-0.6-0.2-1.1-0.6-1.6-1c-0.4-0.4-0.6-1-0.6-1.7c0.2-2,0.8-4,1.6-5.9c0.7-1.8,1.4-3.6,2.2-5.4c0.7-1.6,1.3-3.3,2-5.1h21l8.3,20.9h32
	v-0.8c-1.8,0-3.5-0.4-5.1-1.2c-1-0.5-1.8-1.2-2.4-2.1c-0.6-0.9-0.9-1.9-0.9-3c-0.1-1.2-0.1-2.7-0.1-4.3c0-0.9,0-1.7,0-2.5
	s0-1.6,0-2.5V26.5c0-2.5,0-5.1,0-7.7c0-2.6,0.1-4.9,0.1-6.7c0.1-1.2,0.1-2.1,0.2-2.8s0.1-1.2,0.1-1.5c0-0.3,0.1-0.6,0.2-0.9
	c0.1-0.3,0.1-0.6,0.2-0.9l1.5-0.2c0.9-0.1,1.7-0.1,2.6-0.1c1.5,0,3,0.1,4.4,0.3c4.2,0.6,7.9,3,10.1,6.6c1.6,2.4,2.4,5.2,2.3,8.1
	c0,3.2-0.9,6.3-2.7,9c-1.9,2.7-4.6,4.7-7.8,5.7c-0.8,0.3-1.6,0.5-2.4,0.7l0.1,1.5h0.3c1.7-0.1,3.4-0.3,5.1-0.6
	c1.6-0.2,3.2-0.6,4.7-1.2c1.5-0.5,2.9-1.2,4.2-2.1c1.3-0.8,2.6-1.9,3.6-3.1c1-1.3,1.9-2.7,2.5-4.2C169.8,24.7,170.2,22.9,170.2,21.1
	z"/>
<path class="st0" d="M23.2,26.8V1.2C11.7,4.3,3,13.7,0.6,25.4l12.6,7.3L23.2,26.8z"/>
<path class="st1" d="M0.2,28.4C0.1,29.5,0,30.6,0,31.7c0,7.5,2.6,14.7,7.5,20.4l16.9-9.7L0.2,28.4z"/>
<path class="st2" d="M40.3,26.5l22.1,12.7c2.8-11.3-0.9-23.3-9.6-31.1l-12.5,7.2V26.5z"/>
<path class="st3" d="M41.5,61.5V47.2l-9.7-5.6L9.9,54.3c5.8,5.7,13.6,8.8,21.8,8.8C35,63.1,38.3,62.5,41.5,61.5z"/>
<path class="st4" d="M50.5,6.2c-7-5.2-15.8-7.2-24.4-5.7v19.8L50.5,6.2z"/>
<path class="st5" d="M44.6,60.6c8-3.6,14.1-10.3,17-18.5l-17-9.8L44.6,60.6z"/>
<path class="st6" d="M13.2,32.4l9.8-5.6V1.5C11.8,4.7,3.3,13.8,0.9,25.2L13.2,32.4z"/>
</svg>
