<?xml version="1.0" encoding="utf-8"?>
<!-- Generator: Adobe Illustrator 22.0.1, SVG Export Plug-In . SVG Version: 6.00 Build 0)  -->
<svg version="1.1" id="Layer_1" xmlns="http://www.w3.org/2000/svg" xmlns:xlink="http://www.w3.org/1999/xlink" x="0px" y="0px"
	 viewBox="0 0 191.1 58.3" style="enable-background:new 0 0 191.1 58.3;" xml:space="preserve">
<style type="text/css">
	.st0{fill:#00853F;}
</style>
<path class="st0" d="M0,0.3V58h57.7V0.3H0z M44.1,7.6c0-0.5,0.1-0.5,0.2-0.1c0.4,1.3,1.2,3.9,0.7,6.8c-0.3,2.3-0.5,4.4-7.4,7.1
	c-7.4,2.9-9.3,5.5-9.7,6.8c-0.2,0.5-0.5,0.9-1,0.9h-9.5c-0.5,0.1-0.8-0.3-0.7-0.8c0.2-1.1,0.8-2.4,2.4-4.3c4-4.8,13-6.6,20.6-9.6
	C43.9,12.7,44.2,9.2,44.1,7.6z M44.7,22c-0.6,1.3-1.8,3.8-2.8,4.8c-1.2,1.3-3.5,2.4-4.8,2.4c-1.3,0-3.7,0-4.2,0
	c-0.7,0-1-0.6-0.8-1.1c0.4-1.1,1.8-2.8,6.4-3.9c3-0.7,4.9-1.8,5.9-2.5C44.8,21.4,44.9,21.5,44.7,22z M16,19.9c1.9-5.9,12.1-7,18-9.4
	C35.5,9.9,36,9,36.1,8.4c0.1-0.5,0.2-0.5,0.4-0.1c0.2,0.9,0.5,2.4-0.4,3.6c-1.4,1.9-11.1,3.6-16.6,7.5c-2.1,1.4-3.1,3-3.6,3.9
	c-0.2,0.4-0.4,0.4-0.4-0.1C15.6,22.3,15.7,20.9,16,19.9z M35.6,54.8c0,0.1-0.1,0.2-0.3,0.2H22.3c-0.1,0-0.2-0.1-0.3-0.2l-0.8-6.4
	c0-0.1,0-0.2,0.1-0.2c0.1-0.1,0.1-0.1,0.2-0.1H36c0.1,0,0.2,0.1,0.2,0.1c0.1,0.1,0.1,0.1,0.1,0.2L35.6,54.8z M42.6,43.9l-0.8,2.4
	c-0.1,0.1-0.1,0.2-0.2,0.2H16.3c-0.1,0-0.2-0.1-0.2-0.2l-0.8-2.4c0-0.1,0-0.2,0.1-0.2c0.1-0.1,0.1-0.1,0.2-0.1h26.9
	c0.1,0,0.2,0.1,0.2,0.1C42.6,43.8,42.6,43.9,42.6,43.9z M45.3,41.9c0,0.1-0.1,0.2-0.3,0.2H12.6c-0.1,0-0.2-0.1-0.3-0.2L10,32.5
	c0-0.1,0-0.2,0.1-0.2c0.1-0.1,0.1-0.1,0.2-0.1h36.9c0.1,0,0.2,0.1,0.2,0.1c0.1,0.1,0.1,0.2,0.1,0.2L45.3,41.9z"/>
<path d="M67.7,0.4h5.7c2.1,0,3.6,0.2,4.5,0.5c1,0.3,1.8,0.9,2.4,1.8c0.6,0.8,0.9,1.8,0.9,3c0,0.9-0.2,1.8-0.5,2.5
	c-0.3,0.6-0.7,1.1-1.3,1.6c-0.5,0.5-1.1,0.8-1.7,1c-1,0.4-2.1,0.6-3.4,0.6h-3.1v7.1h-3.6V0.4z M71.3,3.4v4.9h2.9
	c1.1,0,2-0.3,2.7-0.9c0.5-0.4,0.7-1,0.7-1.7c0-0.7-0.2-1.3-0.8-1.7c-0.5-0.4-1.4-0.7-2.6-0.7L71.3,3.4C71.3,3.4,71.3,3.4,71.3,3.4z"
	/>
<path d="M83,0.4h12.1v3.1h-8.6v4h5.2v2.7h-5.2v5.1h8.6v3.1H83V0.4z"/>
<path d="M97.2,0.4h13.7v3.1h-5.1v14.9h-3.6v-15h-5.1L97.2,0.4L97.2,0.4z"/>
<path d="M113.2,0.4h12.1v3.1h-8.6v4h5.2v2.7h-5.2v5.1h8.6v3.1h-12.1V0.4z"/>
<path d="M128.3,0.4h4.9c2.6,0,4.4,0.2,5.4,0.6c1,0.4,1.8,1,2.4,1.9c0.5,0.9,0.8,1.9,0.8,3.1c0,1.1-0.2,2-0.8,2.7
	c-0.5,0.7-1.4,1.3-2.6,1.8l3.3,7.9h-3.5l-3-7.3h-3.3v7.3h-3.6L128.3,0.4L128.3,0.4z M131.9,3.5v4.8h2.8c1,0,1.9-0.3,2.7-0.9
	c0.5-0.4,0.7-1,0.7-1.6c0-0.7-0.2-1.2-0.8-1.7c-0.5-0.4-1.4-0.7-2.6-0.7L131.9,3.5L131.9,3.5L131.9,3.5z"/>
<path d="M146.6,13.4c0.6,0.9,1.2,1.6,1.8,1.9c0.6,0.4,1.3,0.5,2.1,0.5c1,0,1.7-0.2,2.2-0.7c0.6-0.5,0.8-1,0.8-1.6
	c0-0.5-0.2-1-0.6-1.5c-0.4-0.4-1.4-0.8-2.8-1.2c-2-0.5-3.4-1.1-4.3-1.9c-1.1-1-1.6-2.2-1.6-3.6c0-1.5,0.5-2.8,1.6-3.8
	s2.5-1.5,4.4-1.5c1.1,0,2,0.2,2.9,0.5c0.8,0.4,1.6,0.9,2.1,1.4c0.4,0.4,0.8,0.9,1.1,1.5l-3,1.2c-0.5-0.7-1-1.3-1.6-1.6
	c-0.5-0.3-1.1-0.5-1.7-0.5c-0.8,0-1.5,0.2-1.9,0.7c-0.5,0.4-0.7,1-0.7,1.6c0,0.5,0.2,0.9,0.6,1.3c0.4,0.4,1.3,0.7,2.9,1.1
	c1.6,0.4,2.7,0.8,3.5,1.3c0.8,0.5,1.4,1.1,1.8,2c0.4,0.8,0.6,1.6,0.6,2.5c0,0.9-0.2,1.8-0.8,2.8c-0.5,0.9-1.3,1.6-2.3,2.1
	c-1,0.5-2.2,0.7-3.4,0.7c-1.2,0-2.3-0.2-3.2-0.6c-0.9-0.4-1.7-1-2.3-1.7c-0.4-0.4-0.9-1.1-1.3-1.9L146.6,13.4z"/>
<path d="M165.6,0c1.7,0,3.1,0.3,4.1,0.8c1.4,0.7,2.4,1.8,3.1,3.2c0.7,1.4,1.1,3.2,1.1,5.4c0,3.1-0.7,5.4-2.2,7
	c-1.5,1.6-3.3,2.4-5.8,2.4s-4.4-0.8-5.8-2.4c-1.5-1.6-2.2-3.9-2.2-7c0-1.8,0.3-3.5,0.9-5c0.3-0.8,0.8-1.6,1.5-2.3
	c0.7-0.7,1.4-1.2,2.3-1.6C163.6,0.2,164.6,0,165.6,0z M166,3.1c-1.2,0-2.2,0.5-3,1.4c-0.8,1-1.2,2.6-1.2,4.8c0,2.2,0.4,3.8,1.2,4.8
	c0.8,1,1.8,1.5,3.1,1.5c1.2,0,2.2-0.5,3-1.5c0.8-1,1.2-2.5,1.2-4.7c0-2.5-0.5-4.2-1.5-5.2C168.1,3.4,167.1,3.1,166,3.1z"/>
<path d="M176.4,0.4h3.8l7.4,12.2V0.4h3.5v18.1h-3.5L180,5.9v12.6h-3.6L176.4,0.4L176.4,0.4z"/>
<path class="st0" d="M78.6,34.3c-0.2,0.8-0.4,1.4-0.7,1.8c-0.5,0.7-1.1,1.3-1.8,1.7c-0.7,0.4-1.6,0.6-2.6,0.6c-1,0-2.1-0.2-3-0.8
	c-1-0.6-1.6-1.3-2.2-2.4c-0.5-1-0.7-2.2-0.7-3.7c0-1.5,0.2-2.8,0.7-3.9c0.5-1.1,1.2-2,2.2-2.5c1-0.5,1.9-0.8,3-0.8
	c0.8,0,1.5,0.2,2.3,0.5c0.7,0.4,1.3,0.8,1.8,1.5c0.4,0.4,0.6,1,0.8,1.8l-2.5,0.7c-0.2-0.7-0.5-1.3-1-1.6c-0.4-0.4-1-0.5-1.6-0.5
	c-1,0-1.7,0.5-2.2,1.4c-0.5,0.9-0.8,2.1-0.8,3.6c0,0.9,0.1,1.8,0.4,2.5c0.2,0.7,0.6,1.2,1,1.6c0.4,0.4,0.9,0.5,1.4,0.5
	c0.7,0,1.4-0.2,2-0.8c0.4-0.4,0.7-0.9,1-1.6L78.6,34.3z"/>
<path class="st0" d="M81.4,24.6h9.1V27h-6.4v3H88v2h-3.9v3.9h6.4v2.4h-9.1V24.6z"/>
<path class="st0" d="M93.5,24.6h2.8l5.6,9.1v-9.1h2.7v13.6h-2.7l-5.7-9.4v9.4h-2.7L93.5,24.6L93.5,24.6z"/>
<path class="st0" d="M107.4,24.6h10.3V27h-3.8v11.3h-2.7V27h-3.8V24.6z"/>
<path class="st0" d="M120.4,24.6h9.1V27h-6.4v3h3.9v2h-3.9v3.9h6.4v2.4h-9.1L120.4,24.6L120.4,24.6z"/>
<path class="st0" d="M132.6,24.6h3.6c2,0,3.3,0.1,4,0.4c0.7,0.3,1.3,0.8,1.8,1.5c0.4,0.7,0.6,1.5,0.6,2.4c0,0.8-0.2,1.5-0.5,2
	c-0.4,0.5-1,1-2,1.3l2.4,5.9h-2.7l-2.3-5.4h-2.4v5.4h-2.7V24.6H132.6z M135.3,27.1v3.6h2.1c0.8,0,1.4-0.2,2-0.7
	c0.4-0.3,0.6-0.7,0.6-1.2s-0.2-0.9-0.6-1.3c-0.4-0.4-1-0.5-1.9-0.5L135.3,27.1L135.3,27.1z"/>
<path class="st0" d="M157,24.4c1.3,0,2.3,0.2,3.1,0.7c1,0.5,1.8,1.3,2.4,2.4c0.5,1,0.8,2.4,0.8,4.1c0,2.3-0.5,4.1-1.6,5.2
	c-1.1,1.2-2.5,1.8-4.3,1.8c-1.8,0-3.3-0.6-4.4-1.8c-1.1-1.2-1.6-3-1.6-5.3c0-1.4,0.2-2.6,0.7-3.8c0.2-0.6,0.6-1.1,1.1-1.7
	c0.5-0.5,1.1-0.9,1.7-1.2C155.5,24.5,156.3,24.4,157,24.4z M157.3,26.7c-0.9,0-1.7,0.4-2.3,1.1c-0.6,0.7-0.9,1.9-0.9,3.6
	c0,1.6,0.3,2.8,0.9,3.6s1.4,1.1,2.3,1.1s1.6-0.4,2.2-1.1c0.6-0.7,0.9-1.9,0.9-3.6c0-1.8-0.4-3.1-1.1-3.9
	C158.9,27,158.1,26.7,157.3,26.7z"/>
<path class="st0" d="M166.3,24.6h2.8l5.6,9.1v-9.1h2.7v13.6h-2.7l-5.7-9.4v9.4h-2.7L166.3,24.6L166.3,24.6z"/>
<path class="st0" d="M67.7,44.5h2.7v5.3h5.1v-5.3h2.7V58h-2.7v-5.9h-5.1V58h-2.7V44.5z"/>
<path class="st0" d="M81.9,44.5H91v2.4h-6.4v3h3.9v2h-3.9v3.9H91V58h-9.1V44.5z"/>
<path class="st0" d="M97.2,44.5h2.8l4.4,13.6h-2.7l-1-3.2h-4.4l-1,3.2h-2.6L97.2,44.5z M98.6,48.1L97,52.8h3.1L98.6,48.1z"/>
<path class="st0" d="M106.9,44.5h2.7v11.2h5.6V58h-8.2L106.9,44.5L106.9,44.5z"/>
<path class="st0" d="M115.4,44.5h10.3v2.4h-3.8v11.2h-2.7V46.8h-3.8L115.4,44.5L115.4,44.5z"/>
<path class="st0" d="M128.4,44.5h2.7v5.3h5.1v-5.3h2.7V58h-2.7v-5.9h-5.1V58h-2.7V44.5z"/>
<path class="st0" d="M152.9,54.2c-0.2,0.8-0.4,1.4-0.7,1.8c-0.5,0.7-1.1,1.3-1.8,1.7c-0.7,0.4-1.6,0.6-2.6,0.6c-1,0-2.1-0.2-3-0.8
	c-1-0.5-1.6-1.3-2.2-2.4c-0.5-1-0.7-2.2-0.7-3.7c0-1.5,0.2-2.8,0.7-3.9c0.5-1.1,1.2-2,2.2-2.5c1-0.5,1.9-0.8,3-0.8
	c0.8,0,1.5,0.2,2.3,0.5c0.7,0.4,1.3,0.9,1.8,1.5c0.4,0.4,0.6,1,0.8,1.8l-2.5,0.7c-0.2-0.7-0.5-1.3-1-1.6c-0.4-0.4-1-0.5-1.6-0.5
	c-1,0-1.7,0.5-2.2,1.4c-0.6,0.9-0.8,2.1-0.8,3.6c0,0.9,0.1,1.8,0.4,2.5c0.2,0.7,0.6,1.2,1,1.6c0.4,0.4,0.9,0.5,1.4,0.5
	c0.7,0,1.4-0.2,2-0.8c0.4-0.4,0.7-0.9,1-1.6L152.9,54.2z"/>
<path class="st0" d="M158.9,44.5h2.8l4.4,13.6h-2.6l-1-3.2h-4.4l-1,3.2h-2.6L158.9,44.5z M160.3,48.1l-1.6,4.7h3.1L160.3,48.1z"/>
<path class="st0" d="M168.7,44.5h3.6c2,0,3.3,0.1,4.1,0.4c0.7,0.3,1.3,0.8,1.7,1.4c0.4,0.7,0.6,1.5,0.6,2.4c0,0.8-0.2,1.5-0.5,2
	c-0.4,0.5-1,1-2,1.3l2.4,5.9h-2.7l-2.3-5.5h-2.4V58h-2.7V44.5H168.7z M171.3,46.8v3.6h2.1c0.8,0,1.4-0.2,2-0.7
	c0.4-0.3,0.5-0.7,0.5-1.2c0-0.5-0.2-0.9-0.6-1.3c-0.4-0.4-1-0.5-1.9-0.5H171.3z"/>
<path class="st0" d="M181.9,44.5h9.1v2.4h-6.4v3h3.9v2h-3.9v3.9h6.4V58h-9.1V44.5z"/>
</svg>
