<svg xmlns="http://www.w3.org/2000/svg" viewBox="0 0 313.6 517"><title>3</title><path d="M300.1 171.2a15.2 15.2 0 0 1 0-17.3 31.8 31.8 0 0 0-10.4-45.8 15.2 15.2 0 0 1-7.5-15.6A31.7 31.7 0 0 0 253 55.8 15.5 15.5 0 0 1 239.4 45a32.2 32.2 0 0 0-16.6-19.5 31.8 31.8 0 0 0-25.6-.9 15.4 15.4 0 0 1-16.9-3.9 32.4 32.4 0 0 0-23.5-10.2 31.7 31.7 0 0 0-23.4 10.3 15.5 15.5 0 0 1-16.9 3.9 31.7 31.7 0 0 0-42.2 20.4 15.3 15.3 0 0 1-13.6 10.8 31.7 31.7 0 0 0-29.2 36.7 15.2 15.2 0 0 1-7.5 15.6A31.8 31.8 0 0 0 13.6 154a15.2 15.2 0 0 1 0 17.3A31.8 31.8 0 0 0 24 217.1a15.2 15.2 0 0 1 7.5 15.6 31.7 31.7 0 0 0 29.2 36.7 15.5 15.5 0 0 1 13.6 10.8 32.2 32.2 0 0 0 16.6 19.5 31.8 31.8 0 0 0 25.6.9 15.4 15.4 0 0 1 16.9 3.9 31.6 31.6 0 0 0 46.8.1 15.5 15.5 0 0 1 16.9-3.9 31.7 31.7 0 0 0 42.2-20.4 15.3 15.3 0 0 1 13.6-10.8 31.7 31.7 0 0 0 29.2-36.7 15.2 15.2 0 0 1 7.5-15.6 32.1 32.1 0 0 0 10.5-46z" fill="#153e69"/><path d="M138.5 120.7l-2 15.5h15l-1.5 13.9h-15.2l-2.1 17.2h-14.4l2.1-17.2h-15.2l-2.2 17.2H88.7l2.1-17.2h-15l1.5-13.9h15.2l2-15.5h-15l1.5-14h15.2l2.2-18.1h14.4l-2.2 18.1h15.2l2.3-18.1h14.3l-2.2 18.1h15l-1.5 14zm-14.4 0h-15.2l-2 15.5h15.2zm111.6-24.3v135h-35.2V125.3h-26V96.4z" fill="#fff"/><path d="M306.5 155.8a39.7 39.7 0 0 0-13-57.2 7.2 7.2 0 0 1-3.6-7.4 39.8 39.8 0 0 0-36.6-45.9 7.3 7.3 0 0 1-6.4-5.1 39.7 39.7 0 0 0-52.8-25.5 7.3 7.3 0 0 1-8-1.8A39.8 39.8 0 0 0 156.8 0a39.3 39.3 0 0 0-29.3 13.1 7.5 7.5 0 0 1-8 1.8 39.7 39.7 0 0 0-52.8 25.5 7.3 7.3 0 0 1-6.4 5.1 39.8 39.8 0 0 0-36.6 45.9 7.4 7.4 0 0 1-3.6 7.4A39.3 39.3 0 0 0 1 124.5 40.4 40.4 0 0 0 7.1 156a7.2 7.2 0 0 1 0 8.2A40 40 0 0 0 1 195.7a39.6 39.6 0 0 0 19.1 25.7 7.2 7.2 0 0 1 3.6 7.4 40.2 40.2 0 0 0 8.2 31 38.9 38.9 0 0 0 8.7 8L19.2 470.7l55.4-22.8 55.8 69.1 22.7-197.2 3.7.2 3.6-.2L183.1 517l55.9-69.1 55.4 22.8L273 267.6a38.9 38.9 0 0 0 8.7-8 40.2 40.2 0 0 0 8.2-31 7.4 7.4 0 0 1 3.6-7.4 39.7 39.7 0 0 0 13-57.2 7.2 7.2 0 0 1 0-8.2zm-12.9 17.4a23.6 23.6 0 0 1 3.6 18.8 23.3 23.3 0 0 1-11.4 15.4 23.2 23.2 0 0 0-11.5 23.8 23.8 23.8 0 0 1-4.9 18.5 23.5 23.5 0 0 1-17 8.9 23.5 23.5 0 0 0-20.7 16.5 23.1 23.1 0 0 1-12.4 14.6 23.8 23.8 0 0 1-19.2.6 23.3 23.3 0 0 0-25.8 5.9c-9.1 10-26 10-35.1 0a23.3 23.3 0 0 0-17.2-7.5 26.1 26.1 0 0 0-8.6 1.6 23.4 23.4 0 0 1-19.2-.6 23.7 23.7 0 0 1-12.4-14.6 23.5 23.5 0 0 0-20.7-16.5 23.5 23.5 0 0 1-17-8.9 23.2 23.2 0 0 1-4.9-18.5 23.2 23.2 0 0 0-11.5-23.8A24.4 24.4 0 0 1 16.3 192a23.3 23.3 0 0 1 3.6-18.8 23.2 23.2 0 0 0 0-26.4 23.8 23.8 0 0 1 7.9-34.2 23.2 23.2 0 0 0 11.5-23.8 23.6 23.6 0 0 1 21.8-27.4 23.5 23.5 0 0 0 20.7-16.5 23.1 23.1 0 0 1 12.4-14.6 23.8 23.8 0 0 1 19.2-.6 23.3 23.3 0 0 0 25.8-5.9c9.2-10 25.9-10 35.1 0a23.3 23.3 0 0 0 25.8 5.9 23.4 23.4 0 0 1 19.2.6 23.7 23.7 0 0 1 12.4 14.6 23.5 23.5 0 0 0 20.7 16.5 23.5 23.5 0 0 1 17 8.9 23.2 23.2 0 0 1 4.9 18.5 23.3 23.3 0 0 0 11.5 23.8 24.4 24.4 0 0 1 11.4 15.4 23.3 23.3 0 0 1-3.6 18.8 23.2 23.2 0 0 0 0 26.4z" fill="#fff"/><path d="M257.5 274l17.7 167.9-28.5-11.8-14.3-130a39.6 39.6 0 0 0 14.4-20.5 7.6 7.6 0 0 1 6.5-5.1zM217 307l13.6 123.1-36.2 44.8L176 315a38.7 38.7 0 0 0 10-8.1 7.5 7.5 0 0 1 8-1.8 40.2 40.2 0 0 0 23 1.9zm-79.4 8l-18.5 159.9L83 430.1l13.5-122.8a40.2 40.2 0 0 0 23-2 7.3 7.3 0 0 1 8 1.8 36.8 36.8 0 0 0 10.1 7.9zm-56.5-14.7L66.9 430.1l-28.5 11.8 17.7-167.7 4.2.5a7.4 7.4 0 0 1 6.4 5.1 39.6 39.6 0 0 0 14.4 20.5z" fill="#153e69"/></svg>