<svg xmlns="http://www.w3.org/2000/svg" width="512" height="512" viewBox="0 0 585.938 585.938"><g fill="#123752"><path d="M439.552 250.876l13.009-12.999c1.234-1.252 1.726-3.083 1.217-4.773a4.916 4.916 0 0 0-3.642-3.307l-56.107-11.328a4.797 4.797 0 0 0-4.347 1.312c-1.112 1.145-1.642 2.776-1.31 4.343l11.326 56.08c.373 1.72 1.626 3.14 3.289 3.647 1.7.518 3.558.041 4.81-1.222l12.971-12.98 30.402 30.384a4.778 4.778 0 0 0 6.77.011l12.014-11.991a4.821 4.821 0 0 0 1.407-3.393 4.821 4.821 0 0 0-1.407-3.396l-30.402-30.388z"/><path d="M583.033 490.401l-30.341-87.733a21.44 21.44 0 0 0-20.251-14.42h-4.616c16.767-5.312 29.031-20.836 29.031-39.343V66.721c0-22.862-18.605-41.457-41.457-41.457H70.534c-22.85 0-41.457 18.595-41.457 41.457v282.182c0 18.506 12.269 34.031 29.034 39.343h-4.598a21.434 21.434 0 0 0-20.249 14.42L2.92 490.401a52.91 52.91 0 0 0 6.905 48.037 52.963 52.963 0 0 0 43.14 22.236H532.97a52.961 52.961 0 0 0 43.139-22.236 52.97 52.97 0 0 0 6.924-48.037zM292.978 34.832c5.771 0 10.468 4.696 10.468 10.467 0 5.782-4.696 10.467-10.468 10.467-5.773 0-10.469-4.686-10.469-10.467-.001-5.771 4.695-10.467 10.469-10.467zm-222.444 30.5l446.256 1.389V350.27l-447.646-1.367 1.39-283.571zm303.108 454.756a5.906 5.906 0 0 1-4.892 2.594H217.208a5.9 5.9 0 0 1-4.892-2.594 5.939 5.939 0 0 1-.567-5.484l14.615-36.166a19.437 19.437 0 0 1 17.999-12.129h97.235a19.434 19.434 0 0 1 17.996 12.129l14.615 36.166a5.948 5.948 0 0 1-.567 5.484z"/></g></svg>