<svg id="Capa_1" xmlns="http://www.w3.org/2000/svg" viewBox="0 0 496 496"><style>.st0{fill:#017581}.st1{fill:#003c69}</style><path class="st0" d="M208 272c-17.6 0-32-14.4-32-32v-32c0-17.6 14.4-32 32-32s32 14.4 32 32v32c0 17.6-14.4 32-32 32zm0-80c-8.8 0-16 7.2-16 16v32c0 8.8 7.2 16 16 16s16-7.2 16-16v-32c0-8.8-7.2-16-16-16zm208 80c-17.6 0-32-14.4-32-32v-32c0-17.6 14.4-32 32-32s32 14.4 32 32v32c0 17.6-14.4 32-32 32zm0-80c-8.8 0-16 7.2-16 16v32c0 8.8 7.2 16 16 16s16-7.2 16-16v-32c0-8.8-7.2-16-16-16zM224 328h176v128H224z"/><path class="st1" d="M104 160v16h67.3l42.4-42.3-11.4-11.4-37.6 37.7zm392 240V232c0-13.2-10.8-24-24-24h-8v16h8c4.4 0 8 3.6 8 8v56H144v-56c0-4.4 3.6-8 8-8h8v-16h-8c-13.2 0-24 10.8-24 24v240c0 13.2 10.8 24 24 24h283.3l60.7-60.7V416h-72v64H152c-4.4 0-8-3.6-8-8V304h336v96h16zm-56 32h36.7L440 468.7V432z"/><path class="st1" d="M256 208h112v16H256zm152 256V320H216v144h192zM232 336h160v112H232V336z"/><path class="st1" d="M48.3 176H72v-16H48.4c1.8-27.1 12.6-51.7 29.4-70.9l16.7 16.7 11.3-11.3-16.7-16.7C108.3 61 132.9 50.2 160 48.4V72h16V48.4c27.1 1.8 51.7 12.6 70.9 29.4l-16.7 16.7 11.3 11.3 16.7-16.7c16.8 19.2 27.6 43.8 29.4 70.9H264v16h23.6c-.3 4.9-.8 9.7-1.7 14.5l15.7 3c1.6-8.4 2.4-16.9 2.4-25.5 0-75-61-136-136-136S32 93 32 168c0 52.5 29.3 99.3 76.5 122.3l7-14.4C76.3 256.8 51.1 219 48.3 176z"/><path class="st1" d="M16 168C16 84.2 84.2 16 168 16s152 68.2 152 152c0 7.6-.6 15.3-1.7 22.8l15.8 2.4c1.2-8.3 1.9-16.7 1.9-25.2C336 75.4 260.6 0 168 0S0 75.4 0 168c0 69.8 43.9 133 109.2 157.4l5.6-15C55.7 288.4 16 231.1 16 168z"/></svg>