<svg xmlns="http://www.w3.org/2000/svg" viewBox="0 0 290.626 290.626"><path d="M154.771 34.847c5.531-3.267 9.291-9.225 9.291-16.097 0-10.341-8.409-18.75-18.75-18.75s-18.75 8.409-18.75 18.75c0 6.872 3.759 12.83 9.291 16.097-8.217 3.647-13.978 11.85-13.978 21.403v4.688a4.686 4.686 0 0 0 4.688 4.688h14.063v32.813h9.373V65.625h14.063c2.592 0 4.688-2.1 4.688-4.688V56.25c-.001-9.553-5.762-17.756-13.979-21.403zm-9.459-25.472c5.17 0 9.375 4.205 9.375 9.375s-4.205 9.375-9.375 9.375-9.375-4.205-9.375-9.375 4.204-9.375 9.375-9.375zM131.249 56.25c0-7.753 6.309-14.063 14.063-14.063s14.063 6.309 14.063 14.063h-28.126zM9.374 98.438h37.5c2.592 0 4.688-2.1 4.688-4.688v-.619l48.961 32.644 5.198-7.8-55.739-37.158c-2.222-5.869-6.694-10.622-12.403-13.158 5.536-3.267 9.295-9.225 9.295-16.097 0-10.341-8.409-18.75-18.75-18.75s-18.75 8.409-18.75 18.75c0 6.872 3.759 12.83 9.291 16.097-8.217 3.647-13.978 11.85-13.978 21.403v4.688a4.685 4.685 0 0 0 4.687 4.688zm18.75-56.25c5.17 0 9.375 4.205 9.375 9.375s-4.205 9.375-9.375 9.375-9.375-4.205-9.375-9.375 4.204-9.375 9.375-9.375zm0 32.812c7.753 0 14.063 6.309 14.063 14.063H14.061c0-7.754 6.31-14.063 14.063-14.063zm243.835-7.341c5.531-3.267 9.291-9.225 9.291-16.097 0-10.341-8.409-18.75-18.75-18.75s-18.75 8.409-18.75 18.75c0 6.872 3.759 12.83 9.291 16.097-5.709 2.536-10.181 7.289-12.403 13.158l-55.739 37.158 5.198 7.8 48.966-32.644v.619a4.686 4.686 0 0 0 4.688 4.688h37.5c2.592 0 4.688-2.1 4.688-4.688v-4.688c-.002-9.553-5.763-17.756-13.98-21.403zm-9.46-25.471c5.17 0 9.375 4.205 9.375 9.375s-4.205 9.375-9.375 9.375-9.375-4.205-9.375-9.375 4.205-9.375 9.375-9.375zm-14.062 46.875C248.437 81.31 254.746 75 262.5 75c7.753 0 14.063 6.309 14.063 14.063h-28.126zm23.522 109.846c5.531-3.262 9.291-9.22 9.291-16.097 0-10.341-8.409-18.75-18.75-18.75s-18.75 8.409-18.75 18.75c0 6.877 3.759 12.834 9.291 16.097a23.514 23.514 0 0 0-6.942 4.706l-55.927-38.719-5.339 7.711 56.016 38.78a23.276 23.276 0 0 0-1.786 8.925V225a4.684 4.684 0 0 0 4.688 4.688h37.5a4.684 4.684 0 0 0 4.688-4.688v-4.688c-.002-9.553-5.763-17.756-13.98-21.403zm-9.46-25.471c5.17 0 9.375 4.205 9.375 9.375s-4.205 9.375-9.375 9.375-9.375-4.205-9.375-9.375 4.205-9.375 9.375-9.375zm-14.062 46.875c0-7.753 6.309-14.063 14.063-14.063 7.753 0 14.063 6.309 14.063 14.063h-28.126zm-93.666 39.534c5.531-3.262 9.291-9.22 9.291-16.097 0-8.714-5.995-15.989-14.063-18.084v-33.478h-9.375v33.478c-8.067 2.095-14.063 9.37-14.063 18.084 0 6.877 3.759 12.834 9.291 16.097-8.217 3.647-13.978 11.85-13.978 21.403v4.688a4.684 4.684 0 0 0 4.688 4.688h37.5a4.684 4.684 0 0 0 4.688-4.688v-4.688c-.001-9.553-5.762-17.756-13.979-21.403zm-9.459-25.472c5.17 0 9.375 4.205 9.375 9.375s-4.205 9.375-9.375 9.375-9.375-4.205-9.375-9.375 4.204-9.375 9.375-9.375zm-14.063 46.875c0-7.753 6.309-14.063 14.063-14.063s14.063 6.309 14.063 14.063h-28.126zm-30.792-116.353L44.53 203.616a23.514 23.514 0 0 0-6.942-4.706c5.527-3.263 9.286-9.22 9.286-16.097 0-10.341-8.409-18.75-18.75-18.75s-18.75 8.409-18.75 18.75c0 6.877 3.759 12.834 9.291 16.097-8.217 3.647-13.978 11.85-13.978 21.403V225a4.684 4.684 0 0 0 4.688 4.688h37.5A4.684 4.684 0 0 0 51.563 225v-4.688c0-3.164-.647-6.173-1.786-8.925l56.016-38.78-5.336-7.71zm-72.333 8.541c5.17 0 9.375 4.205 9.375 9.375s-4.205 9.375-9.375 9.375-9.375-4.205-9.375-9.375 4.204-9.375 9.375-9.375zm-14.063 46.875c0-7.753 6.309-14.063 14.063-14.063s14.063 6.309 14.063 14.063H14.061z" fill="#333"/><path d="M145.312 196.875c-28.43 0-51.563-23.133-51.563-51.563s23.133-51.563 51.563-51.563 51.563 23.133 51.563 51.563-23.134 51.563-51.563 51.563z" fill="#f9ba48"/><path d="M154.771 142.659c5.531-3.267 9.291-9.225 9.291-16.097 0-10.341-8.409-18.75-18.75-18.75s-18.75 8.409-18.75 18.75c0 6.872 3.759 12.83 9.291 16.097-8.217 3.647-13.978 11.85-13.978 21.403v4.688a4.684 4.684 0 0 0 4.688 4.688h37.5a4.684 4.684 0 0 0 4.688-4.688v-4.688c-.002-9.553-5.763-17.756-13.98-21.403zm-9.459-25.471c5.17 0 9.375 4.205 9.375 9.375s-4.205 9.375-9.375 9.375-9.375-4.205-9.375-9.375 4.204-9.375 9.375-9.375zm-14.063 46.875c0-7.753 6.309-14.063 14.063-14.063s14.063 6.309 14.063 14.063h-28.126z" fill="#333"/></svg>