<svg id="Capa_1" xmlns="http://www.w3.org/2000/svg" viewBox="0 0 496 496"><style>.st0{fill:#017581}.st1{fill:#003c69}</style><path class="st0" d="M176 393.1V312h-16v81.1c-13.8 3.6-24 16-24 30.9 0 17.6 14.4 32 32 32s32-14.4 32-32c0-14.9-10.2-27.3-24-30.9zm-8 46.9c-8.8 0-16-7.2-16-16s7.2-16 16-16 16 7.2 16 16-7.2 16-16 16zm176-296h-19.2c-18.8 0-37.2-5.6-52.8-16-15.6 10.4-34 16-52.8 16H136v-24C136 58.1 186.1 8 248 8s112 50.1 112 112v24h-16z"/><path class="st1" d="M447.8 390.2c-5.4-32.2-28-58.7-59-69l-68.8-23V288h-16v15l-11.9 47.8-32.3-38.8h-23.5L204 350.8 192 303v-15h-16v10.2l-68.8 22.9c-31 10.3-53.6 36.8-59 69L30.6 496h434.9l-17.7-105.8zM391.2 480l-7.3-72.8-15.9 1.6 7.1 71.2H256V352h-16v128H120.8l7.1-71.2-15.9-1.6-7.3 72.8H49.5L64 392.8c4.4-26.4 22.9-48 48.3-56.5l66.1-22 17.7 70.9 47.7-57.2h8.5l47.7 57.2 17.7-70.9 66.1 22c25.4 8.5 43.9 30.1 48.3 56.5l14.5 87.2h-55.4z"/><path class="st1" d="M147.5 215.6c4.1 14 11.6 26.9 22.2 37.5l31.2 31.2c7.6 7.6 17.6 11.7 28.3 11.7h37.5c10.7 0 20.7-4.2 28.3-11.7l31.2-31.2c10.6-10.6 18.2-23.5 22.2-37.5 19.9-2.3 35.5-19 35.5-39.6 0-13.1-6.4-24.7-16.2-32h.2v-24C368 53.8 314.2 0 248 0S128 53.8 128 120v24h.2c-9.8 7.3-16.2 18.9-16.2 32 0 20.5 15.6 37.3 35.5 39.6zm167.4 26.2L283.7 273c-4.5 4.5-10.6 7-17 7h-37.5c-6.4 0-12.4-2.5-17-7L181 241.8c-13.6-13.6-21.1-31.7-21.1-50.9V152h59.2c18.7 0 36.9-5 52.8-14.5 16 9.5 34.1 14.5 52.8 14.5H336v38.9c0 19.2-7.5 37.3-21.1 50.9zm36.7-43.2c.2-2.6.4-5.2.4-7.8v-37.4c9.3 3.3 16 12.1 16 22.5 0 10.7-6.9 19.5-16.4 22.7zM144 120c0-57.3 46.7-104 104-104s104 46.7 104 104v16.8c-2.6-.5-5.3-.8-8-.8h-19.2c-17.3 0-34-5.1-48.4-14.7l-4.4-3-4.4 3c-14.4 9.6-31.1 14.7-48.4 14.7H152c-2.7 0-5.4.3-8 .8V120zm0 33.5v37.4c0 2.6.2 5.2.4 7.8-9.5-3.2-16.4-12.1-16.4-22.6 0-10.5 6.7-19.3 16-22.6z"/><path class="st0" d="M366.3 394.2L336 379.1v-58.6l-16-5.3v64l-30.3 15.2c-10.9 5.5-17.7 16.4-17.7 28.6v9.2c0 17.6 14.4 32 32 32h8v-16h-8c-8.8 0-16-7.2-16-16V423c0-6.1 3.4-11.6 8.8-14.3l31.2-15.6 31.2 15.6c5.4 2.7 8.8 8.2 8.8 14.3v9.2c0 8.8-7.2 16-16 16h-8v16h8c17.6 0 32-14.4 32-32V423c0-12.4-6.8-23.3-17.7-28.8z"/></svg>