<svg id="Capa_1" xmlns="http://www.w3.org/2000/svg" viewBox="0 0 496 496"><style>.st0{fill:#f5821f}.st1{fill:#333}</style><circle class="st0" cx="453.4" cy="376" r="32"/><path class="st0" d="M299.7 49.8C288 19.8 259.2 0 226.8 0h-21.4c-79.4 0-144 64.6-144 144v72h8c0-17.7 14.3-32 32-32v-24c0-22.1 17.9-40 40-40h83.2c18.8 0 37.2-5.6 52.8-16 19.6 9.8 32 29.8 32 51.8V184c17.7 0 32 14.3 32 32h8v-93.4c0-32.4-19.8-61.2-49.7-72.8z"/><path class="st1" d="M493.4 376c0-22.1-17.9-40-40-40s-40 17.9-40 40c0 19.3 13.8 35.5 32 39.2V452c0 15.4-12.6 28-28 28-5.8 0-11.1-1.8-15.6-4.8l-12.4-39.6V360h16v-36.2c27.9-9.9 48-36.5 48-67.8v-8h-40v-8h-16v32h16v-8h23.4c-3.9 27.1-27.3 48-55.4 48s-51.5-20.9-55.4-48h23.4v8h16v-32h-16v8h-16.2c9.8-7.3 16.2-18.9 16.2-32 0-19.3-13.8-35.5-32-39.2v-21c0-25.1-14-47.7-36.4-58.9l-4.2-2.1-3.9 2.6c-14.4 9.6-31.1 14.7-48.4 14.7h-83.2c-26.5 0-48 21.5-48 48v16.8c-18.2 3.7-32 19.9-32 39.2 0 20.2 15.1 36.7 34.5 39.4 6.7 31.3 26.6 57.8 53.5 73.4v8.3l-41.3 6.4c-37 5.7-68 32.4-79.2 68.1L2.6 496h405.8l-.3-1c3 .7 6.2 1 9.4 1 24.3 0 44-19.7 44-44v-36.8c18.2-3.7 31.9-19.9 31.9-39.2zm-416-160c0-10.4 6.7-19.2 16-22.5V232c0 2.2.2 4.4.3 6.6-9.4-3.2-16.3-12.1-16.3-22.6zm240 207l-15.9 2 6.9 55h-94.9v-10.6l27-10.8-5.9-14.9-14.7 5.9 38.7-96.8 14.8 2.3 10.2 25.5-44.4 26.6 30.1 22.6-18.8 7.5 5.9 14.9 45.2-18.1-33.9-25.4 35.6-21.4-11.7-29.3 8.7 1.3c31 4.8 57 27.2 66.4 57.1l6.8 21.6v14c0 10.6 3.8 20.4 10.1 28h-59l-7.2-57zm-179.8-67.9l14.8-2.3 37.9 94.7-48.3-17.9 29.8-22.3-44.4-26.6 10.2-25.6zm42.5 24l25.3 5.1 25.3-5.1-25.3 63.4-25.3-63.4zM389.4 328v16h-16v-16h16zm-32-4.2V360h16v32.2c-14.8-25.7-40.8-44.1-70.7-48.7l-41.3-6.4v-8.3c22.7-13.2 40.4-34.1 49.3-59.2 4.9 25.3 23 45.8 46.7 54.2zm-24-107.8c0 10.5-6.9 19.4-16.3 22.6.1-2.2.3-4.4.3-6.6v-38.5c9.3 3.3 16 12.1 16 22.5zm-224 16v-72c0-17.6 14.4-32 32-32h83.2c18.8 0 37.1-5.1 53.1-14.7 14.7 9 23.7 24.9 23.7 42.5V232c0 52.9-43.1 96-96 96s-96-43.1-96-96zm96 112c14.1 0 27.6-2.7 40-7.5v6l-7.6 18.9-32.4 6.5-32.4-6.5-7.6-18.9v-6c12.5 4.8 25.9 7.5 40 7.5zM44.2 416.4c9.4-29.9 35.4-52.3 66.4-57.1l8.7-1.3-11.8 29.4 35.6 21.4-34.2 25.7 88.5 32.9V480h-94.9l6.9-55-15.9-2-7.1 57H24.3l19.9-63.6zM453.4 400c-13.2 0-24-10.8-24-24s10.8-24 24-24 24 10.8 24 24-10.7 24-24 24z"/><path class="st1" d="M445.4 368h16v16h-16zm-272-180c0-11-9-20-20-20s-20 9-20 20 9 20 20 20 20-9 20-20zm-24 0c0-2.2 1.8-4 4-4s4 1.8 4 4-1.8 4-4 4-4-1.8-4-4zm108 20c11 0 20-9 20-20s-9-20-20-20-20 9-20 20 9 20 20 20zm0-24c2.2 0 4 1.8 4 4s-1.8 4-4 4-4-1.8-4-4 1.8-4 4-4zm3.6 82.5l-15.2-5.1c-.1.2-7.1 18.5-40.4 18.5-33.2 0-40.2-17.9-40.5-18.6l-15.1 5.2c.4 1.2 10.4 29.5 55.6 29.5s55.2-28.3 55.6-29.5z"/></svg>