<svg id="Layer_1" xmlns="http://www.w3.org/2000/svg" viewBox="0 0 1116.2 747.9"><style>.st0{fill:#d59f63}.st1{fill:#cd915a}.st2{fill:#fad7a5}.st3{fill:#f0c891}.st4{fill:#ffe1b4}.st5{fill:#fad098}.st6{fill:#f5821f}.st7{fill:#d95910}.st8{fill:#b48764}.st9{fill:#007481}.st10{fill:#004c58}.st11{fill:#966d50}.st12{fill:#c39772}.st13{fill:#64463c}.st14{fill:#553732}.st15{fill:#e6af78}.st16{fill:#d29b6e}.st17{fill:#f0c087}.st18{fill:#62489d}.st19{fill:#fff;stroke:#020100;stroke-width:14;stroke-linecap:round;stroke-linejoin:round;stroke-miterlimit:10}.st20{fill:#003764}.st21{font-family:&apos;RobotoSlab-Bold&apos;}.st22{font-size:61.9806px}.st23{font-family:&apos;RobotoSlab-Regular&apos;}.st24{font-size:28.8644px}</style><path class="st0" d="M988.7 332.5c52.1 0 94.3 42.2 94.3 94.3 0 60 8.6 120 8.6 120s-42.8 25.7-102.8 34.3c-60-8.6-102.8-34.3-102.8-34.3s8.6-60 8.6-120c-.1-52.1 42.1-94.3 94.1-94.3z"/><path class="st1" d="M954.4 418.2v-25.7c0-29.1 20.8-53.4 48.3-58.8-4.6-.7-9.2-1.2-14-1.2-52.1 0-94.3 42.2-94.3 94.3 0 60-8.6 120-8.6 120s42.8 25.7 102.8 34.3V452.5l-34.2-34.3z"/><path class="st2" d="M1092.5 608.8l-58.8-23.5c-6.5-2.6-10.8-8.9-10.8-15.9v-31.2h-68.6v31.2c0 7-4.3 13.3-10.8 15.9l-58.8 23.5c-9.8 3.9-16.2 13.4-16.2 23.9v34c0 4.7 3.8 8.6 8.6 8.6v77.1h222.8v-77.1h8.6v-42.6c.2-10.5-6.2-20-16-23.9z"/><path class="st3" d="M988.7 581c12.4 0 24.2-2.3 35.2-6.3-.6-1.7-.9-3.5-.9-5.3v-31.2h-68.6v31.2c0 1.8-.3 3.6-.9 5.3 11.1 4 22.9 6.3 35.2 6.3zm-111.4 85.7v25.7h8.6c4.7 0 8.6 3.8 8.6 8.6v51.4h25.7v-85.7h-42.9z"/><path class="st4" d="M988.7 555.3c-42.6 0-68.6-34.5-68.6-77.1v-34.3c24.7 0 27.4-17.7 31.9-27.7 1.3-3 5.1-4 7.7-2 36.3 27.4 106.1 6.9 106.1 64 0 42.6-34.5 77.1-77.1 77.1z"/><path class="st5" d="M954.4 478.2v-64.3c-1 .5-1.9 1.2-2.4 2.4-4.4 10-7.2 27.7-31.9 27.7v31.5c0 35.4 14.2 67.8 48.4 77.1 14.7 4 28.8 3.4 41.6-.3-32.1-9.4-55.7-39-55.7-74.1z"/><path class="st6" d="M1092.5 608.8l-36.6-14.6c-6.2 31.5-33.9 55.4-67.3 55.4s-61.1-23.8-67.3-55.4l-36.6 14.6c-9.8 3.9-16.2 13.4-16.2 23.9v119.7h197.1v-77.1h42.8v-42.6c.3-10.5-6.1-20-15.9-23.9z"/><path class="st7" d="M1065.8 658.1l38.9-38.9c2.5 4 3.9 8.6 3.9 13.5v42.6h-42.8v-17.2zm-9.8-63.9c-6.2 31.5-33.9 55.4-67.3 55.4-33.3 0-61.1-23.8-67.3-55.4l-24.1 9.6c10.2 41 47.2 71.4 91.4 71.4s81.1-30.4 91.4-71.4l-24.1-9.6z"/><path class="st8" d="M620.3 658.1h51.4v94.3h-51.4z"/><path class="st9" d="M849.8 550.1l-75.3-20.5h-68.6l-75.3 20.5c-11.2 3-18.9 13.2-18.9 24.8v83.2h51.4v94.3h205.7V574.9c0-11.6-7.8-21.7-19-24.8z"/><path class="st10" d="M816.4 541l-41.9-11.4h-68.6L664 541c5.5 37.2 37.5 65.7 76.2 65.7s70.7-28.5 76.2-65.7z"/><path class="st8" d="M697.4 499.6v30c0 23.7 19.2 42.8 42.8 42.8 23.7 0 42.8-19.2 42.8-42.8v-30h-85.6z"/><path class="st11" d="M697.4 528.7c13.1 6 27.5 9.4 42.8 9.4s29.8-3.4 42.8-9.4v-29.1h-85.7v29.1h.1z"/><path class="st12" d="M817.3 401.1v-51.4H663.1v51.4c-9.5 0-17.1 7.7-17.1 17.1s7.7 17.1 17.1 17.1c0 42.6 34.5 77.1 77.1 77.1s77.1-34.5 77.1-77.1c9.5 0 17.1-7.7 17.1-17.1.1-9.5-7.6-17.1-17.1-17.1z"/><path class="st8" d="M705.9 435.3v-85.7h-42.8V401c-9.5 0-17.1 7.7-17.1 17.1s7.7 17.1 17.1 17.1c0 42.6 34.5 77.1 77.1 77.1 7.4 0 14.6-1.1 21.4-3.1-32.1-9.1-55.7-38.7-55.7-73.9z"/><path class="st13" d="M807 404.7c2.9-2.2 6.5-3.6 10.4-3.6 3.1 0 6 .9 8.6 2.4v-53.8c0-12.8-7.1-23.9-17.5-29.7-1.9-12.3-12.5-21.7-25.3-21.7h-68.6c-33.1 0-60 26.9-60 60v45.2c2.5-1.5 5.4-2.4 8.6-2.4 1.1 0 2.2.1 3.2.3 8.3 1.6 16.7-3 18.8-11.2l2.1-8.4c.9-3.7 4.2-6.4 8-6.5 17.9-.5 68.5-3.1 96.4-17l5 29.9c1.1 6.8 4.9 12.6 10.3 16.5z"/><path class="st14" d="M705.9 349.6c0-28.4 23-51.4 51.4-51.4h-42.8c-33.1 0-60 26.9-60 60v45.2c2.5-1.5 5.4-2.4 8.6-2.4 2.7 0 5.2.6 7.4 1.7 5.5 2.8 11.5-.5 13-6.5l3.7-14.6c.9-3.7 4.2-6.4 8-6.5 2.8-.1 6.5-.2 10.7-.4v-25.1z"/><path class="st10" d="M611.7 574.9v83.2h51.4V630c0-9.5-3.2-18.8-9-26.3l-35.7-45.9c-4.2 4.6-6.7 10.6-6.7 17.1z"/><path class="st15" d="M928.3 703.7l-28-9.3c-3.5-1.2-5.9-4.4-5.9-8.1v-19.5H843v19.5c0 3.7-2.4 7-5.9 8.1l-28 9.3c-10.5 3.5-17.6 13.3-17.6 24.4v24.3h154.2v-24.3c.2-11.1-6.9-20.9-17.4-24.4z"/><path class="st16" d="M868.8 701c11.4 0 22.4-2.3 32.3-6.4l-.8-.3c-3.5-1.2-5.9-4.4-5.9-8.1v-19.5H843v19.5c0 3.7-2.4 7-5.9 8.1l-.8.3c10.1 4.1 21 6.4 32.5 6.4z"/><path class="st13" d="M868.8 486.7c-42.6 0-77.1 34.5-77.1 77.1v25.7h154.2v-25.7c0-42.5-34.5-77.1-77.1-77.1z"/><path class="st14" d="M894.5 491.2c-8.1-2.9-16.7-4.5-25.7-4.5-42.6 0-77.1 34.5-77.1 77.1v25.7h51.4v-25.7c0-33.5 21.4-62 51.4-72.6z"/><path class="st17" d="M937 572.4h-.6c-8.9 0-16.2-7.3-16.2-16.2 0-4.6-4.6-7.8-8.9-6.3-63.3 22.5-102.5 22.5-102.5 22.5h-8.2c-8.6 0-16.1 6.2-17.3 14.6-1.5 10.6 6.7 19.6 17 19.6h8.6v7.7c0 32.2 25.1 59.4 57.3 60.8 34.4 1.5 62.7-25.9 62.7-59.9v-8.6h8.6c10.3 0 18.5-9.1 17-19.6-1.4-8.4-9-14.6-17.5-14.6z"/><path class="st18" d="M920.2 469.6l-51.4 22-51.5-22V521l51.5-22 51.4 22z"/><path class="st15" d="M843.1 615.3v-46.4c-20.3 3.5-34.3 3.6-34.3 3.6h-8.6c-9.5 0-17.1 7.7-17.1 17.1 0 9.5 7.7 17.1 17.1 17.1h8.6v6.1c0 32.8 25.3 61.5 58.1 62.5 6.6.2 13-.7 19-2.5-24.8-7.4-42.8-30.3-42.8-57.5z"/><path class="st18" d="M928.3 703.7l-14-4.7c-8.6 16.4-25.8 27.7-45.6 27.7s-37-11.2-45.6-27.7l-14 4.7c-10.5 3.5-17.6 13.3-17.6 24.4v24.3h154.2v-24.3c.2-11.1-6.9-20.9-17.4-24.4z"/><path d="M740.2 477.1c8.7 0 17.1-4.1 23-11.3 2.6-3.2 2.1-7.9-1.1-10.5-3.2-2.6-7.9-2.1-10.5 1.1-3 3.7-7 5.8-11.3 5.8s-8.3-2.1-11.3-5.8c-2.6-3.2-7.3-3.7-10.5-1.1s-3.7 7.3-1.1 10.5c5.7 7.2 14.1 11.3 22.8 11.3zm-34.3-42.8c4.1 0 7.5-3.4 7.5-7.5v-8.6c0-4.1-3.4-7.5-7.5-7.5s-7.5 3.4-7.5 7.5v8.6c0 4.1 3.4 7.5 7.5 7.5zm68.6 0c4.1 0 7.5-3.4 7.5-7.5v-8.6c0-4.1-3.4-7.5-7.5-7.5s-7.5 3.4-7.5 7.5v8.6c0 4.1 3.4 7.5 7.5 7.5zM988.7 520c8.7 0 17.1-4.1 23-11.3 2.6-3.2 2.1-7.9-1.1-10.5-3.2-2.6-7.9-2.1-10.5 1.1-3 3.7-7 5.8-11.3 5.8s-8.3-2.1-11.3-5.8c-2.6-3.2-7.3-3.7-10.5-1.1s-3.7 7.3-1.1 10.5c5.7 7.1 14.1 11.3 22.8 11.3zm-34.3-42.9c4.1 0 7.5-3.4 7.5-7.5V461c0-4.1-3.4-7.5-7.5-7.5s-7.5 3.4-7.5 7.5v8.6c0 4.2 3.4 7.5 7.5 7.5zm68.6 0c4.1 0 7.5-3.4 7.5-7.5V461c0-4.1-3.4-7.5-7.5-7.5s-7.5 3.4-7.5 7.5v8.6c0 4.2 3.4 7.5 7.5 7.5z"/><path d="M1095.3 601.9l-58.8-23.5c-.3-.1-.6-.3-.9-.4 40.6-9.2 59.8-24.7 60.7-25.4 2-1.7 3-4.3 2.7-6.9-.1-.6-8.5-60.1-8.5-118.9 0-56.1-45.6-101.8-101.8-101.8-56.1 0-101.7 45.7-101.7 101.8 0 15.4-.7 34.2-1.8 52l-16.4 8.2-48.1-24c-.1-.1-.3-.1-.4-.2 2.3-6.7 3.8-13.7 4.3-21 10.1-3.1 17.4-12.5 17.4-23.5 0-7.4-3.3-14.1-8.6-18.7v-49.9c0-13.8-7-26.7-18.4-34.4-3.9-14.4-16.8-24.5-32-24.5h-68.6c-37.2 0-67.5 30.3-67.5 67.5v41.3c-5.2 4.5-8.6 11.2-8.6 18.7 0 11.1 7.3 20.4 17.4 23.5 1.9 25.2 14.9 47.3 34 61.5V524l-62 18.6c-14.2 4.2-23.7 17-23.7 31.8v83.7c0 4.1 3.4 7.5 7.5 7.5h1.1v86.8c0 4.1 3.4 7.5 7.5 7.5s7.5-3.4 7.5-7.5v-86.8h27.8v86.8c0 4.1 3.4 7.5 7.5 7.5s7.5-3.4 7.5-7.5V623.1c0-6.6-1.9-12.9-5.6-18.4L652 585.5c-2.3-3.4-7-4.4-10.4-2.1-3.4 2.3-4.4 7-2.1 10.4l12.8 19.2c2 3 3.1 6.5 3.1 10.1v27.6H619v-76.2c0-8.1 5.2-15.1 13-17.4l25.7-7.7c9 37.5 43 65 82.3 65 14.1 0 27.8-3.5 40.1-10.1 4.5 6.1 11.7 10.1 19.9 10.1h1.1v1.1c0 25.1 13.8 47.1 34.3 58.7v12.2c0 .5-.3.9-.7 1l-28 9.3c-13.6 4.5-22.7 17.2-22.7 31.5v24.3c0 4.1 3.4 7.5 7.5 7.5s7.5-3.4 7.5-7.5v-24.3c0-7.8 5-14.8 12.4-17.3l8.2-2.7c10.9 16.2 29.2 26.1 48.9 26.1 19.8 0 38.1-9.9 48.9-26.1l8.2 2.7c7.4 2.5 12.4 9.4 12.4 17.3v24.3c0 4.1 3.4 7.5 7.5 7.5s7.5-3.4 7.5-7.5v-24.3c0-14.3-9.1-27-22.7-31.5l-28-9.3c-.4-.1-.7-.6-.7-1V674c15.3-8.7 26.9-23.2 31.8-40.5 14.2 14.8 34 23.5 55 23.5 33.2 0 62.4-21.5 72.4-52.7l28.6 11.5c7 2.8 11.4 9.4 11.4 16.9v35.1h-27.9v-9.6c0-4.1-3.4-7.5-7.5-7.5s-7.5 3.4-7.5 7.5v94.3c0 4.1 3.4 7.5 7.5 7.5s7.5-3.4 7.5-7.5v-69.6h19.3v69.6c0 4.1 3.4 7.5 7.5 7.5s7.5-3.4 7.5-7.5v-69.6h1.1c2 0 3.9-.8 5.3-2.2s2.2-3.3 2.2-5.3v-42.6c.4-13.8-7.8-25.9-20.5-30.9zM902 426.8c0-47.8 38.9-86.8 86.8-86.8s86.8 38.9 86.8 86.8c0 50.4 6.1 101.3 8 116.5-6.7 4.4-23.9 14.1-53 20.4v-11.9c4-2.3 7.8-4.8 11.4-7.7 14.8-11.9 25.2-28.6 29.4-47 1.4-6.1 2.1-12.5 2.1-18.8 0-42.4-30.7-48.5-60.3-54.4-18.9-3.7-38.4-7.6-53.9-20-2.3-1.8-5.3-2.2-7.9-.9s-4.3 3.9-4.3 6.8c0 .2-.3 19.9-28.6 27-4 1-6.5 5.1-5.5 9.1s5.1 6.5 9.1 5.5c23.7-5.9 33.3-19.2 37.2-29.2 16.3 9.6 34.5 13.3 50.9 16.5 31.7 6.3 48.2 10.9 48.2 39.6 0 5.2-.6 10.4-1.7 15.5-3.4 15.1-12 28.9-24.2 38.7-12.5 10.1-27.6 15.4-43.7 15.4-14.7 0-28.7-4.5-40.5-13-4.3-11.9-11.3-22.7-20.5-31.6v-33.5c0-2.6-1.3-5-3.6-6.4s-5-1.5-7.3-.3l-16.2 8.1c.8-15.8 1.3-30.7 1.3-44.4zm10.7 54.9v27.1l-27.1-13.6 27.1-13.5zm-87.9 0l27.1 13.6-27.1 13.6v-27.2zm-15 21.4c-8.4 8.2-14.9 17.9-19.3 28.5 0-.7.1-1.4.1-2.1v-26.3c7.5-5.5 14-12.3 19.3-19.9l-.1 19.8zm-139.2-67.8c0-4.1-3.4-7.5-7.5-7.5-5.3 0-9.6-4.3-9.6-9.6s4.3-9.6 9.6-9.6h17.1c3.2 0 6.1-2.1 7.1-5.1l6.9-20.7c17.2-.4 70.7-2.8 100.8-17.9 3.7-1.9 5.2-6.4 3.4-10.1-1.9-3.7-6.4-5.2-10.1-3.4-32.3 16.1-98.8 16.3-99.5 16.3-3.2 0-6.1 2.1-7.1 5.1l-6.9 20.6H662V358c0-28.9 23.5-52.5 52.5-52.5h68.6c9 0 16.5 6.5 17.9 15.3.4 2.3 1.7 4.2 3.7 5.4 8.5 4.8 13.7 13.7 13.7 23.2v43.9h-9.7c-4.1 0-7.5 3.4-7.5 7.5s3.4 7.5 7.5 7.5h8.6c5.3 0 9.6 4.3 9.6 9.6s-4.3 9.6-9.6 9.6c-4.1 0-7.5 3.4-7.5 7.5 0 38.4-31.2 69.6-69.6 69.6-38.4.4-69.6-30.9-69.6-69.3zm69.6 84.7c12.6 0 24.6-2.8 35.3-7.7v17.4c0 19.5-15.9 35.3-35.3 35.3-19.5 0-35.3-15.8-35.3-35.2v-17.5c10.7 4.9 22.7 7.7 35.3 7.7zm-67.9 24.9l18.5-5.6c4.6 23.1 25 40.6 49.4 40.6 19.4 0 36.2-11 44.6-27.1-.5 3.6-.7 7.3-.7 11v7.1c-5.4 4.6-8.6 11.4-8.6 18.6-10.7 6.3-22.8 9.6-35.3 9.6-32.6.1-60.8-22.8-67.9-54.2zM898 701.5l4.8 1.6c-8.3 10.1-20.7 16.1-34 16.1s-25.7-6-34-16.1l4.8-1.6c6.6-2.2 11-8.3 11-15.2v-6c5.8 1.6 11.9 2.5 18.2 2.5s12.4-.9 18.2-2.5v6c0 6.9 4.4 13 11 15.2zm-29.2-33.7c-28.9 0-52.5-23.5-52.5-52.5v-8.6c0-4.1-3.4-7.5-7.5-7.5h-8.6c-5.3 0-9.6-4.3-9.6-9.6 0-3.4 1.8-6.5 4.8-8.3.7-.4 1.3-.9 1.8-1.5 18.5-.5 78.6-4 118.1-26.6 3.6-2.1 4.8-6.6 2.8-10.2a7.52 7.52 0 0 0-10.2-2.8c-34.6 19.8-89 23.7-108.7 24.5v-.9c0-13.9 4.2-27.5 11.9-38.8.6.9 1.4 1.8 2.4 2.4 1.2.7 2.6 1.1 3.9 1.1 1.1 0 2.3-.3 3.4-.8l48.1-24 48.1 24c1.1.5 2.2.8 3.4.8 1.4 0 2.7-.4 3.9-1.1 1-.6 1.8-1.4 2.4-2.4 7.7 11.4 11.9 24.9 11.9 38.8v10.9c0 2.7 1.4 5.1 3.7 6.5 3 1.8 4.8 4.9 4.8 8.3 0 5.3-4.3 9.6-9.6 9.6h-8.6c-4.1 0-7.5 3.4-7.5 7.5v8.6c-.2 29-23.7 52.6-52.6 52.6zm119.9-25.7c-20.8 0-40-10.6-51.2-27.8 13.5-.1 24.5-11.1 24.5-24.6 0-7.2-3.2-13.9-8.6-18.6V564c0-3-.2-6-.5-9 11.1 5.2 23.3 7.9 35.8 7.9 9.1 0 18.2-1.5 26.8-4.4v11c0 10.1 6.1 19.1 15.5 22.9l16.2 6.5c-7.8 25.5-31.5 43.2-58.5 43.2z"/><path d="M890.6 626.6c-3.2-2.6-7.9-2.1-10.5 1.1-3 3.7-7 5.8-11.3 5.8s-8.3-2.1-11.3-5.8c-2.6-3.2-7.3-3.7-10.5-1.1s-3.7 7.3-1.1 10.5c5.8 7.2 14.2 11.3 23 11.3 8.7 0 17.1-4.1 23-11.3 2.4-3.2 1.9-7.9-1.3-10.5z"/><circle cx="843.2" cy="598.2" r="7.5"/><circle cx="894.2" cy="598.2" r="7.5"/><path class="st19" d="M303 7c162.6 0 294.4 91.8 294.4 204.9 0 53.3-29.2 101.8-77.1 138.3 2.6 13 7.1 26.5 14.9 39.4 30.3 50.5 103.8 92.1 103.8 92.1S526.3 423.1 443.8 392c-41.8 15.9-89.8 24.9-140.7 24.9-162.7 0-294.5-91.8-294.5-205S140.4 7 303 7z"/><text transform="translate(81.212 165.674)" class="st20 st21 st22">What Patients</text><text transform="translate(115.546 240.074)" class="st20 st21 st22">Have to Say</text><text transform="translate(142.587 314.474)" class="st20 st21 st22">About PAs</text><text transform="translate(272.768 483.83)" class="st20 st23 st24">2014 Harris Poll *</text></svg>