<svg xmlns="http://www.w3.org/2000/svg" viewBox="0 0 496 496"><path d="M216 128h272v48H216zM56 224h432v56H56zm0 96h432v56H56z" fill="#ffa64d"/><g fill="#333"><path d="M80 104h16v16H80zm32 0h16v16h-16zm32 0h16v16h-16zm32 0h16v16h-16zm-96 40h16v16H80zm32 0h16v16h-16zm32 0h16v16h-16zm32 0h16v16h-16zm-96 40h16v16H80zm32 0h16v16h-16zm32 0h16v16h-16zm32 0h16v16h-16z"/><path d="M64 72v-.208C73.656 64.488 80 53.016 80 40 80 17.944 62.056 0 40 0S0 17.944 0 40c0 13.016 6.344 24.488 16 31.792V496h16V79.192a39.963 39.963 0 0 0 16 0V496h16v-72h432V72H64zm416 48H224V88h256v32zm0 160v32H64v-32h16v-16H64v-32h416v32H96v16h384zm-256-64v-32h256v32H224zm0-48v-32h256v32H224zm-16-80v128H64V88h144zM16 40c0-13.232 10.768-24 24-24s24 10.768 24 24-10.768 24-24 24-24-10.768-24-24zm48 368v-32h384v-16H64v-32h416v32h-16v16h16v32H64z"/></g></svg>