<svg id="Capa_1" xmlns="http://www.w3.org/2000/svg" viewBox="0 0 496 496"><style>.st0{fill:#017581}.st1{fill:#003c69}</style><path class="st0" d="M104 209.8h288v48H104zm104 184c-30.9 0-56-25.1-56-56s25.1-56 56-56v16c-22.1 0-40 17.9-40 40s17.9 40 40 40v16zm72 0c-30.9 0-56-25.1-56-56s25.1-56 56-56v16c-22.1 0-40 17.9-40 40s17.9 40 40 40v16zm-56 100.9l-40-20-40 20V385.8h16v83l24-12 24 12v-59h16z"/><path class="st0" d="M320 494.7l-40-20-40 20V385.8h16v83l24-12 24 12v-59h16z"/><path class="st1" d="M96 137.8v128h304v-128h-16v64H112v-64H96zm288 80v32H112v-32h272zm56 64H56c-30.9 0-56 25.1-56 56s25.1 56 56 56h384c30.9 0 56-25.1 56-56s-25.1-56-56-56zm-384 96c-22.1 0-40-17.9-40-40s17.9-40 40-40h344.9c-10.4 10.2-16.9 24.3-16.9 40s6.5 29.8 16.9 40H56zm384 0c-22.1 0-40-17.9-40-40s17.9-40 40-40 40 17.9 40 40-17.9 40-40 40z"/><path class="st1" d="M40 224.3c2.5.9 5.2 1.5 8 1.5s5.5-.6 8-1.5v41.5h16v-64c0-10.4-6.7-19.2-16-22.5v-70.1l192 69.1 208-74.9V76.2L248 1.3 40 76.2v103c-9.3 3.3-16 12.1-16 22.5v64h16v-41.4zM56 87.4l192-69.1 192 69.1v4.8l-192 69.1L56 92.2v-4.8zm-8 106.4c4.4 0 8 3.6 8 8s-3.6 8-8 8-8-3.6-8-8 3.6-8 8-8z"/></svg>