<svg id="Capa_1" xmlns="http://www.w3.org/2000/svg" viewBox="0 0 496 496"><style>.st0{fill:#007481}.st1{fill:#003764}</style><path class="st0" d="M176 128h144v128H176z"/><path class="st1" d="M432 256V32h-32V0H96v32H64v224c-17.6 0-32 14.4-32 32s14.4 32 32 32v176h368V320c17.6 0 32-14.4 32-32s-14.4-32-32-32zM80 48h48V32h-16V16h272v16H144v16h272v208H80V48zm72 432h-40v-48h40v48zm144 0h-40v-48h40v48zm-56 0h-40v-48h40v48zm144 0h-40v-48h40v48zm48-176h-32v16h16v160h-16v-64h-72v64h-16v-64H184v64h-16v-64H96v64H80V320h304v-16H64c-8.8 0-16-7.2-16-16s7.2-16 16-16h368c8.8 0 16 7.2 16 16s-7.2 16-16 16z"/><path class="st1" d="M272 160h-48v16h-16v48h16v16h48v-16h16v-48h-16v-16zm0 48h-16v16h-16v-16h-16v-16h16v-16h16v16h16v16zm0-144h-48v48h48V64zm-16 32h-16V80h16v16zm32 16h48V64h-48v48zm16-32h16v16h-16V80zm48-16v48h48V64h-48zm32 32h-16V80h16v16zM96 112h48V64H96v48zm16-32h16v16h-16V80zm96-16h-48v48h48V64zm-16 32h-16V80h16v16zm160 80h48v-48h-48v48zm16-32h16v16h-16v-16zm-16 96h48v-48h-48v48zm16-32h16v16h-16v-16zM96 176h48v-48H96v48zm16-32h16v16h-16v-16zm-16 96h48v-48H96v48zm16-32h16v16h-16v-16zm200 128H120v64h256v-64h-64zm-144 48h-32v-32h32v32zm48 0h-32v-32h32v32zm48 0h-32v-32h32v32zm48 0h-32v-32h32v32zm48-32v32h-32v-32h32z"/></svg>