<svg id="Capa_1" xmlns="http://www.w3.org/2000/svg" viewBox="0 0 497 497"><style>.st0{fill:#003c69}.st1,.st2{fill:#fff}.st2{display:none}</style><path class="st0" d="M391.8 168.7c-3.6-5.2-3.6-12.2 0-17.3 4.9-7.1 6.9-16.1 4.9-25.2-2.1-9.1-7.8-16.3-15.3-20.6-5.5-3.1-8.5-9.4-7.5-15.6 1.3-8.5-.7-17.5-6.5-24.8-5.8-7.3-14.1-11.3-22.7-11.9-6.3-.4-11.7-4.8-13.6-10.8-2.5-8.2-8.3-15.4-16.6-19.5-8.4-4-17.6-4.1-25.6-.9-5.8 2.3-12.6.8-16.9-3.9C266.1 12 257.8 8 248.5 8s-17.6 4-23.4 10.3c-4.3 4.6-11.1 6.2-16.9 3.9-8-3.2-17.2-3.2-25.6.9-8.4 4-14.2 11.2-16.6 19.5-1.8 6-7.3 10.4-13.6 10.8-8.6.6-16.9 4.6-22.7 11.9s-7.9 16.3-6.5 24.8c1 6.2-2 12.5-7.5 15.6-7.5 4.3-13.2 11.5-15.3 20.6-2.1 9.1 0 18.1 4.9 25.2 3.6 5.2 3.6 12.2 0 17.3-4.9 7.1-6.9 16.1-4.9 25.2 2.1 9.1 7.8 16.3 15.3 20.6 5.5 3.1 8.5 9.4 7.5 15.6-1.3 8.5.7 17.5 6.5 24.8 5.8 7.3 14.1 11.3 22.7 11.9 6.3.4 11.7 4.8 13.6 10.8 2.5 8.2 8.3 15.4 16.6 19.5 8.4 4 17.6 4.1 25.6.9 5.8-2.3 12.6-.8 16.9 3.9 5.8 6.4 14.1 10.4 23.4 10.4 9.3 0 17.6-4 23.4-10.3 4.3-4.6 11.1-6.2 16.9-3.9 8 3.2 17.2 3.2 25.6-.9 8.4-4 14.2-11.2 16.6-19.5 1.8-6 7.3-10.4 13.6-10.8 8.6-.6 16.9-4.6 22.7-11.9s7.9-16.3 6.5-24.8c-1-6.2 2-12.5 7.5-15.6 7.5-4.3 13.2-11.5 15.3-20.6 2.1-9.3.1-18.3-4.8-25.4z"/><path class="st1" d="M248.5 280c-66.2 0-120-53.8-120-120s53.8-120 120-120 120 53.8 120 120-53.8 120-120 120zm0-224c-57.3 0-104 46.7-104 104s46.7 104 104 104 104-46.7 104-104-46.7-104-104-104z"/><path class="st1" d="M248.5 248c-48.5 0-88-39.5-88-88s39.5-88 88-88 88 39.5 88 88-39.5 88-88 88zm0-160c-39.7 0-72 32.3-72 72s32.3 72 72 72 72-32.3 72-72-32.3-72-72-72z"/><path class="st1" d="M248.5 320c-11.1 0-21.8-4.7-29.3-12.9-2-2.2-5.3-2.9-8-1.8-10.3 4.1-22 3.8-32-1.1-10-4.8-17.6-13.7-20.8-24.4-.9-2.8-3.5-4.9-6.4-5.1-11.1-.8-21.5-6.2-28.4-14.9-6.9-8.7-9.9-20-8.2-31 .5-2.9-1-6-3.6-7.4-9.7-5.5-16.7-14.9-19.1-25.7s-.3-22.3 6.1-31.5c1.7-2.5 1.7-5.8 0-8.2-6.3-9.2-8.5-20.6-6.1-31.5s9.4-20.2 19.1-25.7c2.6-1.5 4-4.5 3.6-7.4-1.7-11 1.3-22.3 8.2-31 6.9-8.7 17.3-14.1 28.4-14.9 2.9-.2 5.6-2.3 6.4-5.1 3.2-10.7 10.8-19.6 20.8-24.4 10-4.8 21.7-5.2 32-1.1 2.7 1.1 6 .3 8-1.8C226.7 4.7 237.4 0 248.5 0c11.1 0 21.8 4.7 29.3 12.9 2 2.2 5.3 2.9 8 1.8 10.4-4.1 22-3.7 32 1.1s17.6 13.7 20.8 24.4c.8 2.8 3.5 4.9 6.4 5.1 11.1.8 21.5 6.2 28.4 14.9 6.9 8.7 9.9 20 8.2 31-.5 3 1 5.9 3.6 7.4 9.7 5.5 16.6 14.9 19.1 25.7s.3 22.3-6.1 31.5c-1.7 2.5-1.7 5.8 0 8.2 6.3 9.2 8.6 20.6 6.1 31.5s-9.4 20.2-19.1 25.7c-2.6 1.5-4 4.5-3.6 7.4 1.7 11-1.3 22.3-8.2 31-6.9 8.7-17.3 14.1-28.4 14.9-2.9.2-5.6 2.3-6.5 5.1-3.2 10.7-10.8 19.6-20.8 24.4-10 4.8-21.7 5.2-32 1.1-2.7-1.1-6-.3-8 1.8-7.4 8.4-18.1 13.1-29.2 13.1zm-34.8-31.3c6.4 0 12.7 2.6 17.2 7.5 9.1 10 26 10 35.1 0 6.5-7.1 16.8-9.5 25.8-5.9 6.3 2.5 13.1 2.3 19.2-.6s10.5-8.1 12.4-14.6c2.8-9.2 11.1-15.8 20.7-16.5 6.8-.5 12.8-3.6 17-8.9 4.2-5.3 5.9-11.9 4.9-18.5-1.5-9.5 3.1-19.1 11.5-23.8 5.9-3.3 9.9-8.8 11.4-15.4s.2-13.3-3.6-18.8c-5.5-7.9-5.5-18.5 0-26.4 3.8-5.6 5.2-12.3 3.6-18.8s-5.6-12-11.4-15.4c-8.4-4.8-13-14.3-11.5-23.8 1.1-6.7-.7-13.3-4.9-18.5-4.2-5.3-10.2-8.4-17-8.9-9.6-.7-17.9-7.3-20.7-16.5-2-6.5-6.4-11.7-12.4-14.6-6.1-2.9-12.9-3.2-19.2-.6-8.9 3.6-19.3 1.2-25.8-5.9-9.2-10-25.9-10-35.1 0-6.5 7.1-16.8 9.5-25.8 5.9-6.3-2.5-13.1-2.3-19.2.6s-10.5 8.1-12.4 14.6c-2.8 9.2-11.1 15.8-20.7 16.5-6.8.5-12.8 3.6-17 8.9S130 82.1 131 88.8c1.5 9.5-3.1 19.1-11.5 23.8-5.9 3.3-10 8.8-11.5 15.4s-.2 13.3 3.6 18.8c5.5 7.9 5.5 18.5 0 26.4-3.8 5.6-5.2 12.3-3.6 18.8s5.6 12 11.4 15.4c8.4 4.7 13 14.3 11.5 23.8-1.1 6.7.7 13.3 4.9 18.5 4.2 5.3 10.2 8.4 17 8.9 9.6.7 17.9 7.3 20.7 16.5 2 6.5 6.4 11.7 12.4 14.6 6.1 2.9 12.9 3.2 19.2.6 2.8-1 5.8-1.6 8.6-1.6zM274.8 497l-23-161.1 15.9-2.2L286.1 463l40.2-40.2 40.6 13.6-19.1-146.5 15.9-2 22.4 171.7-55.4-18.4z"/><path transform="rotate(-7.765 323.372 376.028)" class="st1" d="M315.4 319.5h16v113h-16z"/><path class="st1" d="M222.1 497l-55.8-55.8-55.4 18.4 22.4-171.7 15.9 2-19.1 146.5 40.6-13.6 40.1 40.2 18.5-129.3 15.8 2.2z"/><path transform="rotate(-82.259 173.57 375.986)" class="st1" d="M117 368h113v16H117z"/><path class="st1" d="M248.1 145c3.2 0 6-1.1 8.3-3.4 2.3-2.3 3.4-5.1 3.4-8.3 0-3.2-1.1-6-3.4-8.3-2.3-2.3-5.1-3.4-8.3-3.4-3.2 0-6 1.1-8.3 3.4-2.3 2.3-3.4 5.1-3.4 8.3h-15.6c0-7.6 2.7-14 8-19.3 5.3-5.3 11.8-8 19.3-8 7.6 0 14 2.7 19.3 8 5.3 5.3 8 11.8 8 19.3 0 7-2.3 13.1-7 18.2 1.6 1.1 3 2.4 4.5 3.8 6.9 6.9 10.3 15.2 10.3 24.8s-3.4 18-10.3 24.8-15.2 10.3-24.8 10.3-18-3.4-24.8-10.3-10.3-15.1-10.3-24.8h15.6c0 5.4 1.9 10 5.7 13.8 3.8 3.8 8.4 5.7 13.8 5.7s10-1.9 13.8-5.7c3.8-3.8 5.7-8.4 5.7-13.8s-1.9-10-5.7-13.8c-3.8-3.8-8.4-5.7-13.8-5.7h-7.8V145h7.8z"/><path class="st2" d="M229.2 172.2l-15.4-4.5 12.8-61.9h47.9v15.6h-35.2l-5.4 25.9c4.1-1.6 8.5-2.4 13.2-2.4 9.7 0 18 3.4 24.8 10.3s10.3 15.2 10.3 24.8-3.4 18-10.3 24.8-15.2 10.3-24.8 10.3-18-3.4-24.8-10.3c-3.8-3.8-6.5-7.9-8.2-12.6l15.1-4.4c1 2.2 2.4 4.2 4.1 5.9 3.8 3.8 8.4 5.7 13.8 5.7s10-1.9 13.8-5.7c3.8-3.8 5.7-8.4 5.7-13.8s-1.9-10-5.7-13.8c-3.8-3.8-8.4-5.7-13.8-5.7s-10 1.9-13.8 5.7c-1.8 2-3.2 4-4.1 6.1z"/></svg>