<svg xmlns="http://www.w3.org/2000/svg" viewBox="0 0 496 496"><path d="M248 464l80-32-32-24 40-24-16-40h-32zm0 0l-80-32 32-24-40-24 16-40h32z" fill="#ffa64d"/><g fill="#333"><path d="M296 200h16v16h-16zm-112 0h16v16h-16zm128 40h-16c0 26.472-21.528 48-48 48s-48-21.528-48-48h-16c0 35.288 28.712 64 64 64s64-28.712 64-64z"/><path d="M424.504 411.608c-3.592-11.488-9.264-22.024-16.504-31.248V160C408 71.776 336.224 0 248 0S88 71.776 88 160v220.36c-7.248 9.224-12.92 19.768-16.504 31.248L45.12 496h405.76l-26.376-84.392zM104 216v-56c0-79.4 64.6-144 144-144s144 64.6 144 144v204.216c-13.312-10.704-29.336-18.056-46.688-20.728L304 337.136v-8.208c26.92-15.632 46.784-42.136 53.488-73.48C376.928 252.736 392 236.176 392 216c0-19.312-13.768-35.472-32-39.192V136h-16v24H152v-24h-16v40.808c-18.232 3.72-32 19.88-32 39.192 0 20.176 15.072 36.736 34.512 39.448 6.704 31.344 26.568 57.848 53.488 73.48v8.208l-41.312 6.36c-17.352 2.664-33.376 10.024-46.688 20.728V216zm48 16v-56h192v56c0 52.936-43.064 96-96 96s-96-43.064-96-96zm207.664 6.632c.128-2.208.336-4.392.336-6.632v-38.528c9.288 3.312 16 12.112 16 22.528 0 10.536-6.872 19.416-16.336 22.632zm-223.328 0C126.872 235.416 120 226.536 120 216c0-10.416 6.712-19.216 16-22.528V232c0 2.24.208 4.424.336 6.632zm223.6 184.376l-15.872 1.984L350.936 480H256v-16h-16v16h-94.936l6.872-55.008-15.872-1.984L128.936 480H66.88l19.872-63.624c9.352-29.904 35.4-52.312 66.368-57.072l54.88-8.44v-14.32c12.432 4.776 25.904 7.456 40 7.456s27.568-2.68 40-7.456v14.32l54.872 8.44c30.968 4.76 57.016 27.168 66.368 57.072L429.12 480h-62.056l-7.128-56.992z"/></g><path d="M136 144l-18.896-30.728A25.681 25.681 0 0 1 112 97.968c0-9.136 4.92-17.616 12.848-22.152l89.376-58.008c20.144-13.08 47.4-13.08 67.552 0l89.752 58.24C379.08 80.344 384 88.832 384 97.968c0 5.488-1.816 10.92-5.104 15.304L360 144H136z" fill="#ffa64d"/><g fill="#333"><path d="M240 56h16v56h-16z"/><path d="M220 76h56v16h-56z"/></g></svg>