<svg xmlns="http://www.w3.org/2000/svg" viewBox="0 0 496 496"><g fill="#333"><path d="M420.944 496H387.72L368 466.424V448h-48v15.16l-69.28 7.696L259.104 496H212.16l-32-40H140l-24.896-33.2-70.984-23.664L0 363.84V245.784l26.168-43.616L70.2 175.752l74.68 8.296-1.76 15.904-69.32-7.704-35.968 21.584L16 250.216V356.16l35.88 28.704 73.016 24.336L148 440h39.84l32 40h17.056l-7.616-22.856L304 448.84V432h80v29.576L396.28 480h14.776l3.208-6.424L400 459.312V412l32-24v-47.312l24-24v-39.352l24-32V232h-21.336l-64 48H360v-25.224l-41.312-6.888 2.624-15.776L376 241.224V264h13.336l64-48H496v34.664l-24 32v40.648l-24 24V396l-32 24v32.688l17.736 17.736z"/><path d="M248 368c-11.464 0-112-.896-112-32 0-23.984 61.232-29.912 87.56-31.344l.872 15.976c-46.16 2.52-67.728 11.088-71.976 15.384C158.24 342.152 192.616 352 248 352s89.76-9.848 95.536-15.984c-4.248-4.304-25.824-12.864-71.976-15.384l.872-15.976C298.768 306.088 360 312.016 360 336c0 31.104-100.536 32-112 32z"/></g><path d="M248 0c-70.576 0-128 57.424-128 128v4.432c0 24.824 7.152 48.944 20.68 69.76l75.888 116.76c6.944 10.68 18.688 17.056 31.432 17.056s24.488-6.376 31.432-17.056l75.888-116.76c13.528-20.816 20.68-44.936 20.68-69.76V128C376 57.424 318.576 0 248 0zm0 200c-39.768 0-72-32.232-72-72s32.232-72 72-72 72 32.232 72 72-32.232 72-72 72z" fill="#ffa64d"/><g fill="#333"><path d="M248 208c-44.112 0-80-35.888-80-80s35.888-80 80-80 80 35.888 80 80-35.888 80-80 80zm0-144c-35.288 0-64 28.712-64 64s28.712 64 64 64 64-28.712 64-64-28.712-64-64-64z"/><path d="M216.632 121.592l-15.672-3.184C205.472 96.152 225.264 80 248 80v16c-15.16 0-28.352 10.76-31.368 25.592zm-7.032 35.216a47.461 47.461 0 0 1-8.632-19.2l15.672-3.192a31.618 31.618 0 0 0 5.76 12.784l-12.8 9.608z"/></g></svg>