<svg xmlns="http://www.w3.org/2000/svg" width="512" height="512" viewBox="0 0 32 32"><g fill="#052f4d"><path d="M21.947 6.05v-.858c0-.722-.584-1.306-1.307-1.306h-1.927A2.68 2.68 0 0 0 16.328 0a2.682 2.682 0 0 0-2.385 3.887h-2.582c-.722 0-1.306.584-1.306 1.306v.857h-3.29a2.118 2.118 0 0 0-2.118 2.117v21.715c0 1.17.948 2.118 2.118 2.118h18.472c1.17 0 2.117-.948 2.117-2.118V8.167a2.118 2.118 0 0 0-2.117-2.117h-3.29zm-7.211-3.371a1.6 1.6 0 0 1 1.592-1.599 1.6 1.6 0 0 1 1.045 2.807h-2.089a1.599 1.599 0 0 1-.548-1.208zm10.455 26.059a1.1 1.1 0 0 1-1.099 1.1H7.909a1.1 1.1 0 0 1-1.099-1.1V9.311c0-.607.492-1.099 1.099-1.099h2.145c0 .597.484 1.081 1.081 1.081h9.73c.598 0 1.082-.484 1.082-1.081h2.146c.606 0 1.099.491 1.099 1.099v19.427z"/><path d="M15.13 19.572l-1.318-1.32a.793.793 0 0 0-1.12 0l-.409.409a.791.791 0 0 0 0 1.119l2.315 2.317a.792.792 0 0 0 1.136-.018l4.021-4.264a.79.79 0 0 0-.032-1.118l-.42-.396a.785.785 0 0 0-.566-.216.798.798 0 0 0-.553.248l-3.054 3.239z"/><path d="M16 10.903c-4.356 0-7.899 3.548-7.899 7.91 0 4.359 3.543 7.908 7.899 7.908 4.355 0 7.9-3.549 7.9-7.908 0-4.362-3.543-7.91-7.9-7.91zm0 13.658c-3.165 0-5.739-2.578-5.739-5.748 0-3.17 2.574-5.749 5.739-5.749 3.164 0 5.74 2.578 5.74 5.749 0 3.169-2.576 5.748-5.74 5.748z"/></g></svg>