<svg id="Capa_1" xmlns="http://www.w3.org/2000/svg" viewBox="0 0 497 497"><style>.st0{fill:#017581}.st1{fill:#003c69}</style><path class="st0" d="M136.5 184c-17.7 0-32 14.3-32 32v64h160v-64c0-17.7-14.3-32-32-32h-96zm277.2 313l-44.8-134.5 15.2-5L419.3 463l17.2-23h32.9l-36.5-109.5 15.2-5L491.6 456h-47.1z"/><path class="st0" d="M339.3 497l-30.8-41h-47.1l43.5-130.5 15.2 5L283.6 440h32.9l17.2 23 35.2-105.5 15.2 5z"/><circle class="st0" cx="184.5" cy="136" r="48"/><circle class="st0" cx="376.5" cy="280" r="80"/><path class="st1" d="M.5 0v368h280v-16h-264V16h464v352h16V0z"/><path class="st1" d="M414.1 37.1l-2-5.1H85l-2 5.1c-8.1 20.7-24.6 37.3-45.4 45.4l-5.1 2v199.1l5.1 2c20.7 8.1 37.3 24.6 45.4 45.4l2 5.1h195.6v-16H95.7c-9.6-20.8-26.4-37.6-47.2-47.2V95.2C69.3 85.6 86.1 68.8 95.7 48h305.6c9.6 20.8 26.4 37.6 47.2 47.2V208h16V84.4l-5.1-2c-20.7-8-37.2-24.6-45.3-45.3z"/><path class="st1" d="M184.5 192c30.9 0 56-25.1 56-56s-25.1-56-56-56-56 25.1-56 56 25.1 56 56 56zm0-96c22.1 0 40 17.9 40 40s-17.9 40-40 40-40-17.9-40-40 18-40 40-40z"/><path class="st1" d="M96.5 216v72h176v-72c0-22.1-17.9-40-40-40v16c13.2 0 24 10.8 24 24v56h-16v-48h-16v48h-80v-48h-16v48h-16v-56c0-13.2 10.8-24 24-24v-16c-22 0-40 17.9-40 40zm280-24c-48.5 0-88 39.5-88 88s39.5 88 88 88 88-39.5 88-88-39.5-88-88-88zm0 160c-39.7 0-72-32.3-72-72s32.3-72 72-72 72 32.3 72 72-32.3 72-72 72z"/><path class="st1" d="M376.5 224c-30.9 0-56 25.1-56 56s25.1 56 56 56 56-25.1 56-56-25.1-56-56-56zm0 96c-22.1 0-40-17.9-40-40s17.9-40 40-40 40 17.9 40 40-17.9 40-40 40z"/><path class="st0" d="M288.5 96h144v16h-144zm0 32h144v16h-144zm128 32h16v16h-16zm-128 0h112v16h-112z"/></svg>