<svg id="Capa_1" xmlns="http://www.w3.org/2000/svg" viewBox="0 0 496 496"><style>.st0{fill:#017581}.st1{fill:#003c69}</style><path class="st0" d="M475.7 78c-23.4-3.9-45.3-13.9-63.5-29.1l-3.3-2.8A60.77 60.77 0 0 0 370 32c-25.3 0-47.9 15.7-56.8 39.4l-.8 2.2c-5 13.5-18 22.4-32.4 22.4v80c0-13.4 10.8-24.2 24.2-24.2h18c13.9 0 27.3 5.6 37.1 15.5l8.7 8.8h20.2c13 0 25.8-3 37.5-8.8 8.8-4.4 14.3-13.4 14.3-23.2v-2.2c5.5-1.3 10.9-3.3 16-5.8l1.7-.8c8.8-4.4 14.3-13.3 14.3-23.2v-4l4.8-1.2c6.6-1.6 11.2-7.5 11.2-14.3 0-7.3-5.2-13.5-12.3-14.6zM20.3 78c23.4-3.9 45.3-14 63.5-29.1l3.3-2.8A60.77 60.77 0 0 1 126 32c25.3 0 47.9 15.7 56.8 39.4l.8 2.2c5.1 13.5 18 22.5 32.4 22.5v80c0-13.4-10.9-24.2-24.2-24.2h-18c-13.9 0-27.3 5.6-37.1 15.5L128 176h-20.2c-13 0-25.8-3-37.5-8.8C61.5 162.8 56 153.8 56 144v-2.2c-5.5-1.3-10.9-3.3-16-5.8l-1.7-.8C29.5 130.8 24 121.8 24 112v-4l-4.8-1.2C12.6 105.2 8 99.3 8 92.5c0-7.2 5.2-13.4 12.3-14.5z"/><path class="st1" d="M168 168h16v16h-16zm144 0h16v16h-16z"/><path class="st1" d="M496 92.5c0-11.2-8-20.6-19-22.4-21.9-3.7-42.6-13.1-59.7-27.4l-3.3-2.8C401.7 29.7 386.1 24 370 24c-28.5 0-54.3 17.9-64.3 44.6l-.8 2.2c-2.9 7.8-9.3 13.6-17 16V74.5c5-7.6 8-16.7 8-26.5 0-26.5-21.5-48-48-48s-48 21.5-48 48c0 9.8 3 18.9 8 26.5v4.1c0 2.7.1 5.4.1 8.2-7.7-2.4-14.1-8.3-17-16l-.8-2.2C180.3 41.9 154.4 24 126 24c-16 0-31.6 5.7-44 15.9l-3.3 2.8C61.6 57 40.9 66.4 19 70.1 8 71.9 0 81.3 0 92.5c0 10.1 6.6 18.8 16.2 21.7.8 12 7.7 22.7 18.6 28.1l1.7.8c3.8 1.9 7.8 3.4 11.8 4.7 1.3 11.3 8.1 21.3 18.5 26.5 12.7 6.3 26.9 9.7 41 9.7h8.6c-2.8 7.2-4.3 14.8-4.3 22.6v1.8c0 27.7 10.8 53.7 30.3 73.3 14.9 14.9 33.6 24.7 54 28.5-12.8 8.7-20.4 23-20.4 38.5 0 14.6 7 28.6 18.7 37.3l9.4 7-7.3 4.8c-13 8.7-20.8 23.2-20.8 38.8 0 14.6 7 28.6 18.7 37.3l29.3 22v-16c0-8.3 1.6-16.4 4.4-23.9.9 8.3 1.7 16.6 2.7 24.9 1 8.6 8.2 15 16.9 15 8.6 0 15.9-6.5 16.9-15 2.6-22.5 5-45.6 7.2-68.8l27.1-18.1c13-8.7 20.8-23.2 20.8-38.8 0-14.6-7-28.6-18.7-37.3l-9.1-6.8c23.2-2.7 44.8-13 61.4-29.6 19.6-19.6 30.3-45.6 30.3-73.3v-1.8c0-7.8-1.5-15.4-4.3-22.6h8.6c14.2 0 28.4-3.4 41-9.7 10.4-5.2 17.2-15.1 18.5-26.5 4-1.3 8-2.8 11.8-4.7l1.7-.8c10.9-5.4 17.8-16.1 18.6-28.1 9.6-2.7 16.2-11.4 16.2-21.5zm-259.7 279c-.4-5.4-.9-10.7-1.3-16.1 4.9-7.4 11.1-13.9 18.7-19l9.2-6.1c-.4 5.7-.8 11.5-1.3 17.2-5 7.9-11.5 14.8-19.3 20l-6 4zm77-128.2c-3.1-5.1-7-9.7-11.9-13.3l-16.2-12.1.6-15.6c5.2 3.6 11.4 5.7 18.2 5.7h24v1.4c0 12.3-5 24.3-13.7 33-.3.3-.7.6-1 .9zm-100.8 12.6c-11.5-.5-22.7-5.4-30.9-13.6-8.7-8.7-13.7-20.7-13.7-33V208h24c6.8 0 13.1-2.2 18.3-5.8.7 17.9 1.4 35.8 2.3 53.7zm17.8 31.6c-3.9-65.7-6-132.1-6.3-197.9 7 4.1 15.2 6.4 23.9 6.4s16.9-2.4 23.9-6.5c-.2 52.3-1.5 105.1-4 157.2-4.8 13.2-13.6 24.7-25.7 32.8l-11.8 8zM248 16c17.6 0 32 14.4 32 32s-14.4 32-32 32-32-14.4-32-32 14.4-32 32-32zM107.8 168c-11.7 0-23.4-2.8-33.9-8-3.7-1.8-6.4-4.9-8.1-8.5 2.7.3 5.4.5 8.1.5h4.2c12.9 0 25.9-3.1 37.5-8.8l-7.2-14.3c-9.4 4.7-19.8 7.2-30.3 7.2h-4.2c-10.5 0-20.9-2.5-30.3-7.2l-1.7-.8c-4.2-2.1-7.2-5.7-8.7-10 7.5 1.3 15.2 2 22.8 2 11.3 0 22.5-1.4 33.5-4.1l16.5-4.1-3.9-15.5-16.5 4.1c-19.3 4.8-39.8 4.8-59.2 0L21.1 99c-3-.8-5.1-3.4-5.1-6.5 0-3.3 2.4-6.1 5.6-6.7C46.3 81.7 69.6 71 88.9 55l3.3-2.8C101.7 44.3 113.7 40 126 40c21.8 0 41.6 13.7 49.3 34.2l.8 2.2c5.3 14.1 17.7 24.1 32.1 26.8.1 15.2.3 30.4.6 45.7-4.9-3-10.6-4.9-16.8-4.9h-17.4c-16.5 0-32.6 6.7-44.3 18.3-1.8 1.8-3.4 3.7-4.9 5.7h-17.6zm20.2 40.4v-1.8c0-12.3 5-24.3 13.7-33s20.7-13.7 33-13.7H192c8.8 0 16 7.2 16 16s-7.2 16-16 16h-40v17.4c0 16.5 6.7 32.6 18.3 44.3 11.4 11.4 27 18 43.1 18.3.4 8 .9 16 1.4 24-23.1-.2-44.8-9.3-61.1-25.6-16.6-16.5-25.7-38.5-25.7-61.9zm64 140.3c0-10.3 5.1-19.8 13.6-25.5l45.5-30.3c18.8-12.6 31.5-32 35.5-53.9l5.1 3.8c7.7 5.8 12.3 14.9 12.3 24.5 0 10.3-5.1 19.8-13.6 25.5l-45.5 30.3c-18.8 12.6-31.5 32-35.5 53.9l-5.1-3.8c-7.7-5.8-12.3-14.9-12.3-24.5zm57 130.4c-.1 1-1.8 1-1.9 0-1.7-14.9-3.3-29.9-4.9-44.8 3.4-3.6 7.3-7 11.5-9.8l1.2-.8c-1.9 18.7-3.8 37.3-5.9 55.4zm55-123.8c0 10.3-5.1 19.8-13.6 25.5l-45.5 30.3c-18.8 12.6-31.5 32-35.5 53.9l-5.1-3.8c-7.7-5.8-12.3-14.9-12.3-24.5 0-10.3 5.1-19.8 13.6-25.5l12-8 6.4 4.8v-9l27.2-18.1c10.8-7.2 19.6-17 26-28.2h.1v-.3c.6-1.1 1.3-2 1.8-3.1 3.6-7 5.9-14.6 7.4-22.4l5.2 3.9c7.7 5.8 12.3 14.9 12.3 24.5zm64-146.9c0 23.4-9.1 45.4-25.7 61.9-8 8-17.4 14.2-27.7 18.6 3.4-6.6 5.3-13.9 5.3-21.6 0-2.7-.3-5.4-.8-8.1 2.3-1.7 4.4-3.6 6.5-5.6 11.7-11.7 18.3-27.8 18.3-44.3V192h-40c-8.8 0-16-7.2-16-16s7.2-16 16-16h17.4c12.3 0 24.3 5 33 13.7s13.7 20.7 13.7 33v1.7zM474.9 99l-5.3 1.3c-19.3 4.8-39.8 4.8-59.2 0l-16.5-4.1-3.9 15.5 16.5 4.1c10.9 2.7 22.2 4.1 33.5 4.1 7.6 0 15.3-.7 22.8-2-1.5 4.2-4.5 7.9-8.7 10l-1.7.8c-9.4 4.7-19.8 7.2-30.3 7.2h-4.2c-10.5 0-20.9-2.5-30.3-7.2l-7.2 14.3c11.6 6 24.6 9 37.5 9h4.2c2.7 0 5.4-.2 8.1-.5-1.7 3.6-4.4 6.6-8.1 8.5-10.5 5.2-22.2 8-33.9 8h-17.6c-1.5-2-3.2-3.9-4.9-5.7-11.7-11.6-27.8-18.3-44.3-18.3H304c-6.2 0-11.9 1.8-16.8 4.9.3-15.2.5-30.5.6-45.7 14.4-2.7 26.8-12.8 32.1-26.8l.8-2.2C328.4 53.7 348.2 40 370 40c12.3 0 24.3 4.3 33.7 12.2L407 55c19.3 16.1 42.5 26.7 67.3 30.8 3.3.5 5.6 3.3 5.6 6.7.1 3.1-2 5.8-5 6.5z"/></svg>