<svg id="Layer_1" xmlns="http://www.w3.org/2000/svg" viewBox="0 0 200 200"><style>.st0{fill:#fff}.st1{fill:#f58220}</style><path class="st0" d="M183.9 141.8l-32.1-22c-.4-2.4-.8-4.8-1.3-7.4-1.9-10-3.9-20.4-5.3-30.7l1.2-.9L182 56.4l-21.5-8.2-17.4 10c.2-16.4 3.2-30.4 9.3-42.6.6-1.2.3-2.6-.6-3.5-1-.9-2.4-1.1-3.6-.4l-27 15.6c-.6.4-1.1.9-1.3 1.6-4.6 13.4-6.3 28-5.3 45.8l-.9.5-.1.1-14.5 8.4-20.4-14.1c1.6-1.8 2.9-3.7 4.1-5.7 4.6-8 5.9-17.4 3.5-26.4-2.4-9-8.2-16.5-16.2-21.1-5.3-3.1-11.3-4.7-17.4-4.7-12.4 0-24 6.7-30.2 17.4-9.2 16.1-4.3 36.6 11.5 46.7l39.5 22.8-41.4 23.9a34.824 34.824 0 0 0-11.3 46.7c6.2 10.7 17.8 17.4 30.2 17.4 6.1 0 12.1-1.6 17.4-4.7 8.1-4.6 13.8-12.1 16.2-21.1 2.4-9 1.2-18.4-3.5-26.4-1.2-2-2.6-4-4.1-5.7l22.2-15.2 23.6 13.6c2.1 13.7 4.1 28 4.9 43.6.1.9.5 1.8 1.3 2.3l21.5 15c.5.4 1.1.5 1.7.5.5 0 1-.1 1.4-.3 1-.5 1.6-1.5 1.6-2.7 0-3.6.1-7.1.1-10.6.1-9.1.3-18.4-.4-29.4l7.6 4.4 21.4-8.1zM37.1 70.7c-12.9-8.3-17-25.3-9.3-38.6 5.1-8.9 14.7-14.4 25-14.4 5 0 10 1.3 14.4 3.9 6.7 3.8 11.4 10.1 13.4 17.5s1 15.2-2.9 21.9c-1.5 2.6-3.4 4.9-5.6 6.9l-2.8 2.5 24.3 16.7-14.1 8.1-42.4-24.5zm33.2 59.8c2.2 2 4.1 4.3 5.6 6.9 3.8 6.7 4.9 14.4 2.9 21.9-2 7.4-6.8 13.6-13.4 17.5-4.4 2.5-9.3 3.9-14.4 3.9-10.3 0-19.8-5.5-25-14.4-7.7-13.3-3.6-30.3 9.2-38.5l84.1-48.6h.1l22.4-12.9.1-.1 19.3-11.1 8.1 3.1-101.8 69.7 2.8 2.6zm34.3-20.8l11-7.5 3.5 2.4c0 .3.1.6.1.9.3 2.1.7 4.3 1 6.5v.1l.1.3c.4 2.3.8 4.7 1.1 7.1l-16.8-9.8zm48.5 18.2l18 12.4-8.1 3.1-8.7-5c-.3-3.3-.7-6.8-1.2-10.5z"/><path class="st1" d="M125.4 32l18.2-10.5c-4.4 11.8-6.5 25.1-6.3 40.3l-16.6 9.6c-.7-15.1.8-27.8 4.7-39.4zm23.9 142.9c0 1.6 0 3.3-.1 4.9l-15.7-10.9c-1.2-20.3-4.2-38.4-7-55.9l-.3-2.1c-.8-4.9-1.6-9.8-2.3-14.5l15.9-10.9c1.4 9.4 3.1 18.9 4.9 28 5.1 27.5 4.9 44.7 4.6 61.4z"/><path class="st0" d="M62.6 29.4c-3-1.7-6.4-2.7-9.9-2.7-7.1 0-13.6 3.8-17.2 9.9-3.8 6.5-4 13.3-.6 19.2 3.6 6.3 10.8 10.3 18.4 10.3 6.9 0 13-3.5 16.5-9.7 5.5-9.5 2.3-21.6-7.2-27zm2.1 24c-2.5 4.3-6.5 6.7-11.3 6.7-5.4 0-10.7-3-13.2-7.3-1.6-2.8-2.8-7.3.6-13.2 2.5-4.3 7-6.9 12-6.9 2.4 0 4.8.6 6.9 1.8 6.5 3.9 8.8 12.3 5 18.9zm-4.1 81.2c-.3-.2-.6-.3-1.1-.6-2.7-1.3-5.6-1.9-8.6-1.9-7.2 0-14.1 4-17.6 10.1-3.5 6-3.3 13.1.4 19.5 3.5 6.1 10.1 9.9 17.2 9.9 3.5 0 6.9-.9 9.9-2.7 9.5-5.5 12.7-17.6 7.2-27-1.7-3.1-4.3-5.6-7.4-7.3zm-2.8 29.2c-2.1 1.2-4.5 1.9-6.9 1.9-4.9 0-9.5-2.6-12-6.9-2.6-4.6-2.8-9.4-.4-13.5 2.5-4.3 7.4-7.1 12.4-7.1 2.1 0 4.1.5 6 1.4.2.1.5.2.7.4 2.1 1.2 3.9 3 5.2 5.1 3.9 6.4 1.6 14.9-5 18.7z"/><circle class="st0" cx="99.7" cy="97.7" r="4.1"/></svg>