<svg xmlns="http://www.w3.org/2000/svg" version="1" width="299.996" height="225.924" viewBox="0 0 85.704 64.542"><path d="M45.813 1.836c20.974 0 37.977 11.835 37.977 26.433 0 14.597-17.003 26.432-37.977 26.432-6.575 0-12.759-1.164-18.152-3.21C17.017 55.498 2.483 63.067 2.483 63.067s9.477-5.365 13.384-11.879c.998-1.665 1.582-3.41 1.917-5.087-6.176-4.7-9.947-10.96-9.947-17.832 0-14.598 17.002-26.433 37.976-26.433m0 2.106c-19.78 0-35.87 10.913-35.87 24.328 0 5.944 3.237 11.682 9.116 16.156l1.047.798-.257 1.29c-.422 2.116-1.154 4.053-2.176 5.758-.323.538-.68 1.069-1.063 1.588 3.44-1.562 7.04-3.108 10.309-4.339l.745-.28.744.282c5.298 2.01 11.317 3.073 17.405 3.073 19.78 0 35.871-10.913 35.871-24.327 0-13.415-16.091-24.327-35.87-24.327z"/></svg>