<svg id="Layer_1" xmlns="http://www.w3.org/2000/svg" viewBox="0 0 496 496"><style>.st0{fill:#fff}.st1{fill:#62489d}</style><path class="st0" d="M440 440c0 22.1-17.9 40-40 40H208c-22.1 0-40-17.9-40-40v-64h16v64c0 13.2 10.8 24 24 24h192c13.2 0 24-10.8 24-24V288h-16v152c0 4.4-3.6 8-8 8H208c-4.4 0-8-3.6-8-8V336h-16v24h-16v-24h-16v104c0 30.9 25.1 56 56 56h192c30.9 0 56-25.1 56-56V288h-16v152z"/><path class="st1" d="M432 296c-35.3 0-64-28.7-64-64s28.7-64 64-64 64 28.7 64 64-28.7 64-64 64z"/><path class="st0" d="M128 0H24C10.8 0 0 10.8 0 24v152c0 75 61 136 136 136v-16c-66.2 0-120-53.8-120-120V24c0-4.4 3.6-8 8-8h40v16H32v144c0 57.3 46.7 104 104 104v-16c-48.5 0-88-39.5-88-88V48h16v16c0 8.8 7.2 16 16 16h16c0 8.8 7.2 16 16 16h16c8.8 0 16-7.2 16-16V16c0-8.8-7.2-16-16-16zm0 80h-16V48H96v16H80V16h16v16h16V16h16v64zm224 96V24c0-13.2-10.8-24-24-24h-96c-8.8 0-16 7.2-16 16v64c0 8.8 7.2 16 16 16h16c8.8 0 16-7.2 16-16h16c8.8 0 16-7.2 16-16V48h8v128c0 48.5-39.5 88-88 88v16c57.3 0 104-46.7 104-104V32h-24V16h32c4.4 0 8 3.6 8 8v152c0 66.2-53.8 120-120 120v16c75 0 136-61 136-136zM248 80h-16V16h16v64zm32-16h-16V16h16v48zm152 136c-17.6 0-32 14.4-32 32s14.4 32 32 32c5.3 0 10.6-1.3 15.3-3.9l-7.6-14.1c-2.4 1.3-4.9 1.9-7.6 1.9-8.8 0-16-7.2-16-16s7.2-16 16-16 16 7.2 16 16c0 1.8-.3 3.6-.9 5.3l15.1 5.3c1.2-3.4 1.8-7 1.8-10.7-.1-17.4-14.5-31.8-32.1-31.8z"/><path class="st1" d="M195.1 344H157c-6.1 0-11.6-3.4-14.3-8.8L128 305.9V264h96v41.9l-14.6 29.3c-2.8 5.4-8.2 8.8-14.3 8.8zm0-16v8-8z"/></svg>