<svg id="Layer_1" xmlns="http://www.w3.org/2000/svg" viewBox="0 0 260 260"><style>.st0{fill:#624a9e}</style><path class="st0" d="M52 150.3c-1.5-1-2.9-2-4.3-2.9L45 150c1.4.9 2.8 1.9 4.2 3l2.8-2.7zm23.8 12.6c-4.1-1.3-8-2.9-11.7-5L61 161c3.4 2.1 7 3.9 10.7 5.3 6.1 2.3 10.6 2.4 12.7.2.7-.7 1.1-1.6 1.3-2.5-3.3.4-6.7 0-9.9-1.1m9.7-46.2c-4.3-3.1-8.9-5.8-13.7-8.1 2.3 4.8 5 9.4 8 13.8l5.7-5.7zm23.6 12.6c-4-1.3-7.9-2.9-11.5-5l-7.5 7.5c3.4 2.1 6.9 3.8 10.6 5.3 6.1 2.3 10.5 2.4 12.6.2 1.4-1.4 1.9-3.7 1.4-6.9-1.9-.2-3.8-.6-5.6-1.1M58.4 110c-.7-1.9-1.3-3.8-1.6-5.8-3.1-.1-5.6.7-7.2 2.3-.9.9-1.5 2-1.8 3.1 3.2 0 6.3.6 9.2 1.8.8.3 1.6.6 2.4 1-.4-.8-.8-1.6-1-2.4m25.1-24.4C77 83.7 72.1 84 69.4 86.7c-1.8 1.7-2.5 4.4-2.3 7.9 1.8.4 3.5.9 5.2 1.5 5.9 2.4 11.4 5.4 16.6 9.1l11.4-11.4c-5.2-3.5-10.9-6.2-16.8-8.2m-12 46.7l-12.9 12.9L30 173.9c1.8 1.2 3.7 2.4 5.6 3.8 1.4 1 2.8 2 4.2 2.9l28.9-28.9 9.5-9.5c-1.9-3.2-4.1-6.5-6.7-9.9"/><path class="st0" d="M85.2 153.4c-2.3-6.2-6.8-13.8-13-22.1s-10.5-15.7-12.8-21.8c-2.3-6.1-2.3-10.6-.2-12.7l7.3-7.3c-.9 3-.6 7 .7 11.5 2 6.6 6.1 14.5 12 23s10 16.2 11.9 22.7 1.6 11.4-1.1 14.1l-3.3 3.3c.7-2.7.1-6.4-1.5-10.7m35.1-53.3l10.8-10.9-8.2-8.2-9 9c2.3 3.3 4.4 6.6 6.4 10.1"/><path class="st0" d="M100.7 103.2l-20.3 20.3c2.3 3.3 4.4 6.6 6.4 10.1l20.6-20.6c-2-3.1-4.2-6.4-6.7-9.8"/><path class="st0" d="M114.2 124.2c1.6 4.3 2.2 7.9 1.6 10.7l7.8-7.8c2.7-2.7 3-7.6 1.1-14.1s-6-14.3-11.9-22.7c-.6-.8-1.2-1.7-1.7-2.5L99.4 99.6c.6.9 1.2 1.7 1.9 2.6 6.1 8.2 10.6 15.8 12.9 22m-66.8-3.4c-1.3-4.5-1.7-8.5-.7-11.5l-2.9 2.9c-2.2 2.1-2.1 6.6.2 12.7 2.4 6 5.6 11.7 9.3 16.9l2.9-2.9c-3.7-5.6-6.6-11.7-8.8-18.1m-2.5 57.8c0-1 .8-1.9 1.9-1.9 1 0 1.9.8 1.9 1.9 0 1-.8 1.9-1.8 1.9-1.2 0-2-.8-2-1.9m.2 0c0 .9.7 1.6 1.6 1.6.9 0 1.6-.7 1.6-1.6 0-.9-.7-1.6-1.6-1.6-.9 0-1.6.7-1.6 1.6 0 .1 0 .1 0 0m1.7.2h-.4v.9h-.3v-2.1h.8c.3-.1.7.1.7.5v.1c0 .3-.2.5-.4.6l.4.9h-.4l-.4-.9zm-.4-.9v.6h.4c.3 0 .4-.1.4-.3s-.1-.3-.4-.3h-.4zm166-20.3l3.6-10.3 3.5 10.3h-7.1zm-10 11.5h6.1l2.3-6.7H221l2.2 6.7h6.8l-10.7-30.3H213l-10.6 30.3zm-15.3-15.8v-8.9h4.5c4.1 0 5.7 1.6 5.7 4.4s-1.6 4.5-5.7 4.5h-4.5zm-6.6 15.8h6.6v-10.7h4.3c6 0 12.4-1.7 12.4-9.8 0-7.9-5.9-9.6-12.3-9.6h-11v30.1zm-21.4-11.5l3.5-10.3h.1l3.5 10.3h-7.1zM149 169.1h6.1l2.3-6.7h10.3l2.3 6.7h6.7L166 138.9h-6.3L149 169.1zm-19-11.5l3.5-10.3h.1l3.5 10.3H130zm-10 11.5h6.1l2.3-6.7h10.3l2.2 6.7h6.7L137 138.9h-6.3L120 169.1z"/></svg>