<svg id="Layer_1" xmlns="http://www.w3.org/2000/svg" viewBox="0 0 278.7 112.4"><style>.st0{fill:#007bc3}.st1{fill:#562700}.st2{fill:#00b8ba}.st3{fill:#56b146}.st4{fill:#fdb913}.st5{fill:#b81237}.st6{fill:none}</style><title>Artboard 1</title><path class="st0" d="M86.7 111.9l.5-.2c.6-.2.5-.4.7-1.3l1-5.6c.1-.2.1-.5.1-.7 0-.3-.1-.3-.6-.5l-.5-.2v-.3h6.2l.1.1-.4 2h-.3l-.4-.9c-.2-.7-.4-.7-1.6-.7s-1.5 0-1.6.6l-.5 2.7v.3c0 .2.2.2.3.2H91c.5 0 .5 0 .8-.4l.5-.7h.3L92 109h-.3l-.2-.7c-.1-.4-.2-.4-.7-.4h-.9c-.4 0-.4 0-.5.4l-.3 1.8c-.1.4-.1.7-.2 1.1 0 .2.3.3.5.4l.8.3-.1.3h-3.5l.1-.3zm6.9-1.8c0-2.4 1.3-4.7 4-4.7 1.4 0 2.1.8 2.1 2.3s-.8 4.7-4 4.7c-1.1.1-2.1-.8-2.1-1.9v-.4zm2.6 1.7c1.8 0 2.4-2.5 2.4-4.1 0-1.1-.4-1.8-1.4-1.8-2 0-2.5 2.8-2.5 4.1s.3 1.8 1.5 1.8zm6.2.2c-.3.1-.7.2-1 .2-.2 0-.4-.3-.4-.5v-.3l1-3.9c.1-.3.1-.5.1-.8 0-.3-.2-.5-.5-.5h-.1c-.2 0-.5 0-.7.1l.1-.4c.4-.2.9-.4 1.4-.5.2 0 .4.1.5.3.1.2.2.3.3.3.3 0 .5-.1.7-.3.4-.2.8-.3 1.2-.3.2 0 .4.1.5.2.1.1.1.3.1.4 0 .1-.1.2-.1.3l-.3.6h-.2c-.1-.4-.4-.7-.9-.8-.7 0-1.1.6-1.4 1.7l-.7 2.7c-.1.2-.1.5-.2.7 0 .4.2.5.3.5l.3.3zm10.3-4.8c-.1-.4-.3-1.3-1.2-1.3-.5-.1-1 .3-1.1.9v.1c0 .9 1 1.3 1.7 1.9.5.4.8.7.8 1.3-.1 1.3-1.2 2.3-2.5 2.2h-.1c-.6 0-1.1-.2-1.5-.6-.1-.2-.1-.3-.1-.5 0-.1 0-.2.1-.3l.4-.8h.2c0 .9.7 1.6 1.6 1.7.6 0 1.1-.5 1.1-1.1 0-1.6-2.4-1.7-2.4-3.3.1-1.3 1.3-2.1 2.5-2 .4 0 .8.1 1.2.4.1.1.2.3.2.5 0 .1 0 .2-.1.3l-.3.7-.5-.1zm6.3 4.2c-.8.6-1.8 1-2.8 1-1 0-1.8-.7-1.8-1.7v-.3c0-1.3.3-2.5 1-3.6.7-.9 1.7-1.4 2.8-1.4.5 0 .9.1 1.3.4.1.1.1.3.1.4 0 .1 0 .2-.1.3l-.4.9h-.2c0-.4-.1-1.6-1.2-1.6-1.4 0-2.2 2.6-2.2 4 0 1.1.4 1.7 1.4 1.7.8-.1 1.5-.3 2.2-.8l-.1.7zm4.5.1c-.5.4-1.2.7-1.8.8-.6 0-1.1-.5-1.1-1.1 0-.5.2-1.1.3-1.6l.6-2c.1-.3.2-.7.2-1 0-.5-.6-.4-1.2-.5l.1-.3c.7-.2 1.3-.4 2-.5.1 0 .4.3.4.4l-.6 2.4-.4 1.3c-.1.4-.2.9-.3 1.3 0 .6.4.8.6.8.5 0 .9-.2 1.3-.5l-.1.5zm-1.3-8c0-.4.3-.6.7-.6.4 0 .6.2.6.6 0 .4-.3.7-.6.7h-.1c-.3 0-.6-.2-.6-.5v-.2zm7.2 7.9c-.9.6-1.9.9-3 1-1.2 0-1.9-.7-1.9-2 0-2.1 1.3-4.9 3.9-4.9.9 0 1.6.4 1.6 1.3 0 .5-.2 1-.6 1.3-.6.4-1.3.7-2 .8l-.8.2c-.3 0-.7.1-1 .3-.1.1-.1.2-.1.7 0 1 .2 1.8 1.4 1.8.8-.1 1.7-.3 2.4-.7l.1.2zm-2-3c.8-.2 1.6-.5 1.6-1.4 0-.6-.4-1-.9-1.1h-.1c-1.8 0-2.2 2.5-2.2 2.6 0 .1.1.1.1.2.2 0 .4 0 .6-.1l.9-.2zm4.9 2.1c-.1.3-.1.5-.2.8 0 .2.1.4.3.5v.2c-.3.1-.6.2-.9.2-.2-.1-.4-.3-.4-.6v-.2l1.1-3.9c.1-.3.1-.5.1-.8 0-.3-.2-.5-.5-.5h-.1c-.2 0-.5 0-.7.1l.1-.4c.5-.2 1-.4 1.5-.5.4 0 .5.6.8.6.8-.2 1.5-.4 2.3-.6 1.2 0 1.3.5 1.3 1 0 .3-.1.5-.2.8l-.7 2.9c-.1.2-.1.5-.1.8 0 .5.3.7.6.7.5-.1 1-.3 1.4-.5l-.1.4c-.5.5-1.2.8-1.8.9-.6 0-1.1-.4-1.1-1 0-.2.1-.5.1-.7l.7-3c.1-.2.1-.5.1-.8 0-.3-.2-.8-1-.8-1.1 0-1.8.6-2.1 2l-.5 2.4zm11.3.9c-.8.6-1.8 1-2.8 1-1 0-1.8-.7-1.8-1.7v-.3c0-1.3.3-2.5 1-3.6.7-.9 1.7-1.5 2.9-1.4.5 0 .9.1 1.3.4.1.1.1.3.1.4 0 .1-.1.2-.1.3l-.4.9h-.2c0-.4-.1-1.6-1.2-1.6-1.4 0-2.2 2.6-2.2 4 0 1.1.4 1.7 1.4 1.7.8-.1 1.5-.3 2.2-.8l-.2.7zm6.1 0c-.9.6-1.9.9-3 1-1.2 0-1.9-.7-1.9-2 0-2.1 1.3-4.9 3.9-4.9.9 0 1.6.4 1.6 1.3 0 .5-.2 1-.6 1.3-.6.4-1.3.7-2 .8l-.7.1c-.3 0-.7.1-1 .3-.1.1-.1.2-.1.7 0 1 .2 1.8 1.4 1.8.8-.1 1.6-.3 2.4-.7v.3zm-2-3c.8-.2 1.6-.5 1.6-1.4 0-.6-.4-1-.9-1.1h-.1c-1.8 0-2.2 2.5-2.2 2.6 0 .1.1.1.1.2.2 0 .4 0 .6-.1l.9-.2zm2.7 3.3c0-.4.3-.7.7-.7h.1c.3 0 .6.2.7.5v.1c0 .4-.3.7-.7.7-.5 0-.8-.2-.8-.6zm4.8.2l.5-.2c.6-.2.6-.4.7-1.3l1-5.6c.1-.2.1-.5.1-.7 0-.3-.1-.3-.6-.5l-.5-.2v-.3h6.2l.1.1-.4 2h-.3l-.4-.9c-.3-.7-.4-.7-1.6-.7s-1.5 0-1.6.6l-.5 2.7v.3c0 .2.1.2.3.2h1.1c.5 0 .5 0 .8-.4l.5-.7h.3l-.5 2.8h-.3l-.2-.7c-.1-.4-.2-.4-.7-.4h-1c-.4 0-.4 0-.5.4l-.3 1.8c-.1.4-.1.8-.2 1.1 0 .2.3.3.5.4l.8.3-.1.3h-3.5l.3-.4zm6.9-1.8c0-2.4 1.3-4.7 4-4.7 1.4 0 2.1.8 2.1 2.3s-.8 4.7-4 4.7c-1.1.1-2-.8-2.1-1.9-.1-.2-.1-.3 0-.4zm2.6 1.7c1.8 0 2.4-2.5 2.4-4.1 0-1.1-.4-1.8-1.4-1.8-2 0-2.5 2.8-2.5 4.1s.3 1.8 1.5 1.8zm6.2.2c-.3.1-.7.2-1 .2-.2 0-.4-.3-.4-.5v-.3l1-3.9c.1-.3.1-.5.1-.8 0-.3-.2-.5-.5-.5h-.1c-.2 0-.5 0-.7.1l.1-.4c.4-.2.9-.4 1.4-.5.2 0 .4.1.5.3.1.2.2.3.4.3.3 0 .5-.1.7-.3.4-.2.8-.3 1.2-.3.2 0 .4.1.5.2.1.1.1.3.1.4 0 .1-.1.2-.1.3l-.3.6h-.2c-.1-.4-.4-.8-.9-.8-.7 0-1.1.6-1.4 1.7l-.7 2.7c-.1.2-.1.5-.1.7 0 .4.1.5.3.5l.1.3zm13-.5c-.5.4-1.1.7-1.8.8-.5 0-.8-.6-1.1-.6-.8.3-1.6.5-2.4.6-1 0-1.5-.5-1.5-1.8s.9-5.1 4.1-5.1c.2 0 .5 0 .7.1.1.1.3.1.4.1.1 0 .2-.1.3-.1l.4-.2.1.1c0 .2-.4 1.3-.6 2.3l-.4 1.9c-.1.4-.2.7-.2 1.1 0 .6.3.8.6.8.5 0 .9-.2 1.3-.4l.1.4zm-2.3-3.4c.1-.4.2-.9.2-1.3 0-.5-.4-.9-.9-.9h-.1c-2.1 0-2.7 3.3-2.7 4.5 0 .9.3 1.4 1.1 1.4.6 0 1.1-.3 1.4-.7.3-.5.5-1.1.6-1.8l.4-1.2zm7.6 3.3c-.8.6-1.8 1-2.8 1-1 0-1.8-.7-1.8-1.7v-.3c0-1.3.3-2.5 1-3.6.7-.9 1.7-1.4 2.8-1.4.5 0 .9.1 1.3.4.1.1.1.3.1.4 0 .1 0 .2-.1.3l-.4.9h-.3c0-.4-.1-1.6-1.2-1.6-1.4 0-2.2 2.6-2.2 4 0 1.1.4 1.7 1.4 1.7.8-.1 1.5-.3 2.2-.8v.7zm4.5.2c-.6.4-1.3.7-2 .8-.5 0-1-.3-1-.9v-.1c0-.3.1-.6.2-1l.8-3.7c0-.1 0-.2.1-.3 0-.1-.1-.2-.4-.2l-.7-.1v-.3l.7-.1c.4-.1.5-.1.6-.5l.6-1.3h.3v1.5c0 .2.2.2.4.3l1.1.2v.3l-1.2.2c-.4.1-.5.2-.6.6l-.6 2.7c-.1.4-.2.9-.2 1.3 0 .6.3.8.8.8.4 0 .8-.2 1.2-.4l-.1.2zm4.6-.1c-.5.4-1.2.7-1.8.8-.6 0-1.1-.5-1.1-1.1 0-.5.2-1.1.3-1.6l.6-2c.1-.3.2-.7.2-1 0-.5-.6-.4-1.2-.5v-.3c.7-.2 1.3-.4 2-.5.2.1.3.2.4.4 0 .3-.4 1.4-.6 2.4l-.4 1.3c-.1.4-.2.9-.3 1.3 0 .6.4.8.6.8.5 0 .9-.2 1.3-.5v.5zm-1.3-8c0-.4.3-.6.7-.6.4 0 .6.2.6.6 0 .4-.3.7-.6.7h-.1c-.3 0-.6-.2-.6-.5v-.2zm2.2 6.6c0-2.4 1.3-4.7 3.9-4.7 1.4 0 2.1.8 2.1 2.3s-.8 4.7-4 4.7c-1.1.1-2-.7-2.1-1.8 0-.2 0-.3.1-.5zm2.6 1.7c1.8 0 2.4-2.5 2.4-4.1 0-1.1-.4-1.8-1.4-1.8-2 0-2.5 2.8-2.5 4.1s.3 1.8 1.5 1.8zm5.7-1.3c-.1.3-.2.5-.2.8 0 .2.1.4.3.5v.2c-.3.1-.6.2-.9.2-.2-.1-.4-.3-.4-.6v-.2l1.1-3.9c.1-.3.1-.5.1-.8 0-.3-.2-.5-.5-.5h-.1c-.2 0-.5 0-.7.1l.1-.4c.5-.3 1-.4 1.5-.5.4 0 .5.6.8.6l2.4-.6c1.2 0 1.3.5 1.3 1 0 .3-.1.5-.2.8l-.7 2.9c0 .2-.1.5-.1.8 0 .5.3.7.6.7.5-.1 1-.3 1.4-.5l-.1.4c-.5.5-1.2.8-1.8.9-.6 0-1.1-.4-1.1-1 0-.2.1-.5.1-.7l.7-3c.1-.2.1-.5.1-.8 0-.3-.2-.8-1-.8-1.1 0-1.8.6-2.1 2l-.6 2.4zm6.6 1.2c0-.4.3-.7.7-.7h.1c.3 0 .6.2.7.5v.1c0 .4-.3.7-.7.7-.4 0-.7-.2-.8-.6zm4 .2l.5-.2c.6-.2.5-.4.7-1.3l1.1-5.6c.1-.2.1-.5.1-.7 0-.3-.1-.3-.6-.5l-.5-.2v-.3h6.2l.1.1-.4 2h-.3l-.4-.9c-.3-.7-.4-.7-1.6-.7s-1.5 0-1.6.6l-.5 2.7v.3c0 .2.1.2.3.2h1.1c.5 0 .5 0 .8-.4l.5-.7h.3l-.5 2.8h-.3l-.2-.7c-.1-.4-.2-.4-.7-.4h-1c-.4 0-.4 0-.5.4l-.3 1.8c-.1.4-.1.8-.2 1.1 0 .2.3.3.5.4l.8.3-.1.3h-3.5l.2-.4zm6.9-1.8c0-2.4 1.3-4.7 3.9-4.7 1.4 0 2.1.8 2.1 2.3s-.8 4.7-3.9 4.7c-1.1.1-2-.7-2.1-1.7v-.6zm2.6 1.7c1.8 0 2.4-2.5 2.4-4.1 0-1.1-.4-1.8-1.4-1.8-2 0-2.5 2.8-2.5 4.1s.4 1.8 1.5 1.8zm6.2.2c-.3.1-.7.2-1 .2-.2 0-.4-.3-.4-.5v-.3l1-3.9c.1-.3.1-.5.1-.8 0-.3-.2-.5-.5-.5h-.1c-.2 0-.5 0-.7.1l.1-.4c.5-.3 1-.5 1.5-.5.2 0 .4.1.5.3.1.2.2.3.4.3.3 0 .5-.1.7-.3.4-.2.8-.3 1.2-.3.2 0 .4.1.5.2.1.1.1.3.1.4 0 .1-.1.2-.1.3l-.3.6h-.2c-.1-.4-.4-.7-.9-.8-.7 0-1.1.6-1.4 1.7l-.7 2.7c-.1.2-.1.5-.1.7 0 .4.1.5.3.5v.3zm7.1 0c-.3.1-.6.2-.9.2-.2-.1-.4-.3-.4-.6v-.2l1.4-5.7c.2-.7.3-1.5.4-2.2 0-.2 0-.3-.4-.3l-.6-.1v-.2c.8-.2 1.6-.5 1.9-.5.1 0 .3.1.3.2s0 .2-.1.3l-.7 2.7v.3c0 .1 0 .1.1.1.7-.3 1.5-.5 2.3-.6.7 0 1.2.3 1.2.8 0 .3-.1.7-.2 1l-.6 2.6c-.1.4-.2.8-.2 1.2 0 .4.4.6.7.6.5-.1.9-.2 1.3-.5l-.1.3c-.5.5-1.2.8-1.8.8-.6 0-1.1-.4-1.1-1 0-.3.1-.6.2-.9l.7-2.8c.1-.3.1-.5.1-.8 0-.4-.3-.8-.9-.8-1.1-.1-2.1.8-2.2 1.9l-.7 2.7c-.1.3-.1.5-.1.8.1.3.2.5.4.7zm11.3-.6c-.9.6-1.9.9-3 1-1.2 0-1.9-.7-1.9-2 0-2.1 1.3-4.9 3.9-4.9.9 0 1.6.4 1.6 1.3 0 .5-.2 1-.6 1.3-.6.4-1.3.7-2 .8l-.8.2c-.3 0-.7.1-1 .3-.1.1-.1.2-.1.7 0 1 .2 1.8 1.4 1.8.8-.1 1.6-.3 2.4-.7l.1.2zm-2-3c.8-.2 1.6-.5 1.6-1.4 0-.6-.4-1-.9-1.1h-.1c-1.8 0-2.2 2.5-2.2 2.6 0 .1.1.1.1.2.2 0 .4 0 .6-.1l.9-.2zm10.1 3.1c-.5.4-1.1.7-1.8.8-.5 0-.8-.6-1.1-.6-.8.3-1.6.5-2.4.6-1 0-1.5-.5-1.5-1.8s.9-5.1 4.1-5.1c.2 0 .5 0 .7.1.1.1.3.1.4.1.1 0 .2-.1.3-.1l.4-.2.1.1c0 .2-.4 1.3-.6 2.3l-.4 1.9c-.1.4-.2.7-.2 1.1 0 .6.3.8.6.8.5 0 .9-.2 1.3-.4l.1.4zm-2.2-3.4c.1-.4.2-.9.2-1.3 0-.5-.4-.9-.9-.9h-.1c-2.1 0-2.7 3.3-2.7 4.5 0 .9.3 1.4 1.1 1.4.6 0 1.1-.3 1.4-.7.3-.5.5-1.1.6-1.8l.4-1.2zm6.2 3.3c-.5.5-1.2.9-1.9 1-.6 0-1.1-.5-1.1-1.1v-.1c0-.2.1-.3.1-.5l1.1-5c.2-.7.4-1.4.5-2.1 0-.2 0-.3-.4-.3l-.6-.1v-.2c.8-.2 1.6-.5 1.9-.5.1 0 .3.1.3.2s0 .2-.1.3l-1.5 6.2c-.2.6-.3 1.1-.3 1.7 0 .5.2.8.6.8.5-.1 1-.3 1.4-.6v.3zm4 .2c-.6.4-1.3.7-2 .8-.5 0-1-.3-1-.8v-.2c0-.3.1-.6.1-.9l.8-3.7c0-.1.1-.2.1-.3 0-.1-.1-.2-.4-.2l-.7-.1v-.3l.7-.1c.5-.1.5-.1.6-.5l.6-1.3h.3v1.5c0 .2.2.2.4.3l1.1.2v.3l-1.2.2c-.3 0-.6.3-.6.6l-.6 2.7c-.1.4-.2.9-.2 1.3 0 .6.3.8.8.8.4 0 .8-.2 1.2-.4v.1zm2.8.4c-.3.1-.6.2-.9.2-.2-.1-.4-.3-.4-.6v-.2l1.4-5.7c.2-.7.3-1.5.4-2.2 0-.2 0-.3-.4-.3l-.6-.1v-.2c.8-.2 1.6-.5 1.9-.5.1 0 .3.1.3.2v.3l-.7 2.7v.3c0 .1 0 .1.1.1.7-.3 1.5-.5 2.3-.6.7 0 1.2.3 1.2.8 0 .3-.1.7-.2 1l-.6 2.6c-.1.4-.2.8-.2 1.2 0 .4.4.6.7.6.5-.1.9-.2 1.3-.5l-.1.3c-.5.5-1.2.8-1.8.8-.6 0-1.1-.4-1.1-1 0-.3.1-.7.2-1l.7-2.8c.1-.3.1-.5.1-.8 0-.4-.3-.8-.9-.8-1.1-.1-2.1.8-2.2 1.9l-.7 2.7c-.1.3-.1.5-.1.8 0 .2.1.4.3.5v.3zm6.2-.3c0-.4.3-.7.7-.7h.1c.3 0 .6.2.7.5v.1c0 .4-.3.7-.7.7-.5 0-.8-.2-.8-.6zM5.5 83.5h1.4l3.8 9H9.3l-.9-2.3H3.9L3 92.5H1.7l3.8-9zm.7 1.3l-1.8 4.5H8l-1.8-4.5zm6.2-1.3h2.1l2.8 7.5 2.8-7.5h2.1v9h-1.3v-7.8l-3 7.8h-1.3l-3-7.8v7.8h-1.3v-9zm13.4 0h5v1.1H27v2.6h3.4v1.1H27v3h3.8v1.1h-5v-8.9zm8.1 0h2.2c1.8 0 3.5.3 3.5 2.4 0 1-.8 1.9-1.9 2 .4.2.7.5.9.9l1.7 3.6h-1.5l-1.4-3.1c-.4-.9-.8-.9-1.5-.9h-.8v4h-1.3v-8.9zm1.3 3.9h1.1c1.2 0 1.9-.6 1.9-1.4s-.6-1.3-1.8-1.3h-1.2v2.7zm7.8-3.9h1.3v9H43v-9zM53.5 85c-.6-.3-1.2-.5-1.9-.5-1.9.2-3.3 1.9-3.2 3.8.2 1.6 1.5 3 3.1 3.2.7 0 1.4-.1 2-.4v1.3c-.6.2-1.3.3-2 .3-2.4.2-4.6-1.7-4.7-4.1V88c-.1-2.5 1.9-4.6 4.3-4.6h.4c.7 0 1.4.1 2 .4V85zm5.1-1.5H60l3.8 9h-1.4l-.9-2.3h-4.4l-.9 2.3h-1.4l3.8-9zm.7 1.3l-1.8 4.5h3.6l-1.8-4.5zm6.9-1.3H68l4 7.2v-7.2h1.3v9h-1.7l-4.1-7.4v7.4h-1.3v-9zm13.7 0h2.4c1.8 0 3.4.6 3.4 2.7s-1.6 2.7-3.2 2.7h-1.3v3.6H80v-9zm1.3 4.3h1.3c.9.1 1.7-.5 1.8-1.4v-.2c0-1.1-1.2-1.6-2-1.6h-1.1v3.2zm13.8 1c0 2.5-1.3 3.9-3.5 3.9S88 91.4 88 88.8v-5.3h1.3v5.1c0 1.7.5 2.9 2.2 2.9s2.2-1.2 2.2-2.9v-5.1H95v5.3zm2.6-5.3h2.4c1.9 0 3.2.6 3.2 2.3 0 1.1-.8 2-1.9 2.1 1.2 0 2.1 1 2.1 2.1 0 1.9-1.6 2.4-3.4 2.4h-2.4v-8.9zm1.3 3.9h.7c1.2 0 2.3-.1 2.3-1.4 0-1.1-.9-1.3-1.7-1.3h-1.3v2.7zm0 4.1h1c1.2 0 2.2-.2 2.2-1.5 0-1.4-1.2-1.6-2.3-1.6h-.9v3.1zm7.3-8h1.3v7.8h3.8v1.1h-5.1v-8.9zm7.3 0h1.3v9h-1.3v-9zm10.7 1.5c-.6-.3-1.2-.5-1.9-.5-1.9.2-3.4 1.9-3.2 3.8.2 1.7 1.4 3 3.1 3.2.7 0 1.4-.1 2-.4l.1 1.2c-.6.2-1.3.3-2 .3-2.4.2-4.6-1.7-4.7-4.1v-.6c-.1-2.5 1.9-4.5 4.4-4.6h.3c.7 0 1.4.1 2 .4l-.1 1.3zm6.1-1.5h1.3v3.8h4.3v-3.8h1.3v9h-1.3v-4.1h-4.3v4.1h-1.3v-9zm10.5 0h5v1.1h-3.7v2.6h3.4v1.1h-3.4v3h3.8v1.1h-5l-.1-8.9zm10.6 0h1.4l3.8 9h-1.4l-.9-2.3h-4.4l-.9 2.3h-1.4l3.8-9zm.6 1.3l-1.8 4.5h3.6l-1.8-4.5zm6.7-1.3h1.3v7.8h3.8v1.1h-5.1v-8.9zm8 1.2h-2.8v-1.1h6.9v1.1H168v7.9h-1.3v-7.9zm6-1.2h1.3v3.8h4.3v-3.8h1.3v9h-1.3v-4.1H174v4.1h-1.3v-9zm16.5 0h1.4l3.8 9H193l-.9-2.3h-4.4l-.9 2.3h-1.4l3.8-9zm.6 1.3l-1.8 4.5h3.6l-1.8-4.5zm10.1.1c-.5-.2-1.1-.4-1.7-.4-.7 0-1.6.3-1.6 1.2 0 1.7 3.9 1.3 3.9 4.3 0 1.9-1.5 2.7-3.3 2.7-.6 0-1.3-.2-1.9-.4l.1-1.2c.6.3 1.2.4 1.9.4.9.1 1.7-.5 1.8-1.4 0-2-3.9-1.5-3.9-4.3 0-1.6 1.3-2.4 2.9-2.4.7 0 1.3.1 1.9.3l-.1 1.2zm7.6 0c-.5-.2-1.1-.4-1.7-.4-.7 0-1.6.3-1.6 1.2 0 1.7 3.9 1.3 3.9 4.3 0 1.9-1.5 2.7-3.3 2.7-.6 0-1.2-.2-1.8-.4l.1-1.2c.6.3 1.2.4 1.9.4.9.1 1.7-.6 1.8-1.4 0-2-3.9-1.5-3.9-4.3 0-1.6 1.3-2.4 2.9-2.4.7 0 1.3.1 1.9.3l-.2 1.2zm6.8-1.5c2.7 0 4.3 2 4.3 4.7s-1.6 4.7-4.3 4.7-4.3-2-4.3-4.8 1.6-4.6 4.3-4.6zm0 8.1c2.1 0 3-1.7 3-3.5s-1-3.5-3-3.5-3 1.7-3 3.5 1 3.6 3 3.5zm12.8-6.5c-.6-.3-1.2-.5-1.9-.5-1.9.2-3.4 1.9-3.2 3.8.2 1.7 1.4 3 3.1 3.2.7 0 1.4-.1 2-.4l.1 1.2c-.7.2-1.4.3-2.1.3-2.4.2-4.6-1.7-4.7-4.1v-.6c-.1-2.5 1.9-4.5 4.4-4.6h.3c.7 0 1.4.1 2 .4V85zm2.8-1.5h1.3v9h-1.3v-9zm7.4 0h1.4l3.8 9H241l-.9-2.3h-4.4l-.9 2.3h-1.4l3.9-9zm.6 1.3l-1.8 4.5h3.6l-1.8-4.5zm7.3-.1h-2.8v-1.1h6.9v1.1h-2.8v7.9h-1.3v-7.9zm7-1.2h1.3v9h-1.3v-9zm8.7-.1c2.7 0 4.3 2 4.3 4.7s-1.6 4.7-4.3 4.7-4.3-1.9-4.3-4.7 1.5-4.7 4.3-4.7zm0 8.1c2.1 0 3-1.7 3-3.5s-1-3.5-3-3.5-3 1.7-3 3.5.9 3.6 3 3.5zm6.7-8h1.8l4 7.2v-7.2h1.3v9H273l-4.1-7.4v7.4h-1.3v-9zm-11.2-45h-21.2c-.5 1.1-.9 2-1.4 3.1-1.3 3.1-2.6 5.9-3.6 8.3-.9 2.1-1.9 4.1-3 6-.5.9-1.1 1.7-1.8 2.5-.5.5-1.1.8-1.7 1.2-.1.1-.3.2-.4.2h-.1c-1.1-.4-2.1-1.2-2.8-2.2-.4-.8-.6-1.7-.6-2.6-.1-1.3-.1-2.7-.1-4.2V15.1c0-.8 0-1.7.1-2.5s.1-1.5.2-2.2c.1-.5.2-1.1.5-1.5.6-1.1 1.5-1.9 2.7-2.4a15 15 0 0 1 3.6-1.1v-.8h-23.7v.8c1.2.1 2.4.3 3.6.6 1.4.5 2.5 1.4 3.2 2.6.5.8.7 1.7.8 2.6.1 1.1.1 2.1.2 3.1 0 1.7.1 3.3.1 4.7v15.8h-27V17.7c0-2.1 0-4.1.1-6 0-1 .3-2.1.8-3 .4-.7 1-1.4 1.7-1.9s1.5-.8 2.3-1c.8-.2 1.6-.4 2.4-.5v-.7h-23.5v.8c1.2.1 2.5.4 3.7.8 1.1.4 2 1 2.7 1.9.4.4.6 1 .7 1.5.2.7.3 1.5.4 2.2.1.8.1 1.7.1 2.6v22.9c0 1.6 0 3.1-.1 4.6s0 2.9-.1 4.1 0 2.3 0 3 0 1.7-.1 2.7-.1 1.8-.2 2.6l-.3 2.1c-.1.5-.2.9-.5 1.3-.8.8-1.7 1.5-2.8 1.8-1.2.5-2.5.9-3.8 1.1v.7h16.4V36.9h27v24.6h25.8v-.8l-2.1-.3c-.7-.1-1.4-.3-2.1-.6-.6-.2-1.1-.6-1.6-1.1-.4-.5-.6-1-.6-1.7.2-2 .8-4 1.6-5.9.7-1.8 1.4-3.6 2.2-5.4.7-1.6 1.4-3.3 2.1-5.1h21l8.3 20.9h8.4l-1.8-4.9c-.1-.3-.2-.5-.3-.8-.5-1.4-.8-2.3-1.2-3.4s-.9-2.6-1.5-4.2c-1.2-3.3-2.5-6.5-3.7-9.9L261.6 28c-1.3-3.6-2.7-7.3-4.1-11.1-1.4-3.9-2.9-7.9-4.6-12.2h-.6c-.2.4-.5.8-.9 1.4-.4.6-.9 1.2-1.4 1.8-.6.7-1.3 1.3-2 1.8-.8.6-1.6 1.1-2.5 1.5l.8 1.7 10.1 25.6zm-86.2-17.4c.1-2.9-.7-5.8-2.3-8.2-1.4-2.2-3.4-4.1-5.8-5.4-2.3-1.3-4.9-2.1-7.6-2.5-3.1-.4-6.1-.5-9.2-.5h-3.6c-1.4 0-2.8 0-4.4.1s-3.1 0-4.7 0h-9.8v.8c1.4.2 2.8.5 4 .8 1.1.3 2.2.8 3 1.7.4.4.6 1 .8 1.5.2.8.3 1.6.4 2.4.1.9.1 1.8.2 2.8s0 1.9 0 2.9v24.6c0 1.5-.1 2.9-.1 4.1v3c0 .7 0 1.7-.1 2.6s-.1 1.8-.1 2.7c-.1.7-.2 1.4-.4 2.1-.1.5-.3 1-.6 1.4-.7.9-1.7 1.5-2.8 1.9-.8.3-1.6.5-2.5.7l-1.4-3.9c-.1-.3-.2-.5-.3-.8-.5-1.4-.8-2.3-1.2-3.4s-.9-2.6-1.5-4.2c-1.2-3.3-2.5-6.5-3.7-9.9l-4-10.4c-1.3-3.6-2.7-7.3-4.1-11.1s-3-7.9-4.6-12.2h-.6c-.2.3-.5.8-.9 1.3-.4.6-.9 1.2-1.4 1.8-.6.7-1.3 1.3-2 1.8-.8.6-1.6 1.1-2.5 1.5l.8 1.7 10.2 25.7H86.2c-.5 1.1-.9 2-1.3 3.1-1.3 3.1-2.6 5.9-3.6 8.3-.9 2.1-1.9 4.1-3 6-.5.9-1.1 1.7-1.8 2.5-.5.5-1.1.8-1.7 1.2-1.1.6-2.2 1-3.4 1.1v.8h16.5v-.8l-2.1-.3c-.7-.1-1.4-.3-2.1-.6-.6-.2-1.1-.6-1.6-1-.4-.4-.6-1-.6-1.7.2-2 .8-4 1.6-5.9.7-1.8 1.4-3.6 2.2-5.4.7-1.6 1.3-3.3 2-5.1h21l8.3 20.9h32v-.8c-1.8 0-3.5-.4-5.1-1.2-1-.5-1.8-1.2-2.4-2.1-.6-.9-.9-1.9-.9-3-.1-1.2-.1-2.7-.1-4.3V18.8c0-2.6.1-4.9.1-6.7.1-1.2.1-2.1.2-2.8s.1-1.2.1-1.5c0-.3.1-.6.2-.9.1-.3.1-.6.2-.9l1.5-.2c.9-.1 1.7-.1 2.6-.1 1.5 0 3 .1 4.4.3 4.2.6 7.9 3 10.1 6.6 1.6 2.4 2.4 5.2 2.3 8.1 0 3.2-.9 6.3-2.7 9-1.9 2.7-4.6 4.7-7.8 5.7-.8.3-1.6.5-2.4.7l.1 1.5h.3c1.7-.1 3.4-.3 5.1-.6 1.6-.2 3.2-.6 4.7-1.2 1.5-.5 2.9-1.2 4.2-2.1 1.3-.8 2.6-1.9 3.6-3.1 1-1.3 1.9-2.7 2.5-4.2.4-1.7.8-3.5.8-5.3zm-147 5.7V1.2C11.7 4.3 3 13.7.6 25.4l12.6 7.3 10-5.9z"/><path class="st1" d="M.2 28.4c-.1 1.1-.2 2.2-.2 3.3 0 7.5 2.6 14.7 7.5 20.4l16.9-9.7-24.2-14z"/><path class="st2" d="M40.3 26.5l22.1 12.7c2.8-11.3-.9-23.3-9.6-31.1l-12.5 7.2v11.2z"/><path class="st3" d="M41.5 61.5V47.2l-9.7-5.6L9.9 54.3c5.8 5.7 13.6 8.8 21.8 8.8 3.3 0 6.6-.6 9.8-1.6z"/><path class="st4" d="M50.5 6.2C43.5 1 34.7-1 26.1.5v19.8L50.5 6.2z"/><path class="st5" d="M44.6 60.6c8-3.6 14.1-10.3 17-18.5l-17-9.8v28.3z"/><path class="st6" d="M13.2 32.4l9.8-5.6V1.5C11.8 4.7 3.3 13.8.9 25.2l12.3 7.2z"/></svg>