<svg id="Layer_1" xmlns="http://www.w3.org/2000/svg" viewBox="0 0 191.1 58.3"><style>.st0{fill:#00853f}</style><path class="st0" d="M0 .3V58h57.7V.3H0zm44.1 7.3c0-.5.1-.5.2-.1.4 1.3 1.2 3.9.7 6.8-.3 2.3-.5 4.4-7.4 7.1-7.4 2.9-9.3 5.5-9.7 6.8-.2.5-.5.9-1 .9h-9.5c-.5.1-.8-.3-.7-.8.2-1.1.8-2.4 2.4-4.3 4-4.8 13-6.6 20.6-9.6 4.2-1.7 4.5-5.2 4.4-6.8zm.6 14.4c-.6 1.3-1.8 3.8-2.8 4.8-1.2 1.3-3.5 2.4-4.8 2.4h-4.2c-.7 0-1-.6-.8-1.1.4-1.1 1.8-2.8 6.4-3.9 3-.7 4.9-1.8 5.9-2.5.4-.3.5-.2.3.3zM16 19.9c1.9-5.9 12.1-7 18-9.4 1.5-.6 2-1.5 2.1-2.1.1-.5.2-.5.4-.1.2.9.5 2.4-.4 3.6-1.4 1.9-11.1 3.6-16.6 7.5-2.1 1.4-3.1 3-3.6 3.9-.2.4-.4.4-.4-.1.1-.9.2-2.3.5-3.3zm19.6 34.9c0 .1-.1.2-.3.2h-13c-.1 0-.2-.1-.3-.2l-.8-6.4c0-.1 0-.2.1-.2.1-.1.1-.1.2-.1H36c.1 0 .2.1.2.1.1.1.1.1.1.2l-.7 6.4zm7-10.9l-.8 2.4c-.1.1-.1.2-.2.2H16.3c-.1 0-.2-.1-.2-.2l-.8-2.4c0-.1 0-.2.1-.2.1-.1.1-.1.2-.1h26.9c.1 0 .2.1.2.1-.1.1-.1.2-.1.2zm2.7-2c0 .1-.1.2-.3.2H12.6c-.1 0-.2-.1-.3-.2L10 32.5c0-.1 0-.2.1-.2.1-.1.1-.1.2-.1h36.9c.1 0 .2.1.2.1.1.1.1.2.1.2l-2.2 9.4z"/><path d="M67.7.4h5.7c2.1 0 3.6.2 4.5.5 1 .3 1.8.9 2.4 1.8.6.8.9 1.8.9 3 0 .9-.2 1.8-.5 2.5-.3.6-.7 1.1-1.3 1.6-.5.5-1.1.8-1.7 1-1 .4-2.1.6-3.4.6h-3.1v7.1h-3.6V.4zm3.6 3v4.9h2.9c1.1 0 2-.3 2.7-.9.5-.4.7-1 .7-1.7s-.2-1.3-.8-1.7c-.5-.4-1.4-.7-2.6-.7l-2.9.1zM83 .4h12.1v3.1h-8.6v4h5.2v2.7h-5.2v5.1h8.6v3.1H83V.4zm14.2 0h13.7v3.1h-5.1v14.9h-3.6v-15h-5.1l.1-3zm16 0h12.1v3.1h-8.6v4h5.2v2.7h-5.2v5.1h8.6v3.1h-12.1V.4zm15.1 0h4.9c2.6 0 4.4.2 5.4.6 1 .4 1.8 1 2.4 1.9.5.9.8 1.9.8 3.1 0 1.1-.2 2-.8 2.7-.5.7-1.4 1.3-2.6 1.8l3.3 7.9h-3.5l-3-7.3h-3.3v7.3h-3.6V.4zm3.6 3.1v4.8h2.8c1 0 1.9-.3 2.7-.9.5-.4.7-1 .7-1.6 0-.7-.2-1.2-.8-1.7-.5-.4-1.4-.7-2.6-.7l-2.8.1zm14.7 9.9c.6.9 1.2 1.6 1.8 1.9.6.4 1.3.5 2.1.5 1 0 1.7-.2 2.2-.7.6-.5.8-1 .8-1.6 0-.5-.2-1-.6-1.5-.4-.4-1.4-.8-2.8-1.2-2-.5-3.4-1.1-4.3-1.9-1.1-1-1.6-2.2-1.6-3.6 0-1.5.5-2.8 1.6-3.8s2.5-1.5 4.4-1.5c1.1 0 2 .2 2.9.5.8.4 1.6.9 2.1 1.4.4.4.8.9 1.1 1.5l-3 1.2c-.5-.7-1-1.3-1.6-1.6-.5-.3-1.1-.5-1.7-.5-.8 0-1.5.2-1.9.7-.5.4-.7 1-.7 1.6 0 .5.2.9.6 1.3.4.4 1.3.7 2.9 1.1 1.6.4 2.7.8 3.5 1.3.8.5 1.4 1.1 1.8 2 .4.8.6 1.6.6 2.5 0 .9-.2 1.8-.8 2.8-.5.9-1.3 1.6-2.3 2.1-1 .5-2.2.7-3.4.7-1.2 0-2.3-.2-3.2-.6-.9-.4-1.7-1-2.3-1.7-.4-.4-.9-1.1-1.3-1.9l3.1-1zm19-13.4c1.7 0 3.1.3 4.1.8 1.4.7 2.4 1.8 3.1 3.2.7 1.4 1.1 3.2 1.1 5.4 0 3.1-.7 5.4-2.2 7-1.5 1.6-3.3 2.4-5.8 2.4s-4.4-.8-5.8-2.4c-1.5-1.6-2.2-3.9-2.2-7 0-1.8.3-3.5.9-5 .3-.8.8-1.6 1.5-2.3.7-.7 1.4-1.2 2.3-1.6 1-.3 2-.5 3-.5zm.4 3.1c-1.2 0-2.2.5-3 1.4-.8 1-1.2 2.6-1.2 4.8 0 2.2.4 3.8 1.2 4.8.8 1 1.8 1.5 3.1 1.5 1.2 0 2.2-.5 3-1.5.8-1 1.2-2.5 1.2-4.7 0-2.5-.5-4.2-1.5-5.2-.7-.8-1.7-1.1-2.8-1.1zM176.4.4h3.8l7.4 12.2V.4h3.5v18.1h-3.5L180 5.9v12.6h-3.6V.4z"/><path class="st0" d="M78.6 34.3c-.2.8-.4 1.4-.7 1.8-.5.7-1.1 1.3-1.8 1.7-.7.4-1.6.6-2.6.6s-2.1-.2-3-.8c-1-.6-1.6-1.3-2.2-2.4-.5-1-.7-2.2-.7-3.7s.2-2.8.7-3.9c.5-1.1 1.2-2 2.2-2.5 1-.5 1.9-.8 3-.8.8 0 1.5.2 2.3.5.7.4 1.3.8 1.8 1.5.4.4.6 1 .8 1.8l-2.5.7c-.2-.7-.5-1.3-1-1.6-.4-.4-1-.5-1.6-.5-1 0-1.7.5-2.2 1.4-.5.9-.8 2.1-.8 3.6 0 .9.1 1.8.4 2.5.2.7.6 1.2 1 1.6.4.4.9.5 1.4.5.7 0 1.4-.2 2-.8.4-.4.7-.9 1-1.6l2.5.4zm2.8-9.7h9.1V27h-6.4v3H88v2h-3.9v3.9h6.4v2.4h-9.1V24.6zm12.1 0h2.8l5.6 9.1v-9.1h2.7v13.6h-2.7l-5.7-9.4v9.4h-2.7V24.6zm13.9 0h10.3V27h-3.8v11.3h-2.7V27h-3.8v-2.4zm13 0h9.1V27h-6.4v3h3.9v2h-3.9v3.9h6.4v2.4h-9.1V24.6zm12.2 0h3.6c2 0 3.3.1 4 .4.7.3 1.3.8 1.8 1.5.4.7.6 1.5.6 2.4 0 .8-.2 1.5-.5 2-.4.5-1 1-2 1.3l2.4 5.9h-2.7l-2.3-5.4h-2.4v5.4h-2.7V24.6h.2zm2.7 2.5v3.6h2.1c.8 0 1.4-.2 2-.7.4-.3.6-.7.6-1.2s-.2-.9-.6-1.3c-.4-.4-1-.5-1.9-.5l-2.2.1zm21.7-2.7c1.3 0 2.3.2 3.1.7 1 .5 1.8 1.3 2.4 2.4.5 1 .8 2.4.8 4.1 0 2.3-.5 4.1-1.6 5.2-1.1 1.2-2.5 1.8-4.3 1.8-1.8 0-3.3-.6-4.4-1.8-1.1-1.2-1.6-3-1.6-5.3 0-1.4.2-2.6.7-3.8.2-.6.6-1.1 1.1-1.7.5-.5 1.1-.9 1.7-1.2.6-.3 1.4-.4 2.1-.4zm.3 2.3c-.9 0-1.7.4-2.3 1.1-.6.7-.9 1.9-.9 3.6 0 1.6.3 2.8.9 3.6s1.4 1.1 2.3 1.1 1.6-.4 2.2-1.1c.6-.7.9-1.9.9-3.6 0-1.8-.4-3.1-1.1-3.9-.4-.5-1.2-.8-2-.8zm9-2.1h2.8l5.6 9.1v-9.1h2.7v13.6h-2.7l-5.7-9.4v9.4h-2.7V24.6zM67.7 44.5h2.7v5.3h5.1v-5.3h2.7V58h-2.7v-5.9h-5.1V58h-2.7V44.5zm14.2 0H91v2.4h-6.4v3h3.9v2h-3.9v3.9H91V58h-9.1V44.5zm15.3 0h2.8l4.4 13.6h-2.7l-1-3.2h-4.4l-1 3.2h-2.6l4.5-13.6zm1.4 3.6L97 52.8h3.1l-1.5-4.7zm8.3-3.6h2.7v11.2h5.6V58H107l-.1-13.5zm8.5 0h10.3v2.4h-3.8v11.2h-2.7V46.8h-3.8v-2.3zm13 0h2.7v5.3h5.1v-5.3h2.7V58h-2.7v-5.9h-5.1V58h-2.7V44.5zm24.5 9.7c-.2.8-.4 1.4-.7 1.8-.5.7-1.1 1.3-1.8 1.7-.7.4-1.6.6-2.6.6s-2.1-.2-3-.8c-1-.5-1.6-1.3-2.2-2.4-.5-1-.7-2.2-.7-3.7s.2-2.8.7-3.9c.5-1.1 1.2-2 2.2-2.5 1-.5 1.9-.8 3-.8.8 0 1.5.2 2.3.5.7.4 1.3.9 1.8 1.5.4.4.6 1 .8 1.8l-2.5.7c-.2-.7-.5-1.3-1-1.6-.4-.4-1-.5-1.6-.5-1 0-1.7.5-2.2 1.4-.6.9-.8 2.1-.8 3.6 0 .9.1 1.8.4 2.5.2.7.6 1.2 1 1.6.4.4.9.5 1.4.5.7 0 1.4-.2 2-.8.4-.4.7-.9 1-1.6l2.5.4zm6-9.7h2.8l4.4 13.6h-2.6l-1-3.2h-4.4l-1 3.2h-2.6l4.4-13.6zm1.4 3.6l-1.6 4.7h3.1l-1.5-4.7zm8.4-3.6h3.6c2 0 3.3.1 4.1.4.7.3 1.3.8 1.7 1.4.4.7.6 1.5.6 2.4 0 .8-.2 1.5-.5 2-.4.5-1 1-2 1.3l2.4 5.9h-2.7l-2.3-5.5h-2.4V58h-2.7V44.5h.2zm2.6 2.3v3.6h2.1c.8 0 1.4-.2 2-.7.4-.3.5-.7.5-1.2s-.2-.9-.6-1.3c-.4-.4-1-.5-1.9-.5h-2.1zm10.6-2.3h9.1v2.4h-6.4v3h3.9v2h-3.9v3.9h6.4V58h-9.1V44.5z"/></svg>