<?xml version="1.0" standalone="no"?>
<!DOCTYPE svg PUBLIC "-//W3C//DTD SVG 20010904//EN"
 "http://www.w3.org/TR/2001/REC-SVG-20010904/DTD/svg10.dtd">
<svg version="1.0" xmlns="http://www.w3.org/2000/svg"
 width="700.000000pt" height="700.000000pt" viewBox="0 0 700.000000 700.000000"
 preserveAspectRatio="xMidYMid meet">
<metadata>
Created by potrace 1.11, written by Peter Selinger 2001-2013
</metadata>
<g transform="translate(0.000000,700.000000) scale(0.100000,-0.100000)"
fill="#000000" stroke="none">
<path d="M3188 4700 c-65 -65 -118 -121 -118 -124 0 -3 27 -46 60 -97 33 -50
70 -108 82 -130 12 -21 24 -39 27 -39 4 0 70 64 149 143 l142 143 -93 95 c-51
52 -102 101 -113 110 -18 16 -24 11 -136 -101z"/>
<path d="M1975 4720 c-112 -26 -171 -109 -166 -237 1 -29 5 -33 44 -43 115
-28 300 -116 456 -217 l84 -55 153 153 154 154 -53 33 c-84 54 -251 134 -367
175 -102 36 -238 53 -305 37z"/>
<path d="M2831 4476 l-155 -155 42 -58 c268 -373 403 -652 403 -829 0 -30 2
-54 5 -54 2 0 55 52 118 116 133 134 147 161 142 282 -3 86 -7 103 -43 217
-29 91 -87 218 -146 320 -56 98 -198 315 -206 315 -3 0 -76 -70 -160 -154z"/>
<path d="M1686 4487 c-120 -120 -128 -133 -131 -210 -6 -175 115 -429 386
-808 149 -209 196 -284 290 -459 64 -119 102 -245 103 -342 1 -43 3 -78 6 -78
14 0 100 99 119 137 82 163 -27 483 -312 912 -151 229 -201 316 -280 491 -70
154 -106 349 -81 433 3 9 3 17 0 17 -3 0 -48 -42 -100 -93z"/>
<path d="M2439 3951 c-183 -183 -269 -276 -265 -286 3 -8 27 -48 54 -87 26
-40 60 -94 76 -120 15 -27 30 -48 34 -48 4 0 130 123 281 274 l273 273 -63 94
c-34 52 -75 111 -91 133 l-27 38 -272 -271z"/>
<path d="M1487 4194 c-1 -1 -15 -4 -32 -7 -43 -6 -86 -25 -113 -50 -24 -22
-57 -76 -50 -82 2 -2 29 -6 61 -9 32 -4 69 -11 82 -16 14 -5 25 -8 25 -5 0 2
28 -8 61 -21 34 -14 63 -23 66 -20 3 2 -4 29 -15 58 -10 29 -25 76 -31 105
-10 42 -17 51 -32 50 -11 -1 -21 -2 -22 -3z"/>
<path d="M1940 4066 c0 -17 143 -263 202 -351 4 -6 38 20 83 65 71 71 86 90
67 90 -5 0 -47 25 -93 55 -86 57 -259 150 -259 141z"/>
<path d="M1204 4003 c-25 -27 -50 -59 -55 -72 -12 -29 -14 -106 -5 -151 25
-125 123 -341 228 -503 l64 -97 38 39 38 39 -66 115 c-36 64 -66 118 -66 121
0 2 -13 33 -30 68 -47 102 -81 206 -95 287 -13 73 -13 171 0 191 14 23 -8 7
-51 -37z"/>
<path d="M2526 3551 l-98 -98 49 -30 c49 -30 70 -40 184 -91 125 -56 257 -81
326 -63 22 6 51 24 66 40 26 30 45 102 39 152 -3 25 -9 28 -70 39 -78 15 -193
55 -310 111 -46 21 -84 39 -85 39 -1 0 -47 -44 -101 -99z"/>
<path d="M1365 2879 c-306 -308 -556 -561 -554 -563 2 -1 62 -42 133 -91 l128
-88 514 514 c283 283 514 519 514 525 0 10 -115 185 -157 237 l-20 26 -558
-560z"/>
<path d="M5753 3262 c-12 -2 -25 -13 -29 -25 -3 -12 -38 -112 -76 -222 -120
-344 -198 -567 -198 -569 0 -1 101 1 145 3 17 1 26 18 50 90 l29 88 138 1 137
2 27 -85 c15 -47 31 -88 37 -92 11 -7 166 -8 173 0 2 2 -14 55 -36 118 -23 63
-54 150 -70 194 -16 44 -45 127 -65 185 -20 58 -47 134 -60 170 -13 36 -29 82
-36 103 -7 20 -19 37 -26 38 -38 3 -121 4 -140 1z m111 -371 c25 -74 46 -135
46 -135 0 -1 -174 2 -182 3 -3 1 -3 11 0 24 16 51 85 247 88 245 1 -2 23 -63
48 -137z"/>
<path d="M3511 3238 c-5 -13 -24 -68 -44 -123 -19 -55 -61 -172 -92 -260 -127
-357 -145 -408 -145 -409 0 -1 37 0 82 0 l82 1 32 89 32 89 138 0 137 0 30
-87 c24 -73 32 -88 50 -89 49 -3 149 -1 153 4 2 2 -21 76 -51 163 -31 87 -74
209 -95 269 -21 61 -59 168 -84 240 -25 71 -46 131 -46 132 0 2 -38 3 -85 3
-79 0 -86 -2 -94 -22z m133 -344 c24 -71 43 -131 41 -133 -4 -3 -111 -5 -162
-2 -21 1 -20 4 24 137 25 74 47 134 49 131 2 -2 24 -61 48 -133z"/>
<path d="M4295 3248 c-3 -7 -13 -38 -24 -68 -11 -30 -42 -118 -69 -195 -43
-120 -176 -500 -186 -530 -3 -9 33 -10 140 -6 17 1 26 16 50 89 l30 87 139 0
139 0 19 -50 c10 -27 20 -57 22 -65 13 -59 21 -65 76 -64 30 1 70 3 90 3 l37
1 -30 83 c-16 45 -40 111 -53 147 -13 36 -62 173 -109 305 -46 132 -88 248
-91 258 -6 14 -20 17 -91 17 -59 0 -86 -4 -89 -12z m134 -356 c23 -68 40 -126
37 -130 -9 -8 -167 -8 -172 0 -7 11 80 268 87 260 3 -4 25 -63 48 -130z"/>
<path d="M4860 2855 c0 -317 3 -405 13 -406 15 -1 125 -1 149 0 14 1 16 17 16
134 0 72 0 137 1 142 1 6 33 10 74 11 216 2 309 44 356 162 17 41 18 143 3
197 -16 57 -69 109 -138 135 -53 21 -80 23 -266 26 l-208 4 0 -405z m400 234
c70 -43 66 -165 -6 -198 -39 -17 -200 -25 -210 -10 -4 6 -7 61 -8 121 l-1 109
97 -2 c75 -1 103 -6 128 -20z"/>
<path d="M1247 2995 l-37 -34 57 -40 58 -41 37 37 37 37 -32 21 c-89 60 -78
58 -120 20z"/>
<path d="M1683 2708 c-37 -38 -38 -40 -18 -55 45 -34 267 -133 341 -152 158
-41 239 -29 282 41 12 20 22 37 22 39 0 2 -42 5 -93 5 -79 1 -109 7 -202 39
-61 20 -151 57 -202 80 l-91 43 -39 -40z"/>
<path d="M1227 2232 c-3 -4 9 -7 25 -7 34 0 55 -23 44 -50 -8 -22 -18 -13 -20
17 0 13 -8 24 -17 26 -12 2 -18 -6 -21 -33 -2 -20 0 -39 4 -41 5 -3 8 -2 7 3
-1 4 -1 17 0 28 2 20 2 20 16 1 12 -16 12 -22 2 -28 -8 -5 -9 -8 0 -8 18 0 43
29 43 50 0 10 -7 26 -16 34 -16 17 -59 22 -67 8z"/>
</g>
</svg>
